<svg width="156" height="160" viewBox="0 0 156 160" fill="none" xmlns="http://www.w3.org/2000/svg">
<path d="M3.57342 148.482V143.609H12.128C15.2322 143.609 17.5783 142.996 19.1665 141.768C20.7547 140.541 21.5488 138.556 21.5488 135.813C21.5488 133.286 20.8089 131.409 19.329 130.182C17.8852 128.919 15.6473 128.287 12.6153 128.287H3.57342V123.468H12.7777C15.0878 123.468 17.1452 123.739 18.95 124.28C20.7908 124.822 22.3429 125.616 23.6062 126.663C24.8696 127.673 25.8441 128.973 26.5299 130.561C27.2157 132.113 27.5587 133.918 27.5587 135.975C27.5587 138.682 26.945 140.974 25.7178 142.851C24.4906 144.692 22.6678 146.1 20.2494 147.074C17.8671 148.013 14.9073 148.482 11.37 148.482H3.57342ZM0 159.202V123.468H5.90156V159.202H0Z" fill="#3F3F3F"/>
<path d="M45.6499 159.906C43.3759 159.906 41.3727 159.581 39.6401 158.932C37.9075 158.246 36.4457 157.289 35.2545 156.062C34.0995 154.799 33.2152 153.283 32.6015 151.514C31.9879 149.745 31.6811 147.778 31.6811 145.613C31.6811 143.411 31.9699 141.389 32.5474 139.549C33.161 137.672 34.0273 136.047 35.1462 134.676C36.3013 133.304 37.709 132.239 39.3694 131.481C41.0659 130.723 42.9969 130.344 45.1626 130.344C47.1118 130.344 48.8624 130.687 50.4145 131.373C52.0027 132.023 53.3382 133.015 54.4211 134.351C55.5039 135.65 56.298 137.275 56.8033 139.224C57.3448 141.173 57.5433 143.429 57.3989 145.992L35.417 146.208V142.526L53.8255 142.364L51.8764 144.584C52.0929 142.454 51.9124 140.704 51.3349 139.332C50.7935 137.924 49.9814 136.878 48.8985 136.192C47.8517 135.506 46.6065 135.163 45.1626 135.163C43.5745 135.163 42.1848 135.578 40.9937 136.408C39.8386 137.238 38.9362 138.43 38.2865 139.982C37.6729 141.498 37.3661 143.339 37.3661 145.504C37.3661 148.717 38.088 151.153 39.5318 152.814C40.9756 154.474 43.015 155.304 45.6499 155.304C46.805 155.304 47.7796 155.16 48.5736 154.871C49.3677 154.582 50.0355 154.203 50.5769 153.734C51.1184 153.229 51.5515 152.669 51.8764 152.056C52.2012 151.406 52.4539 150.738 52.6343 150.052L57.832 151.135C57.5433 152.471 57.0741 153.68 56.4243 154.763C55.8107 155.809 54.9986 156.73 53.9879 157.524C52.9773 158.282 51.7681 158.859 50.3604 159.257C48.9887 159.69 47.4186 159.906 45.6499 159.906Z" fill="#3F3F3F"/>
<path d="M76.3696 159.906C74.0956 159.906 72.0923 159.581 70.3598 158.932C68.6272 158.246 67.1653 157.289 65.9742 156.062C64.8191 154.799 63.9348 153.283 63.3212 151.514C62.7076 149.745 62.4008 147.778 62.4008 145.613C62.4008 143.411 62.6895 141.389 63.267 139.549C63.8807 137.672 64.7469 136.047 65.8659 134.676C67.0209 133.304 68.4287 132.239 70.089 131.481C71.7855 130.723 73.7166 130.344 75.8823 130.344C77.8314 130.344 79.5821 130.687 81.1342 131.373C82.7223 132.023 84.0579 133.015 85.1407 134.351C86.2236 135.65 87.0177 137.275 87.523 139.224C88.0644 141.173 88.2629 143.429 88.1186 145.992L66.1366 146.208V142.526L84.5451 142.364L82.596 144.584C82.8126 142.454 82.6321 140.704 82.0546 139.332C81.5131 137.924 80.701 136.878 79.6182 136.192C78.5714 135.506 77.3261 135.163 75.8823 135.163C74.2941 135.163 72.9045 135.578 71.7133 136.408C70.5583 137.238 69.6559 138.43 69.0062 139.982C68.3926 141.498 68.0858 143.339 68.0858 145.504C68.0858 148.717 68.8077 151.153 70.2515 152.814C71.6953 154.474 73.7346 155.304 76.3696 155.304C77.5246 155.304 78.4992 155.16 79.2933 154.871C80.0874 154.582 80.7551 154.203 81.2966 153.734C81.838 153.229 82.2711 152.669 82.596 152.056C82.9209 151.406 83.1735 150.738 83.354 150.052L88.5517 151.135C88.2629 152.471 87.7937 153.68 87.144 154.763C86.5304 155.809 85.7182 156.73 84.7076 157.524C83.6969 158.282 82.4877 158.859 81.08 159.257C79.7084 159.69 78.1382 159.906 76.3696 159.906Z" fill="#3F3F3F"/>
<path d="M94.4236 159.202V131.048H99.5672L99.2424 141.119H100.109C100.434 138.809 100.939 136.859 101.625 135.271C102.31 133.683 103.231 132.474 104.386 131.644C105.577 130.814 107.021 130.398 108.717 130.398C109.114 130.398 109.529 130.435 109.963 130.507C110.432 130.543 110.955 130.651 111.533 130.832L111.262 137.058C110.685 136.841 110.107 136.679 109.529 136.571C108.952 136.462 108.411 136.408 107.905 136.408C106.497 136.408 105.288 136.823 104.278 137.654C103.267 138.484 102.437 139.639 101.787 141.119C101.137 142.599 100.65 144.331 100.325 146.316V159.202H94.4236Z" fill="#3F3F3F"/>
<path d="M116.313 159.202V121.14H122.161V159.202H116.313Z" fill="#3F3F3F"/>
<path d="M142.248 159.906C139.505 159.906 137.086 159.347 134.993 158.228C132.935 157.073 131.311 155.394 130.12 153.193C128.965 150.955 128.387 148.229 128.387 145.017C128.387 141.732 128.983 139.007 130.174 136.841C131.401 134.676 133.062 133.051 135.155 131.969C137.249 130.886 139.577 130.344 142.139 130.344C144.811 130.344 147.193 130.904 149.286 132.023C151.38 133.142 153.022 134.802 154.213 137.004C155.404 139.206 156 141.949 156 145.234C156 148.482 155.404 151.207 154.213 153.409C153.022 155.575 151.38 157.199 149.286 158.282C147.193 159.365 144.847 159.906 142.248 159.906ZM142.41 155.25C144.034 155.25 145.406 154.871 146.525 154.113C147.68 153.355 148.564 152.236 149.178 150.756C149.792 149.276 150.098 147.508 150.098 145.45C150.098 143.32 149.774 141.498 149.124 139.982C148.51 138.43 147.59 137.238 146.363 136.408C145.171 135.578 143.728 135.163 142.031 135.163C140.443 135.163 139.071 135.542 137.916 136.3C136.761 137.058 135.877 138.159 135.263 139.603C134.65 141.047 134.343 142.833 134.343 144.963C134.343 148.211 135.065 150.738 136.509 152.543C137.952 154.348 139.92 155.25 142.41 155.25Z" fill="#3F3F3F"/>
<path d="M85.2636 0C102.236 0 115.996 13.7589 115.996 30.7314C115.996 47.7042 102.236 61.4638 85.2636 61.4638H84.5031C84.4952 61.4643 84.4868 61.4658 84.4787 61.4658H65.9667C52.7153 61.466 41.9728 72.2086 41.9725 85.46V86.0572C41.9725 87.0527 41.1647 87.8595 40.1692 87.8595C39.174 87.8592 38.3669 87.0525 38.3669 86.0572V32.1027C38.3469 31.6482 38.3346 31.1908 38.3346 30.7314C38.3348 13.759 52.0946 0.00015848 69.067 0H85.2636Z" fill="#3F3F3F"/>
</svg>
