<svg width="118" height="81" viewBox="0 0 118 81" fill="none" xmlns="http://www.w3.org/2000/svg">
<path d="M107.398 80.8822C105.327 80.8822 103.501 80.4598 101.92 79.615C100.367 78.7429 99.1405 77.4757 98.2412 75.8133C97.3691 74.1237 96.9331 72.0661 96.9331 69.6407C96.9331 67.1608 97.3828 65.1032 98.2821 63.4681C99.2086 61.833 100.462 60.6066 102.043 59.7891C103.623 58.9715 105.381 58.5627 107.316 58.5627C109.333 58.5627 111.131 58.9852 112.712 59.83C114.293 60.6748 115.533 61.9284 116.432 63.5907C117.331 65.2531 117.781 67.3243 117.781 69.8042C117.781 72.2569 117.331 74.3144 116.432 75.9768C115.533 77.6119 114.293 78.8383 112.712 79.6558C111.131 80.4734 109.36 80.8822 107.398 80.8822ZM107.521 77.3667C108.747 77.3667 109.782 77.0805 110.627 76.5082C111.499 75.9359 112.167 75.0911 112.63 73.9738C113.094 72.8564 113.325 71.5211 113.325 69.9677C113.325 68.3599 113.08 66.9836 112.589 65.839C112.126 64.6672 111.431 63.7679 110.505 63.1411C109.605 62.5143 108.515 62.2009 107.234 62.2009C106.035 62.2009 105 62.487 104.128 63.0593C103.256 63.6316 102.588 64.4628 102.125 65.5529C101.661 66.643 101.43 67.992 101.43 69.5998C101.43 72.0525 101.975 73.9602 103.065 75.3228C104.155 76.6854 105.64 77.3667 107.521 77.3667Z" fill="#313131"/>
<path d="M87.8174 80.3508V51.6135H92.2322V80.3508H87.8174Z" fill="#313131"/>
<path d="M71.2905 80.3509V69.3547V59.0943H75.1739L74.9287 66.6976H75.5827C75.828 64.9535 76.2095 63.4819 76.7273 62.2828C77.2451 61.0837 77.94 60.1708 78.8121 59.544C79.7114 58.9172 80.8015 58.6038 82.0823 58.6038C82.3821 58.6038 82.6955 58.631 83.0225 58.6855C83.3768 58.7128 83.772 58.7945 84.208 58.9308L84.0036 63.6318C83.5676 63.4682 83.1315 63.3456 82.6955 63.2639C82.2595 63.1821 81.8507 63.1412 81.4692 63.1412C80.4063 63.1412 79.4934 63.4546 78.7303 64.0814C77.9673 64.7082 77.3405 65.5803 76.8499 66.6976C76.3594 67.815 75.9915 69.1231 75.7462 70.6219V80.3509H71.2905Z" fill="#313131"/>
<path d="M57.6593 80.8822C55.9425 80.8822 54.43 80.6369 53.1219 80.1464C51.8138 79.6286 50.7101 78.9064 49.8107 77.9798C48.9387 77.026 48.271 75.8814 47.8077 74.5461C47.3444 73.2107 47.1128 71.7255 47.1128 70.0904C47.1128 68.428 47.3308 66.9019 47.7668 65.512C48.2301 64.0949 48.8842 62.8686 49.729 61.833C50.6011 60.7974 51.6639 59.9935 52.9175 59.4212C54.1983 58.8489 55.6563 58.5627 57.2914 58.5627C58.763 58.5627 60.0848 58.8216 61.2566 59.3394C62.4557 59.83 63.464 60.5794 64.2816 61.5877C65.0991 62.5688 65.6987 63.7951 66.0802 65.2668C66.489 66.7384 66.6389 68.4416 66.5299 70.3765L49.9334 70.54V67.7603L63.8319 67.6377L62.3603 69.3137C62.5238 67.7058 62.3876 66.3841 61.9515 65.3485C61.5428 64.2857 60.9296 63.4954 60.112 62.9776C59.3217 62.4598 58.3815 62.2009 57.2914 62.2009C56.0923 62.2009 55.0431 62.5143 54.1438 63.1411C53.2718 63.7679 52.5905 64.6672 52.0999 65.839C51.6366 66.9836 51.405 68.3735 51.405 70.0086C51.405 72.434 51.95 74.2736 53.0401 75.5271C54.1302 76.7807 55.6699 77.4075 57.6593 77.4075C58.5314 77.4075 59.2672 77.2985 59.8668 77.0805C60.4663 76.8625 60.9705 76.5764 61.3792 76.2221C61.788 75.8405 62.115 75.4181 62.3603 74.9549C62.6056 74.4643 62.7964 73.9602 62.9326 73.4424L66.8569 74.2599C66.6389 75.2683 66.2846 76.1812 65.7941 76.9988C65.3308 77.7891 64.7176 78.484 63.9546 79.0835C63.1915 79.6558 62.2786 80.0919 61.2157 80.3916C60.1802 80.7187 58.9947 80.8822 57.6593 80.8822Z" fill="#313131"/>
<path d="M34.466 80.8822C32.7491 80.8822 31.2366 80.6369 29.9285 80.1464C28.6204 79.6286 27.5167 78.9064 26.6174 77.9798C25.7453 77.026 25.0776 75.8814 24.6144 74.5461C24.1511 73.2107 23.9194 71.7255 23.9194 70.0904C23.9194 68.428 24.1375 66.9019 24.5735 65.512C25.0368 64.0949 25.6908 62.8686 26.5356 61.833C27.4077 60.7974 28.4705 59.9935 29.7241 59.4212C31.005 58.8489 32.463 58.5627 34.0981 58.5627C35.5697 58.5627 36.8914 58.8216 38.0633 59.3394C39.2623 59.83 40.2707 60.5794 41.0882 61.5877C41.9058 62.5688 42.5053 63.7951 42.8869 65.2668C43.2956 66.7384 43.4455 68.4416 43.3365 70.3765L26.74 70.54V67.7603L40.6386 67.6377L39.167 69.3137C39.3305 67.7058 39.1942 66.3841 38.7582 65.3485C38.3494 64.2857 37.7362 63.4954 36.9187 62.9776C36.1284 62.4598 35.1882 62.2009 34.0981 62.2009C32.899 62.2009 31.8498 62.5143 30.9505 63.1411C30.0784 63.7679 29.3971 64.6672 28.9066 65.839C28.4433 66.9836 28.2116 68.3735 28.2116 70.0086C28.2116 72.434 28.7567 74.2736 29.8468 75.5271C30.9368 76.7807 32.4766 77.4075 34.466 77.4075C35.338 77.4075 36.0739 77.2985 36.6734 77.0805C37.2729 76.8625 37.7771 76.5764 38.1859 76.2221C38.5947 75.8405 38.9217 75.4181 39.167 74.9549C39.4122 74.4643 39.603 73.9602 39.7393 73.4424L43.6635 74.2599C43.4455 75.2683 43.0913 76.1812 42.6007 76.9988C42.1374 77.7891 41.5243 78.484 40.7612 79.0835C39.9981 79.6558 39.0852 80.0919 38.0224 80.3916C36.9868 80.7187 35.8013 80.8822 34.466 80.8822Z" fill="#313131"/>
<path d="M2.69795 72.257V68.578H9.15669C11.5004 68.578 13.2717 68.1147 14.4708 67.1881C15.6699 66.2616 16.2695 64.7627 16.2695 62.6915C16.2695 60.7839 15.7108 59.3668 14.5935 58.4402C13.5034 57.4864 11.8138 57.0095 9.52459 57.0095H2.69795V53.3713H9.64723C11.3914 53.3713 12.9447 53.5757 14.3073 53.9845C15.6972 54.3933 16.869 54.9928 17.8228 55.7831C18.7767 56.5462 19.5125 57.5273 20.0303 58.7264C20.548 59.8982 20.8069 61.2608 20.8069 62.8142C20.8069 64.8581 20.3437 66.5886 19.4171 68.0057C18.4905 69.3955 17.1143 70.4584 15.2884 71.1942C13.4898 71.9027 11.2551 72.257 8.5844 72.257H2.69795ZM0 80.3509V53.3713H4.45571V80.3509H0Z" fill="#313131"/>
<path d="M22.8823 0C31.0236 0 37.6239 6.59979 37.6241 14.7411C37.6241 22.8826 31.0238 29.4829 22.8823 29.4829H15.1134C14.5849 29.4829 14.0626 29.4543 13.5484 29.4C7.22034 29.4829 2.1163 34.6379 2.1162 40.9856V41.28C2.11618 41.7575 1.72865 42.1443 1.25114 42.1443C0.773703 42.1443 0.386799 41.7574 0.386783 41.28V16.76C0.386783 16.3938 0.422441 16.0261 0.399898 15.6606C0.38114 15.3565 0.371582 15.0499 0.371582 14.7411C0.371764 6.5999 6.97149 0.000184945 15.1127 0H22.8823Z" fill="white"/>
</svg>
