<svg width="119" height="81" viewBox="0 0 119 81" fill="none" xmlns="http://www.w3.org/2000/svg">
<path d="M108.271 80.8822C106.2 80.8822 104.374 80.4598 102.794 79.615C101.24 78.7429 100.014 77.4757 99.1145 75.8133C98.2424 74.1237 97.8064 72.0661 97.8064 69.6407C97.8064 67.1608 98.256 65.1032 99.1554 63.4681C100.082 61.833 101.336 60.6066 102.916 59.7891C104.497 58.9715 106.255 58.5627 108.189 58.5627C110.206 58.5627 112.005 58.9852 113.585 59.83C115.166 60.6748 116.406 61.9284 117.305 63.5907C118.205 65.2531 118.654 67.3243 118.654 69.8042C118.654 72.2569 118.205 74.3144 117.305 75.9768C116.406 77.6119 115.166 78.8383 113.585 79.6558C112.005 80.4734 110.233 80.8822 108.271 80.8822ZM108.394 77.3667C109.62 77.3667 110.656 77.0805 111.501 76.5082C112.373 75.9359 113.04 75.0911 113.504 73.9738C113.967 72.8564 114.198 71.5211 114.198 69.9677C114.198 68.3599 113.953 66.9836 113.463 65.839C112.999 64.6672 112.304 63.7679 111.378 63.1411C110.479 62.5143 109.389 62.2009 108.108 62.2009C106.909 62.2009 105.873 62.487 105.001 63.0593C104.129 63.6316 103.461 64.4628 102.998 65.5529C102.535 66.643 102.303 67.992 102.303 69.5998C102.303 72.0525 102.848 73.9602 103.938 75.3228C105.028 76.6854 106.513 77.3667 108.394 77.3667Z" fill="white"/>
<path d="M88.6904 80.3508V51.6135H93.1053V80.3508H88.6904Z" fill="white"/>
<path d="M72.1636 80.3509V69.3547V59.0943H76.047L75.8017 66.6976H76.4558C76.701 64.9535 77.0826 63.4819 77.6004 62.2828C78.1182 61.0837 78.8131 60.1708 79.6851 59.544C80.5845 58.9172 81.6745 58.6038 82.9554 58.6038C83.2552 58.6038 83.5686 58.631 83.8956 58.6855C84.2499 58.7128 84.645 58.7945 85.081 58.9308L84.8767 63.6318C84.4406 63.4682 84.0046 63.3456 83.5686 63.2639C83.1325 63.1821 82.7237 63.1412 82.3422 63.1412C81.2794 63.1412 80.3664 63.4546 79.6034 64.0814C78.8403 64.7082 78.2135 65.5803 77.723 66.6976C77.2325 67.815 76.8646 69.1231 76.6193 70.6219V80.3509H72.1636Z" fill="white"/>
<path d="M58.5329 80.8822C56.816 80.8822 55.3035 80.6369 53.9954 80.1464C52.6873 79.6286 51.5836 78.9064 50.6843 77.9798C49.8122 77.026 49.1445 75.8814 48.6813 74.5461C48.218 73.2107 47.9863 71.7255 47.9863 70.0904C47.9863 68.428 48.2043 66.9019 48.6404 65.512C49.1037 64.0949 49.7577 62.8686 50.6025 61.833C51.4746 60.7974 52.5374 59.9935 53.791 59.4212C55.0719 58.8489 56.5298 58.5627 58.165 58.5627C59.6366 58.5627 60.9583 58.8216 62.1301 59.3394C63.3292 59.83 64.3376 60.5794 65.1551 61.5877C65.9727 62.5688 66.5722 63.7951 66.9538 65.2668C67.3625 66.7384 67.5124 68.4416 67.4034 70.3765L50.8069 70.54V67.7603L64.7055 67.6377L63.2339 69.3137C63.3974 67.7058 63.2611 66.3841 62.8251 65.3485C62.4163 64.2857 61.8031 63.4954 60.9856 62.9776C60.1952 62.4598 59.2551 62.2009 58.165 62.2009C56.9659 62.2009 55.9167 62.5143 55.0174 63.1411C54.1453 63.7679 53.464 64.6672 52.9735 65.839C52.5102 66.9836 52.2785 68.3735 52.2785 70.0086C52.2785 72.434 52.8236 74.2736 53.9137 75.5271C55.0037 76.7807 56.5435 77.4075 58.5329 77.4075C59.4049 77.4075 60.1407 77.2985 60.7403 77.0805C61.3398 76.8625 61.844 76.5764 62.2528 76.2221C62.6616 75.8405 62.9886 75.4181 63.2339 74.9549C63.4791 74.4643 63.6699 73.9602 63.8061 73.4424L67.7304 74.2599C67.5124 75.2683 67.1582 76.1812 66.6676 76.9988C66.2043 77.7891 65.5912 78.484 64.8281 79.0835C64.065 79.6558 63.1521 80.0919 62.0893 80.3916C61.0537 80.7187 59.8682 80.8822 58.5329 80.8822Z" fill="white"/>
<path d="M35.3393 80.8822C33.6224 80.8822 32.1099 80.6369 30.8018 80.1464C29.4937 79.6286 28.39 78.9064 27.4907 77.9798C26.6186 77.026 25.9509 75.8814 25.4877 74.5461C25.0244 73.2107 24.7927 71.7255 24.7927 70.0904C24.7927 68.428 25.0107 66.9019 25.4468 65.512C25.9101 64.0949 26.5641 62.8686 27.4089 61.833C28.281 60.7974 29.3438 59.9935 30.5974 59.4212C31.8783 58.8489 33.3362 58.5627 34.9714 58.5627C36.443 58.5627 37.7647 58.8216 38.9365 59.3394C40.1356 59.83 41.144 60.5794 41.9615 61.5877C42.7791 62.5688 43.3786 63.7951 43.7602 65.2668C44.1689 66.7384 44.3188 68.4416 44.2098 70.3765L27.6133 70.54V67.7603L41.5119 67.6377L40.0402 69.3137C40.2038 67.7058 40.0675 66.3841 39.6315 65.3485C39.2227 64.2857 38.6095 63.4954 37.792 62.9776C37.0016 62.4598 36.0614 62.2009 34.9714 62.2009C33.7723 62.2009 32.7231 62.5143 31.8238 63.1411C30.9517 63.7679 30.2704 64.6672 29.7799 65.839C29.3166 66.9836 29.0849 68.3735 29.0849 70.0086C29.0849 72.434 29.63 74.2736 30.72 75.5271C31.8101 76.7807 33.3499 77.4075 35.3393 77.4075C36.2113 77.4075 36.9471 77.2985 37.5467 77.0805C38.1462 76.8625 38.6504 76.5764 39.0592 76.2221C39.468 75.8405 39.795 75.4181 40.0402 74.9549C40.2855 74.4643 40.4763 73.9602 40.6125 73.4424L44.5368 74.2599C44.3188 75.2683 43.9645 76.1812 43.474 76.9988C43.0107 77.7891 42.3976 78.484 41.6345 79.0835C40.8714 79.6558 39.9585 80.0919 38.8957 80.3916C37.8601 80.7187 36.6746 80.8822 35.3393 80.8822Z" fill="white"/>
<path d="M3.57124 72.257V68.578H10.03C12.3737 68.578 14.145 68.1147 15.3441 67.1881C16.5432 66.2616 17.1428 64.7627 17.1428 62.6915C17.1428 60.7839 16.5841 59.3668 15.4668 58.4402C14.3767 57.4864 12.6871 57.0095 10.3979 57.0095H3.57124V53.3713H10.5205C12.2646 53.3713 13.818 53.5757 15.1806 53.9845C16.5705 54.3933 17.7423 54.9928 18.6961 55.7831C19.65 56.5462 20.3858 57.5273 20.9035 58.7264C21.4213 59.8982 21.6802 61.2608 21.6802 62.8142C21.6802 64.8581 21.2169 66.5886 20.2904 68.0057C19.3638 69.3955 17.9876 70.4584 16.1617 71.1942C14.3631 71.9027 12.1284 72.257 9.45769 72.257H3.57124ZM0.873291 80.3509V53.3713H5.329V80.3509H0.873291Z" fill="white"/>
<path d="M22.5107 0C30.6521 0 37.2523 6.59979 37.2525 14.7411C37.2525 22.8826 30.6522 29.4829 22.5107 29.4829H14.7418C14.2133 29.4829 13.691 29.4543 13.1768 29.4C6.84876 29.4829 1.74472 34.6379 1.74461 40.9856V41.28C1.7446 41.7575 1.35707 42.1443 0.879562 42.1443C0.402121 42.1443 0.0152174 41.7574 0.0152006 41.28V16.76C0.0152006 16.3938 0.0508585 16.0261 0.0283155 15.6606C0.00955833 15.3565 0 15.0499 0 14.7411C0.000181605 6.5999 6.59991 0.000184945 14.7411 0H22.5107Z" fill="white"/>
</svg>
