<svg width="119" height="81" viewBox="0 0 119 81" fill="none" xmlns="http://www.w3.org/2000/svg">
<path d="M108.325 80.94C106.254 80.94 104.428 80.5176 102.847 79.6728C101.294 78.8008 100.068 77.5335 99.1684 75.8712C98.2964 74.1815 97.8604 72.124 97.8604 69.6986C97.8604 67.2186 98.31 65.1611 99.2093 63.526C100.136 61.8909 101.389 60.6645 102.97 59.8469C104.551 59.0294 106.308 58.6206 108.243 58.6206C110.26 58.6206 112.059 59.043 113.639 59.8878C115.22 60.7326 116.46 61.9862 117.359 63.6486C118.259 65.311 118.708 67.3821 118.708 69.8621C118.708 72.3148 118.259 74.3723 117.359 76.0347C116.46 77.6698 115.22 78.8961 113.639 79.7137C112.059 80.5313 110.287 80.94 108.325 80.94ZM108.448 77.4245C109.674 77.4245 110.71 77.1384 111.555 76.5661C112.427 75.9938 113.094 75.149 113.558 74.0316C114.021 72.9143 114.252 71.579 114.252 70.0256C114.252 68.4177 114.007 67.0415 113.517 65.8969C113.053 64.7251 112.358 63.8257 111.432 63.199C110.533 62.5722 109.442 62.2588 108.162 62.2588C106.963 62.2588 105.927 62.5449 105.055 63.1172C104.183 63.6895 103.515 64.5207 103.052 65.6108C102.589 66.7008 102.357 68.0498 102.357 69.6577C102.357 72.1104 102.902 74.018 103.992 75.3806C105.082 76.7432 106.567 77.4245 108.448 77.4245Z" fill="#313131"/>
<path d="M88.7444 80.4087V51.6714H93.1592V80.4087H88.7444Z" fill="#313131"/>
<path d="M72.2175 80.4088V69.4126V59.1522H76.1009L75.8557 66.7555H76.5097C76.755 65.0113 77.1365 63.5397 77.6543 62.3406C78.1721 61.1416 78.867 60.2286 79.7391 59.6018C80.6384 58.975 81.7285 58.6616 83.0093 58.6616C83.3091 58.6616 83.6225 58.6889 83.9495 58.7434C84.3038 58.7706 84.699 58.8524 85.135 58.9886L84.9306 63.6896C84.4946 63.5261 84.0585 63.4035 83.6225 63.3217C83.1865 63.24 82.7777 63.1991 82.3962 63.1991C81.3333 63.1991 80.4204 63.5125 79.6573 64.1393C78.8943 64.7661 78.2675 65.6381 77.7769 66.7555C77.2864 67.8728 76.9185 69.1809 76.6732 70.6798V80.4088H72.2175Z" fill="#313131"/>
<path d="M58.5868 80.94C56.8699 80.94 55.3575 80.6948 54.0494 80.2042C52.7413 79.6864 51.6376 78.9643 50.7382 78.0377C49.8662 77.0839 49.1985 75.9393 48.7352 74.6039C48.2719 73.2686 48.0403 71.7833 48.0403 70.1482C48.0403 68.4859 48.2583 66.9597 48.6943 65.5699C49.1576 64.1528 49.8117 62.9264 50.6565 61.8909C51.5285 60.8553 52.5914 60.0513 53.845 59.479C55.1258 58.9068 56.5838 58.6206 58.2189 58.6206C59.6905 58.6206 61.0123 58.8795 62.1841 59.3973C63.3832 59.8878 64.3915 60.6373 65.2091 61.6456C66.0266 62.6267 66.6262 63.853 67.0077 65.3246C67.4165 66.7962 67.5664 68.4995 67.4574 70.4344L50.8609 70.5979V67.8182L64.7594 67.6955L63.2878 69.3715C63.4513 67.7637 63.3151 66.4419 62.879 65.4064C62.4702 64.3435 61.8571 63.5532 61.0395 63.0354C60.2492 62.5177 59.309 62.2588 58.2189 62.2588C57.0198 62.2588 55.9706 62.5722 55.0713 63.199C54.1992 63.8257 53.5179 64.7251 53.0274 65.8969C52.5641 67.0415 52.3325 68.4313 52.3325 70.0665C52.3325 72.4919 52.8775 74.3314 53.9676 75.585C55.0577 76.8386 56.5974 77.4654 58.5868 77.4654C59.4589 77.4654 60.1947 77.3564 60.7942 77.1384C61.3938 76.9204 61.898 76.6342 62.3067 76.2799C62.7155 75.8984 63.0425 75.476 63.2878 75.0127C63.5331 74.5222 63.7238 74.018 63.8601 73.5002L67.7844 74.3178C67.5664 75.3261 67.2121 76.2391 66.7216 77.0566C66.2583 77.8469 65.6451 78.5419 64.8821 79.1414C64.119 79.7137 63.2061 80.1497 62.1432 80.4495C61.1076 80.7765 59.9222 80.94 58.5868 80.94Z" fill="#313131"/>
<path d="M35.3932 80.94C33.6763 80.94 32.1639 80.6948 30.8558 80.2042C29.5477 79.6864 28.444 78.9643 27.5446 78.0377C26.6726 77.0839 26.0049 75.9393 25.5416 74.6039C25.0783 73.2686 24.8467 71.7833 24.8467 70.1482C24.8467 68.4859 25.0647 66.9597 25.5007 65.5699C25.964 64.1528 26.6181 62.9264 27.4629 61.8909C28.3349 60.8553 29.3978 60.0513 30.6514 59.479C31.9322 58.9068 33.3902 58.6206 35.0253 58.6206C36.4969 58.6206 37.8187 58.8795 38.9905 59.3973C40.1896 59.8878 41.1979 60.6373 42.0155 61.6456C42.833 62.6267 43.4326 63.853 43.8141 65.3246C44.2229 66.7962 44.3728 68.4995 44.2638 70.4344L27.6673 70.5979V67.8182L41.5658 67.6955L40.0942 69.3715C40.2577 67.7637 40.1215 66.4419 39.6854 65.4064C39.2766 64.3435 38.6635 63.5532 37.8459 63.0354C37.0556 62.5177 36.1154 62.2588 35.0253 62.2588C33.8262 62.2588 32.777 62.5722 31.8777 63.199C31.0056 63.8257 30.3243 64.7251 29.8338 65.8969C29.3705 67.0415 29.1389 68.4313 29.1389 70.0665C29.1389 72.4919 29.6839 74.3314 30.774 75.585C31.8641 76.8386 33.4038 77.4654 35.3932 77.4654C36.2653 77.4654 37.0011 77.3564 37.6006 77.1384C38.2002 76.9204 38.7043 76.6342 39.1131 76.2799C39.5219 75.8984 39.8489 75.476 40.0942 75.0127C40.3395 74.5222 40.5302 74.018 40.6665 73.5002L44.5908 74.3178C44.3728 75.3261 44.0185 76.2391 43.528 77.0566C43.0647 77.8469 42.4515 78.5419 41.6885 79.1414C40.9254 79.7137 40.0124 80.1497 38.9496 80.4495C37.914 80.7765 36.7286 80.94 35.3932 80.94Z" fill="#313131"/>
<path d="M3.6252 72.3149V68.6358H10.0839C12.4276 68.6358 14.199 68.1726 15.3981 67.246C16.5972 66.3194 17.1967 64.8206 17.1967 62.7494C17.1967 60.8418 16.6381 59.4246 15.5207 58.4981C14.4306 57.5443 12.741 57.0673 10.4518 57.0673H3.6252V53.4292H10.5745C12.3186 53.4292 13.872 53.6336 15.2346 54.0424C16.6244 54.4511 17.7963 55.0507 18.7501 55.841C19.7039 56.6041 20.4397 57.5851 20.9575 58.7842C21.4753 59.9561 21.7342 61.3187 21.7342 62.872C21.7342 64.9159 21.2709 66.6464 20.3443 68.0636C19.4178 69.4534 18.0415 70.5162 16.2156 71.252C14.417 71.9606 12.1823 72.3149 9.51164 72.3149H3.6252ZM0.927246 80.4087V53.4292H5.38296V80.4087H0.927246Z" fill="#313131"/>
<path d="M22.5107 0C30.6522 0 37.2525 6.60027 37.2525 14.7418C37.2524 22.8832 30.6522 29.4829 22.5107 29.4829H14.7418C14.2142 29.4829 13.6929 29.4548 13.1796 29.4007C6.85018 29.4821 1.74461 34.6376 1.74461 40.9863V41.28C1.74461 41.7575 1.35708 42.145 0.879562 42.145C0.40211 42.1449 0.0152006 41.7574 0.0152006 41.28V16.76C0.0152142 16.3938 0.0508585 16.0261 0.0283097 15.6606C0.00956309 15.3567 4.92071e-06 15.0504 0 14.7418C0 6.60027 6.60027 0 14.7418 0H22.5107Z" fill="#313131"/>
</svg>
