<svg preserveAspectRatio="none" width="100%" height="100%" overflow="visible" style="display: block;" viewBox="0 0 470.832 120.009" fill="none" xmlns="http://www.w3.org/2000/svg">
<g id="Peerlo (Stroke)">
<path id="Stroke" d="M384.201 73.4523C384.201 63.393 386.023 54.8809 389.795 48.0236L389.808 48.0011C393.66 41.2025 398.906 36.057 405.535 32.6281C412.108 29.2283 419.394 27.5441 427.354 27.5441C435.376 27.5441 442.627 29.1739 449.063 32.4777L449.685 32.8029C456.107 36.2358 461.178 41.2803 464.89 47.8781L465.245 48.5216C469.009 55.4798 470.832 64.0395 470.832 74.1007L470.827 75.0294C470.717 84.5879 468.89 92.7796 465.245 99.5177L465.238 99.5294C461.492 106.34 456.295 111.493 449.66 114.925C443.083 118.327 435.742 120.009 427.679 120.009C419.458 120.009 412.096 118.383 405.646 115.075L405.024 114.75C405.012 114.744 405 114.736 404.988 114.73C398.481 111.077 393.359 105.769 389.626 98.8693L389.608 98.8351C385.971 91.7872 384.201 83.2992 384.201 73.4523ZM404.023 73.2902C404.023 66.9174 404.941 61.5707 406.777 57.2501C408.556 53.0643 411.096 49.8417 414.396 47.5822L414.717 47.3663C418.173 45.0982 422.278 43.964 427.03 43.964C432.107 43.964 436.428 45.2063 439.992 47.6906C443.665 50.1749 446.42 53.7394 448.256 58.3839C450.2 62.9204 451.172 68.3755 451.172 74.7482C451.172 80.905 450.254 86.1985 448.418 90.6271L448.063 91.4445C446.247 95.4696 443.719 98.5454 440.479 100.672C437.13 102.94 433.026 104.074 428.165 104.074V102.074C432.708 102.074 436.401 101.019 439.356 99.0167L439.381 99.0001C442.451 96.9853 444.862 93.9795 446.57 89.8605C448.282 85.7331 449.172 80.7135 449.172 74.7482C449.172 68.5708 448.228 63.3985 446.417 59.172C446.41 59.1547 446.402 59.1368 446.396 59.1193C444.795 55.07 442.481 51.9854 439.48 49.7775L438.872 49.3478C438.864 49.3426 438.856 49.3365 438.849 49.3312C435.673 47.1183 431.769 45.964 427.03 45.964C422.608 45.964 418.898 47.0155 415.814 49.0392C412.732 51.0624 410.322 54.0244 408.618 58.0323C406.917 62.034 406.023 67.0958 406.023 73.2902L406.029 74.1691C406.152 82.8871 408.115 89.5119 411.702 94.256L412.065 94.7247C415.974 99.6103 421.265 102.074 428.165 102.074V104.074L427.471 104.067C420.575 103.908 415.056 101.377 410.914 96.4718L410.504 95.9738C406.318 90.7418 404.16 83.4822 404.029 74.1954L404.023 73.2902ZM386.206 74.3497C386.311 83.5743 388.037 91.4305 391.386 97.9181C394.95 104.507 399.811 109.53 405.968 112.986C412.037 116.23 419.018 117.903 426.912 118.004L427.679 118.009C435.213 118.009 442.037 116.489 448.152 113.447L448.741 113.149C455.006 109.908 459.921 105.046 463.485 98.5656C466.938 92.1825 468.719 84.3298 468.827 75.007L468.832 74.1007C468.832 64.2713 467.05 56.0617 463.485 49.4728C459.921 42.884 455.006 37.9149 448.741 34.5665C442.476 31.2182 435.347 29.5441 427.354 29.5441C419.685 29.5441 412.718 31.1649 406.453 34.4054L405.87 34.713C399.879 37.9503 395.106 42.7089 391.548 48.9874C387.983 55.4683 386.201 63.623 386.201 73.4523L386.206 74.3497Z" fill="url(#paint0_linear_0_4)" fill-opacity="0.2"/>
<path id="Stroke_2" d="M350.069 2.00012V115.902H367.568V2.00012H350.069ZM369.568 115.902L369.558 116.107C369.455 117.115 368.604 117.902 367.568 117.902H350.069C348.965 117.902 348.069 117.007 348.069 115.902V2.00012C348.069 0.895753 348.965 0.000267724 350.069 0.00012207H367.568C368.673 0.000273255 369.568 0.895757 369.568 2.00012V115.902Z" fill="url(#paint1_linear_0_4)" fill-opacity="0.2"/>
<path id="Stroke_3" d="M327.338 27.7062C328.623 27.7062 329.949 27.8213 331.315 28.045C332.679 28.1579 334.136 28.4446 335.678 28.8888L336.36 29.0939L336.519 29.1505C337.295 29.4666 337.799 30.2395 337.762 31.089L336.951 49.7218C336.923 50.3617 336.591 50.9495 336.057 51.3029C335.589 51.6121 335.016 51.7097 334.479 51.5782L334.251 51.5079C332.829 50.9747 331.413 50.5601 330.004 50.2628L329.4 50.1427C327.775 49.8379 326.279 49.6906 324.908 49.6906C321.121 49.6906 317.961 50.7958 315.322 52.963C312.591 55.2062 310.278 58.3836 308.431 62.5909C306.585 66.796 305.176 71.7611 304.225 77.5089V115.902C304.225 117.007 303.329 117.902 302.225 117.902H284.564C283.46 117.902 282.564 117.007 282.564 115.902V31.6505C282.564 30.546 283.46 29.6505 284.564 29.6505H299.956C300.498 29.6505 301.017 29.8698 301.394 30.2589C301.77 30.648 301.973 31.1737 301.955 31.715L301.28 52.6144C302.104 49.2613 303.101 46.2192 304.277 43.4952C306.442 38.4821 309.401 34.5458 313.209 31.8087C313.217 31.8032 313.225 31.7976 313.232 31.7921C317.186 29.0365 321.923 27.7062 327.338 27.7062ZM284.564 115.902H302.225V77.3409C303.136 71.7715 304.474 66.8665 306.24 62.6261L306.6 61.7872C308.422 57.6355 310.719 54.3376 313.491 51.8947L314.053 51.4171C317.077 48.9329 320.696 47.6906 324.908 47.6906L325.48 47.6984C326.827 47.7338 328.257 47.8934 329.769 48.1769C331.497 48.5009 333.225 48.9868 334.953 49.6349L335.764 31.0021C334.251 30.5295 332.863 30.2229 331.599 30.0812L331.064 30.0304C329.768 29.8144 328.526 29.7062 327.338 29.7062C322.261 29.7062 317.94 30.9485 314.376 33.4327C310.92 35.9171 308.166 39.5357 306.113 44.2882C304.061 49.0409 302.548 54.8743 301.576 61.7872H298.984L299.956 31.6505H284.564V115.902Z" fill="url(#paint2_linear_0_4)" fill-opacity="0.2"/>
<path id="Stroke_4" d="M186.735 75.2345C186.735 68.4708 187.622 62.217 189.419 56.4894C189.421 56.4818 189.424 56.4744 189.427 56.4669C191.331 50.6432 194.034 45.5584 197.555 41.2423L197.575 41.2179C201.226 36.8826 205.679 33.5162 210.912 31.1271L210.927 31.1202C216.299 28.7199 222.363 27.5441 229.079 27.5441C235.128 27.5441 240.631 28.6063 245.553 30.7716C250.617 32.8433 254.887 36.0177 258.339 40.2745H258.338C261.785 44.4179 264.271 49.5407 265.841 55.5812L266.146 56.7335C267.604 62.5479 268.107 69.1397 267.693 76.4816C267.634 77.5331 266.769 78.3589 265.716 78.3693L207.889 78.9376C208.399 85.9604 210.288 91.2696 213.379 95.046L213.738 95.4718C217.604 99.9169 223.106 102.236 230.537 102.236V104.236C222.652 104.236 216.549 101.752 212.229 96.7833C208.22 92.1737 206.073 85.5653 205.783 76.9581L265.696 76.3693C266.128 68.7003 265.534 61.9491 263.914 56.1163C262.402 50.2837 260.025 45.4228 256.785 41.5343C253.747 37.7876 250.045 34.9422 245.678 32.9991L244.795 32.6232C240.441 30.6992 235.565 29.677 230.166 29.5568L229.079 29.5441C222.598 29.5441 216.819 30.6781 211.742 32.9464C206.774 35.2147 202.561 38.4014 199.104 42.506C195.756 46.6105 193.164 51.4714 191.328 57.088C189.6 62.5967 188.735 68.6457 188.735 75.2345L188.746 76.4425C188.854 82.4489 189.768 87.9336 191.489 92.8956C193.325 98.1882 195.972 102.725 199.429 106.505C202.993 110.178 207.368 113.04 212.553 115.092C217.413 116.915 222.986 117.883 229.271 117.997L230.537 118.009C235.83 118.009 240.528 117.361 244.633 116.065C248.582 114.951 252.01 113.362 254.915 111.299L255.488 110.88C258.513 108.504 260.943 105.749 262.779 102.616C264.724 99.3759 266.128 95.7574 266.992 91.7609L251.438 88.5206C250.898 90.5729 250.142 92.5715 249.17 94.5157C248.198 96.3519 246.901 98.026 245.281 99.5382L244.973 99.798C243.409 101.083 241.514 102.13 239.286 102.941C236.91 103.805 233.993 104.236 230.537 104.236V102.236C233.84 102.236 236.509 101.822 238.603 101.061C240.777 100.27 242.544 99.2566 243.945 98.048C245.394 96.69 246.537 95.2067 247.392 93.5978C248.298 91.781 249.002 89.9197 249.504 88.0118L249.563 87.8234C249.903 86.9063 250.869 86.3593 251.846 86.5626L267.4 89.8029L267.593 89.8536C268.034 89.9924 268.415 90.2802 268.669 90.671C268.959 91.118 269.06 91.6627 268.947 92.1837C268.041 96.3765 266.56 100.202 264.494 103.645C262.525 106.999 259.929 109.935 256.725 112.452C256.713 112.462 256.7 112.471 256.688 112.48C253.449 114.909 249.614 116.731 245.22 117.976C240.885 119.342 235.983 120.009 230.537 120.009C223.982 120.009 218.087 119.131 212.882 117.336L211.851 116.965L211.816 116.952C206.731 114.939 202.353 112.165 198.712 108.618L197.993 107.899L197.953 107.855C194.525 104.105 191.868 99.6707 189.97 94.5782L189.601 93.5509C187.681 88.0172 186.735 81.9042 186.735 75.2345ZM229.882 43.9767C233.863 44.0969 237.322 45.119 240.259 47.0431C243.499 49.0953 245.93 52.2273 247.55 56.4396C248.64 59.029 249.256 62.0704 249.4 65.5626L206.433 65.9415C206.892 63.1781 207.581 60.6586 208.502 58.3839C210.385 53.8846 212.979 50.3989 216.281 47.9269L216.604 47.6906C220.168 45.2063 224.327 43.964 229.079 43.964L229.882 43.9767ZM229.079 45.964C224.7 45.964 220.953 47.1 217.758 49.3234C214.664 51.5511 212.18 54.7844 210.355 59.1339C209.759 60.6066 209.265 62.202 208.87 63.92L247.253 63.5812C246.997 61.1599 246.475 59.043 245.706 57.2159L245.683 57.1583C244.282 53.5163 242.275 50.8651 239.709 49.0782L239.188 48.7325L239.162 48.7159C236.403 46.9085 233.072 45.964 229.079 45.964Z" fill="url(#paint3_linear_0_4)" fill-opacity="0.2"/>
<path id="Stroke_5" d="M94.8066 75.2345C94.8067 68.4707 95.6933 62.217 97.4902 56.4894C97.4926 56.4818 97.4956 56.4745 97.498 56.4669C99.402 50.6432 102.105 45.5584 105.626 41.2423L105.646 41.2179C109.296 36.8825 113.75 33.5162 118.983 31.1271L118.998 31.1202C124.37 28.7199 130.435 27.5441 137.15 27.5441C143.22 27.5441 148.74 28.6128 153.675 30.7931C158.708 32.8619 162.956 36.0218 166.393 40.254C169.848 44.4009 172.339 49.5309 173.912 55.5812L174.217 56.7335C175.675 62.5479 176.177 69.1397 175.764 76.4816C175.704 77.533 174.84 78.3588 173.787 78.3693L115.96 78.9376C116.47 85.9605 118.359 91.2696 121.45 95.046L121.809 95.4718C125.674 99.9172 131.177 102.236 138.608 102.236V104.236L137.874 104.23C130.586 104.084 124.865 101.755 120.71 97.2423L120.3 96.7833C116.291 92.1736 114.143 85.5654 113.854 76.9581L173.768 76.3693C174.2 68.7004 173.605 61.9491 171.985 56.1163C170.473 50.2835 168.096 45.4229 164.855 41.5343C161.817 37.7874 158.115 34.9422 153.748 32.9991L152.866 32.6232C148.512 30.6991 143.635 29.677 138.236 29.5568L137.15 29.5441C130.67 29.5441 124.89 30.6781 119.813 32.9464C114.845 35.2147 110.632 38.4014 107.176 42.506C103.827 46.6105 101.235 51.4712 99.3984 57.088C97.6702 62.5967 96.8067 68.6457 96.8066 75.2345L96.8174 76.4425C96.9249 82.4489 97.839 87.9336 99.5605 92.8956C101.397 98.1882 104.044 102.725 107.5 106.505C111.064 110.178 115.439 113.04 120.624 115.092C125.485 116.915 131.057 117.883 137.342 117.997L138.608 118.009C143.57 118.009 148.01 117.439 151.928 116.3L152.704 116.065C156.653 114.951 160.08 113.362 162.985 111.299L163.56 110.88C166.584 108.504 169.014 105.749 170.851 102.616C172.795 99.3759 174.199 95.7574 175.063 91.7609L159.509 88.5206C158.969 90.5729 158.213 92.5715 157.241 94.5157C156.269 96.3519 154.973 98.026 153.353 99.5382L153.044 99.798C151.481 101.083 149.585 102.13 147.357 102.941C144.981 103.805 142.065 104.236 138.608 104.236V102.236C141.911 102.236 144.581 101.822 146.674 101.061C148.847 100.27 150.613 99.2563 152.015 98.048C153.464 96.69 154.608 95.2077 155.463 93.5988C156.37 91.7817 157.073 89.92 157.575 88.0118L157.635 87.8234C157.975 86.9062 158.94 86.3592 159.917 86.5626L175.472 89.8029L175.664 89.8536C176.105 89.9924 176.486 90.2802 176.74 90.671C177.031 91.118 177.131 91.6627 177.019 92.1837C176.114 96.3694 174.635 100.189 172.575 103.627C170.605 106.988 168.004 109.93 164.795 112.452C164.783 112.461 164.772 112.471 164.76 112.48C161.521 114.909 157.685 116.731 153.291 117.976C148.957 119.342 144.054 120.009 138.608 120.009C132.054 120.009 126.158 119.131 120.953 117.336L119.922 116.965L119.888 116.952C114.803 114.939 110.424 112.165 106.783 108.618L106.064 107.899C106.051 107.884 106.037 107.869 106.023 107.855C102.595 104.105 99.9392 99.6706 98.041 94.5782L97.6709 93.5509C95.751 88.0172 94.8066 81.9042 94.8066 75.2345ZM137.953 43.9767C141.934 44.0969 145.392 45.1191 148.329 47.0431C151.569 49.0953 154 52.2273 155.62 56.4396C156.71 59.029 157.326 62.0704 157.471 65.5626L114.503 65.9415C114.905 63.5225 115.484 61.2907 116.239 59.2462L116.573 58.3839C118.517 53.7395 121.218 50.1748 124.674 47.6906C128.238 45.2062 132.398 43.964 137.15 43.964L137.953 43.9767ZM137.15 45.964C132.775 45.964 129.03 47.0979 125.837 49.3175C122.734 51.5492 120.245 54.7918 118.418 59.1564C117.826 60.623 117.334 62.2104 116.941 63.92L155.323 63.5812C155.084 61.3127 154.611 59.3116 153.92 57.5656L153.754 57.1583C152.353 53.5164 150.346 50.8651 147.78 49.0782L147.26 48.7325L147.233 48.7159C144.475 46.9084 141.143 45.9641 137.15 45.964Z" fill="url(#paint4_linear_0_4)" fill-opacity="0.2"/>
<path id="Stroke_6" d="M0 8.96692C0.000230367 7.86258 0.895615 6.96697 2 6.96692H40.2373V8.96692H2V115.902H19.6602V83.8224H36.0254L37.0127 83.8175C46.835 83.7352 55.1383 82.4188 61.9229 79.8683L62.5967 79.6095C69.6074 76.7843 74.9457 72.7425 78.6113 67.4845L78.9609 66.9718C82.5187 61.5305 84.3537 54.9233 84.4648 47.1505L84.4697 46.3947C84.4697 40.2379 83.4438 34.8371 81.3916 30.1925C79.3393 25.4398 76.4221 21.5509 72.6416 18.5265C68.8611 15.3942 64.2166 13.0178 58.708 11.3976C53.3073 9.77738 47.1502 8.96692 40.2373 8.96692V6.96692C47.3027 6.96692 53.6595 7.79445 59.2832 9.48157H59.2822C64.9912 11.1618 69.8769 13.6453 73.8916 16.965C77.9411 20.2045 81.0482 24.3592 83.2207 29.3839C85.4068 34.3313 86.4697 40.0173 86.4697 46.3947L86.4639 47.1798C86.3481 55.2557 84.4379 62.25 80.6348 68.0665C80.6316 68.0714 80.6282 68.0764 80.625 68.0812C76.6914 73.9814 70.8861 78.4245 63.3438 81.464C63.3392 81.4658 63.3347 81.468 63.3301 81.4698C55.8971 84.398 46.7725 85.8223 36.0254 85.8224H21.6602V115.902C21.6602 117.007 20.7647 117.902 19.6602 117.902H2C0.895473 117.902 0 117.007 0 115.902V8.96692ZM64.4854 45.9083C64.4853 38.9663 62.5294 34.0913 58.9199 30.9015L58.5654 30.5978L58.5254 30.5636C54.8482 27.346 48.9873 25.5046 40.5732 25.3927L39.751 25.3878H21.6602V67.2394H38.293V69.2394H19.6602V23.3878H39.751C48.8239 23.3878 55.5212 25.2775 59.8418 29.0577C64.2704 32.7302 66.4853 38.3474 66.4854 45.9083L66.4785 46.672C66.3346 54.487 63.9605 60.1739 59.3564 63.7316L58.9043 64.0704C54.1628 67.517 47.292 69.2394 38.293 69.2394V67.2394C47.3677 67.2394 53.8768 65.4381 58.1338 62.1486C62.2316 58.9819 64.4854 53.7408 64.4854 45.9083Z" fill="url(#paint5_linear_0_4)" fill-opacity="0.2"/>
</g>
<defs>
<linearGradient id="paint0_linear_0_4" x1="232.862" y1="3.60156" x2="232.862" y2="91.6016" gradientUnits="userSpaceOnUse">
<stop/>
<stop offset="1" stop-color="white"/>
</linearGradient>
<linearGradient id="paint1_linear_0_4" x1="232.862" y1="3.60156" x2="232.862" y2="91.6016" gradientUnits="userSpaceOnUse">
<stop/>
<stop offset="1" stop-color="white"/>
</linearGradient>
<linearGradient id="paint2_linear_0_4" x1="232.862" y1="3.60156" x2="232.862" y2="91.6016" gradientUnits="userSpaceOnUse">
<stop/>
<stop offset="1" stop-color="white"/>
</linearGradient>
<linearGradient id="paint3_linear_0_4" x1="232.862" y1="3.60156" x2="232.862" y2="91.6016" gradientUnits="userSpaceOnUse">
<stop/>
<stop offset="1" stop-color="white"/>
</linearGradient>
<linearGradient id="paint4_linear_0_4" x1="232.862" y1="3.60156" x2="232.862" y2="91.6016" gradientUnits="userSpaceOnUse">
<stop/>
<stop offset="1" stop-color="white"/>
</linearGradient>
<linearGradient id="paint5_linear_0_4" x1="232.862" y1="3.60156" x2="232.862" y2="91.6016" gradientUnits="userSpaceOnUse">
<stop/>
<stop offset="1" stop-color="white"/>
</linearGradient>
</defs>
</svg>
