<svg width="471" height="121" viewBox="0 0 471 121" fill="none" xmlns="http://www.w3.org/2000/svg">
<path d="M384.338 73.4784C384.338 63.4155 386.161 54.9004 389.934 48.0406L389.947 48.0181C393.801 41.2171 399.048 36.0697 405.68 32.6396C412.255 29.2386 419.544 27.5538 427.507 27.5538C435.531 27.5538 442.785 29.1842 449.224 32.4891L449.845 32.8144C456.27 36.2486 461.343 41.2949 465.055 47.895L465.411 48.5388C469.177 55.4995 471 64.0622 471 74.127L470.995 75.0561C470.885 84.618 469.058 92.8126 465.411 99.5531L465.404 99.5648C461.657 106.378 456.458 111.533 449.821 114.966C443.241 118.369 435.897 120.052 427.831 120.052C419.607 120.052 412.243 118.425 405.791 115.116L405.169 114.791C405.157 114.784 405.145 114.777 405.133 114.77C398.624 111.116 393.499 105.807 389.765 98.9044L389.747 98.8702C386.108 91.8198 384.338 83.3288 384.338 73.4784ZM404.168 73.3162C404.168 66.9412 405.086 61.5925 406.922 57.2704C408.702 53.0832 411.243 49.8594 414.543 47.599L414.865 47.3831C418.322 45.1141 422.428 43.9796 427.183 43.9796C432.261 43.9796 436.583 45.2223 440.149 47.7074C443.823 50.1926 446.579 53.7584 448.416 58.4046C450.361 62.9428 451.333 68.3997 451.333 74.7747C451.333 80.9338 450.415 86.2291 448.578 90.6593L448.223 91.477C446.406 95.5036 443.877 98.5805 440.636 100.708C437.286 102.977 433.18 104.111 428.318 104.111V102.111C432.862 102.111 436.557 101.055 439.513 99.0519L439.538 99.0353C442.609 97.0198 445.021 94.0129 446.73 89.8924C448.442 85.7636 449.332 80.7421 449.332 74.7747C449.332 68.5952 448.388 63.421 446.576 59.193C446.569 59.1756 446.562 59.1578 446.555 59.1402C444.953 55.0896 442.639 52.0038 439.637 49.7951L439.029 49.3653C439.021 49.3601 439.013 49.354 439.005 49.3487C435.829 47.1349 431.923 45.9803 427.183 45.9803C422.759 45.9803 419.048 47.0322 415.963 49.0566C412.879 51.0804 410.468 54.0436 408.764 58.0529C407.063 62.056 406.168 67.1196 406.168 73.3162L406.174 74.1954C406.297 82.9165 408.261 89.5437 411.849 94.2895L412.212 94.7584C416.122 99.6457 421.416 102.111 428.318 102.111V104.111L427.623 104.104C420.725 103.945 415.205 101.413 411.061 96.5061L410.65 96.0079C406.463 90.774 404.304 83.5119 404.173 74.2218L404.168 73.3162ZM386.344 74.3761C386.449 83.6039 388.176 91.463 391.525 97.9529C395.091 104.544 399.954 109.569 406.113 113.027C412.184 116.272 419.168 117.945 427.064 118.046L427.831 118.051C435.368 118.051 442.195 116.53 448.312 113.488L448.901 113.189C455.168 109.947 460.085 105.084 463.651 98.6006C467.105 92.2152 468.886 84.3597 468.994 75.0336L468.999 74.127C468.999 64.2941 467.216 56.0816 463.651 49.4903C460.085 42.8992 455.168 37.9283 448.901 34.5787C442.634 31.2292 435.503 29.5545 427.507 29.5545C419.835 29.5545 412.865 31.1759 406.598 34.4175L406.015 34.7253C400.022 37.9637 395.247 42.7241 391.688 49.0048C388.122 55.4879 386.339 63.6456 386.339 73.4784L386.344 74.3761Z" fill="url(#paint0_linear_13888_61)" fill-opacity="0.2"/>
<path d="M350.194 2.00071V115.944H367.699V2.00071H350.194ZM369.7 115.944L369.689 116.148C369.587 117.157 368.735 117.944 367.699 117.944H350.194C349.089 117.944 348.194 117.049 348.194 115.944V2.00071C348.194 0.895951 349.089 0.000145706 350.194 0H367.699C368.804 0.000151238 369.7 0.895954 369.7 2.00071V115.944Z" fill="url(#paint1_linear_13888_61)" fill-opacity="0.2"/>
<path d="M327.455 27.7159C328.74 27.7159 330.067 27.8311 331.434 28.0549C332.798 28.1678 334.255 28.4546 335.797 28.899L336.48 29.1041L336.639 29.1608C337.415 29.477 337.919 30.2502 337.882 31.1L337.071 49.7394C337.044 50.3796 336.711 50.9675 336.177 51.321C335.709 51.6304 335.136 51.728 334.598 51.5965L334.37 51.5262C332.948 50.9927 331.532 50.5781 330.122 50.2806L329.518 50.1605C327.892 49.8555 326.395 49.7082 325.024 49.7082C321.235 49.7082 318.074 50.8138 315.435 52.9818C312.703 55.2258 310.388 58.4043 308.541 62.6131C306.694 66.8197 305.285 71.7866 304.333 77.5364V115.944C304.333 117.049 303.437 117.944 302.332 117.944H284.666C283.561 117.944 282.665 117.049 282.665 115.944V31.6617C282.665 30.5567 283.561 29.661 284.666 29.661H300.063C300.605 29.661 301.124 29.8804 301.501 30.2696C301.878 30.6588 302.08 31.1847 302.063 31.7262L301.388 52.633C302.212 49.2788 303.209 46.2356 304.386 43.5106C306.551 38.4957 309.511 34.558 313.321 31.8199C313.328 31.8144 313.336 31.8088 313.344 31.8033C317.299 29.0468 322.038 27.716 327.455 27.7159ZM284.666 115.944H302.332V77.3684C303.244 71.797 304.583 66.8902 306.349 62.6483L306.709 61.8092C308.532 57.656 310.83 54.3569 313.603 51.913L314.165 51.4353C317.19 48.9503 320.81 47.7074 325.024 47.7074L325.597 47.7153C326.944 47.7507 328.374 47.9103 329.886 48.1939C331.615 48.5181 333.344 49.0042 335.073 49.6525L335.883 31.013C334.371 30.5402 332.982 30.2336 331.717 30.0918L331.183 30.041C329.886 29.8249 328.643 29.7167 327.455 29.7167C322.376 29.7167 318.054 30.9594 314.488 33.4445C311.031 35.9298 308.275 39.5497 306.222 44.3039C304.169 49.0583 302.656 54.8937 301.684 61.8092H299.091L300.063 31.6617H284.666V115.944Z" fill="url(#paint2_linear_13888_61)" fill-opacity="0.2"/>
<path d="M186.802 75.2612C186.802 68.4951 187.689 62.2391 189.487 56.5094C189.489 56.5019 189.492 56.4945 189.494 56.4869C191.399 50.6612 194.103 45.5745 197.625 41.2569L197.646 41.2325C201.298 36.8956 205.752 33.528 210.987 31.1381L211.002 31.1312C216.376 28.73 222.443 27.5538 229.161 27.5538C235.212 27.5538 240.717 28.6164 245.64 30.7825C250.706 32.8549 254.978 36.0304 258.431 40.2888H258.43C261.878 44.4336 264.365 49.5582 265.936 55.6009L266.24 56.7536C267.7 62.5701 268.203 69.1642 267.789 76.5087C267.73 77.5606 266.864 78.3867 265.811 78.3971L207.963 78.9657C208.473 85.991 210.363 91.302 213.455 95.0798L213.815 95.5057C217.681 99.9525 223.185 102.273 230.619 102.273V104.274C222.731 104.273 216.626 101.788 212.304 96.8177C208.295 92.2064 206.146 85.5957 205.857 76.9855L265.791 76.3964C266.223 68.7247 265.629 61.9711 264.008 56.1362C262.496 50.3015 260.118 45.4389 256.877 41.549C253.838 37.8009 250.134 34.9545 245.765 33.0108L244.882 32.6347C240.526 30.71 235.649 29.6875 230.248 29.5672L229.161 29.5545C222.678 29.5545 216.896 30.6889 211.818 32.958C206.847 35.2272 202.633 38.415 199.176 42.521C195.826 46.627 193.233 51.4896 191.396 57.1083C189.668 62.6189 188.803 68.67 188.803 75.2612L188.813 76.4697C188.921 82.4782 189.835 87.9648 191.558 92.9286C193.394 98.2231 196.042 102.761 199.5 106.543C203.066 110.217 207.442 113.08 212.629 115.133C217.491 116.956 223.065 117.925 229.352 118.039L230.619 118.051C235.914 118.051 240.614 117.402 244.72 116.106C248.671 114.992 252.1 113.403 255.006 111.339L255.579 110.919C258.605 108.542 261.036 105.786 262.873 102.653C264.818 99.4112 266.223 95.7915 267.087 91.7935L251.528 88.5521C250.988 90.6051 250.231 92.6044 249.259 94.5493C248.286 96.3862 246.99 98.0609 245.369 99.5736L245.06 99.8335C243.496 101.119 241.6 102.167 239.371 102.977C236.994 103.842 234.077 104.274 230.619 104.274V102.273C233.923 102.273 236.594 101.858 238.688 101.097C240.862 100.306 242.63 99.2919 244.032 98.0828C245.482 96.7244 246.625 95.2405 247.48 93.631C248.387 91.8136 249.091 89.9517 249.593 88.0431L249.653 87.8546C249.993 86.9371 250.959 86.39 251.936 86.5934L267.496 89.8348L267.688 89.8856C268.129 90.0244 268.511 90.3123 268.765 90.7032C269.055 91.1504 269.156 91.6953 269.043 92.2165C268.136 96.4107 266.655 100.238 264.588 103.682C262.619 107.037 260.021 109.974 256.816 112.492C256.804 112.502 256.792 112.511 256.78 112.52C253.54 114.95 249.703 116.773 245.307 118.018C240.971 119.385 236.067 120.052 230.619 120.052C224.062 120.052 218.165 119.173 212.958 117.378L211.926 117.007L211.892 116.994C206.805 114.98 202.425 112.205 198.783 108.657L198.064 107.937L198.024 107.893C194.594 104.142 191.936 99.7062 190.037 94.6119L189.668 93.5842C187.748 88.0484 186.802 81.9333 186.802 75.2612ZM229.964 43.9923C233.946 44.1125 237.407 45.135 240.345 47.0598C243.586 49.1127 246.017 52.2458 247.638 56.4596C248.729 59.05 249.345 62.0924 249.489 65.5859L206.506 65.9649C206.965 63.2005 207.655 60.6801 208.576 58.4046C210.46 53.9037 213.055 50.4168 216.358 47.9439L216.681 47.7074C220.246 45.2224 224.407 43.9796 229.161 43.9796L229.964 43.9923ZM229.161 45.9803C224.78 45.9803 221.032 47.1167 217.835 49.3408C214.74 51.5694 212.256 54.8038 210.431 59.1549C209.834 60.6281 209.339 62.224 208.945 63.9427L247.341 63.6037C247.086 61.1816 246.563 59.0639 245.794 57.2362L245.77 57.1786C244.369 53.5353 242.361 50.8831 239.795 49.0956L239.274 48.7498L239.247 48.7332C236.488 46.9251 233.155 45.9803 229.161 45.9803Z" fill="url(#paint3_linear_13888_61)" fill-opacity="0.2"/>
<path d="M94.8405 75.2612C94.8405 68.4951 95.7275 62.2391 97.525 56.5094C97.5274 56.5018 97.5304 56.4945 97.5328 56.4869C99.4374 50.6611 102.141 45.5746 105.664 41.2569L105.683 41.2325C109.335 36.8956 113.791 33.528 119.026 31.1381L119.04 31.1312C124.415 28.7301 130.481 27.5538 137.199 27.5538C143.271 27.5538 148.794 28.6229 153.73 30.804C158.765 32.8735 163.014 36.0346 166.452 40.2683C169.909 44.4166 172.401 49.5484 173.974 55.6009L174.279 56.7536C175.738 62.5701 176.24 69.1643 175.826 76.5087C175.767 77.5605 174.903 78.3866 173.849 78.3971L116.001 78.9657C116.512 85.991 118.401 91.302 121.494 95.0798L121.852 95.5057C125.719 99.9527 131.224 102.273 138.658 102.273V104.274L137.923 104.267C130.633 104.121 124.909 101.791 120.753 97.2769L120.343 96.8177C116.333 92.2064 114.184 85.5958 113.894 76.9855L173.83 76.3964C174.262 68.7247 173.667 61.971 172.047 56.1362C170.534 50.3013 168.156 45.4389 164.914 41.549C161.875 37.8008 158.172 34.9545 153.803 33.0108L152.921 32.6347C148.565 30.7099 143.686 29.6874 138.286 29.5672L137.199 29.5545C130.716 29.5545 124.935 30.6889 119.856 32.958C114.886 35.2272 110.672 38.415 107.214 42.521C103.864 46.6271 101.271 51.4895 99.4339 57.1083C97.7051 62.6189 96.8412 68.67 96.8412 75.2612L96.8519 76.4697C96.9595 82.4782 97.8739 87.9648 99.5961 92.9286C101.433 98.2231 104.081 102.761 107.538 106.543C111.104 110.217 115.48 113.08 120.667 115.133C125.529 116.956 131.104 117.925 137.391 118.039L138.658 118.051C143.622 118.051 148.063 117.481 151.982 116.341L152.759 116.106C156.709 114.992 160.138 113.402 163.043 111.339L163.618 110.919C166.643 108.542 169.075 105.786 170.912 102.653C172.856 99.4112 174.262 95.7914 175.126 91.7935L159.566 88.5521C159.025 90.6051 158.27 92.6044 157.297 94.5493C156.325 96.3862 155.028 98.0609 153.407 99.5736L153.099 99.8335C151.535 101.119 149.639 102.167 147.41 102.977C145.033 103.842 142.115 104.273 138.658 104.274V102.273C141.962 102.273 144.632 101.858 146.726 101.097C148.9 100.306 150.667 99.2916 152.069 98.0828C153.519 96.7244 154.663 95.2416 155.518 93.632C156.425 91.8143 157.129 89.9519 157.631 88.0431L157.691 87.8546C158.031 86.9371 158.997 86.3899 159.974 86.5934L175.534 89.8348L175.727 89.8856C176.168 90.0244 176.549 90.3123 176.803 90.7032C177.094 91.1504 177.194 91.6953 177.082 92.2165C176.176 96.4037 174.698 100.224 172.637 103.664C170.666 107.026 168.064 109.97 164.854 112.492C164.842 112.501 164.83 112.511 164.819 112.52C161.578 114.95 157.742 116.773 153.346 118.018C149.01 119.385 144.105 120.052 138.658 120.052C132.101 120.052 126.203 119.173 120.996 117.378L119.965 117.007L119.93 116.994C114.844 114.98 110.464 112.205 106.821 108.657L106.102 107.937C106.088 107.923 106.075 107.908 106.061 107.893C102.632 104.142 99.9749 99.7061 98.076 94.6119L97.7057 93.5842C95.7852 88.0484 94.8405 81.9333 94.8405 75.2612ZM138.002 43.9923C141.985 44.1125 145.444 45.1351 148.382 47.0598C151.623 49.1127 154.055 52.2458 155.676 56.4596C156.766 59.05 157.382 62.0924 157.527 65.5859L114.544 65.9649C114.946 63.545 115.525 61.3124 116.281 59.2672L116.615 58.4046C118.56 53.7586 121.261 50.1926 124.718 47.7074C128.284 45.2222 132.445 43.9796 137.199 43.9796L138.002 43.9923ZM137.199 45.9803C132.823 45.9803 129.076 47.1146 125.882 49.335C122.778 51.5675 120.288 54.8113 118.46 59.1774C117.868 60.6445 117.376 62.2325 116.983 63.9427L155.379 63.6037C155.139 61.3345 154.667 59.3326 153.975 57.586L153.809 57.1786C152.408 53.5354 150.4 50.8831 147.833 49.0956L147.312 48.7498L147.286 48.7332C144.526 46.925 141.193 45.9803 137.199 45.9803Z" fill="url(#paint4_linear_13888_61)" fill-opacity="0.2"/>
<path d="M0 8.97C0.000230449 7.86526 0.895934 6.96933 2.00071 6.96928H40.2517V8.97H2.00071V115.944H19.6672V83.8522H36.0382L37.0259 83.8473C46.8517 83.7649 55.158 82.4481 61.9449 79.8967L62.619 79.6378C69.6323 76.8115 74.9724 72.7683 78.6394 67.5084L78.9891 66.9956C82.5481 61.5524 84.3838 54.9428 84.495 47.1672L84.4999 46.4111C84.4999 40.2521 83.4736 34.8494 81.4206 30.2032C79.3676 25.4488 76.4494 21.5585 72.6675 18.533C68.8857 15.3996 64.2395 13.0223 58.729 11.4015C53.3263 9.78075 47.1671 8.97 40.2517 8.97V6.96928C47.3196 6.96928 53.6786 7.79711 59.3044 9.48483H59.3034C65.0144 11.1657 69.9018 13.65 73.918 16.9709C77.9689 20.2116 81.0772 24.3678 83.2504 29.3943C85.4372 34.3434 86.5006 40.0314 86.5006 46.4111L86.4947 47.1965C86.3789 55.2753 84.468 62.2721 80.6635 68.0907C80.6604 68.0955 80.657 68.1005 80.6538 68.1053C76.7188 74.0077 70.9114 78.4524 63.3663 81.4929C63.3617 81.4948 63.3573 81.497 63.3527 81.4988C55.917 84.428 46.7891 85.8528 36.0382 85.8529H21.6679V115.944C21.6679 117.049 20.7721 117.944 19.6672 117.944H2.00071C0.895792 117.944 0 117.049 0 115.944V8.97ZM64.5084 45.9246C64.5083 38.9801 62.5517 34.1034 58.9409 30.9124L58.5863 30.6086L58.5463 30.5744C54.8678 27.3557 49.0048 25.5135 40.5877 25.4016L39.7652 25.3968H21.6679V67.2632H38.3066V69.264H19.6672V23.396H39.7652C48.8413 23.396 55.541 25.2864 59.8631 29.068C64.2933 32.7418 66.509 38.3609 66.5091 45.9246L66.5022 46.6885C66.3582 54.5064 63.9833 60.1952 59.3776 63.7542L58.9253 64.0932C54.1821 67.541 47.3089 69.264 38.3066 69.264V67.2632C47.3846 67.2632 53.896 65.4613 58.1545 62.1706C62.2538 59.0028 64.5084 53.7598 64.5084 45.9246Z" fill="url(#paint5_linear_13888_61)" fill-opacity="0.2"/>
<defs>
<linearGradient id="paint0_linear_13888_61" x1="232.945" y1="3.60272" x2="232.945" y2="91.6341" gradientUnits="userSpaceOnUse">
<stop/>
<stop offset="1" stop-color="white"/>
</linearGradient>
<linearGradient id="paint1_linear_13888_61" x1="232.945" y1="3.60272" x2="232.945" y2="91.6341" gradientUnits="userSpaceOnUse">
<stop/>
<stop offset="1" stop-color="white"/>
</linearGradient>
<linearGradient id="paint2_linear_13888_61" x1="232.945" y1="3.60272" x2="232.945" y2="91.6341" gradientUnits="userSpaceOnUse">
<stop/>
<stop offset="1" stop-color="white"/>
</linearGradient>
<linearGradient id="paint3_linear_13888_61" x1="232.945" y1="3.60272" x2="232.945" y2="91.6341" gradientUnits="userSpaceOnUse">
<stop/>
<stop offset="1" stop-color="white"/>
</linearGradient>
<linearGradient id="paint4_linear_13888_61" x1="232.945" y1="3.60272" x2="232.945" y2="91.6341" gradientUnits="userSpaceOnUse">
<stop/>
<stop offset="1" stop-color="white"/>
</linearGradient>
<linearGradient id="paint5_linear_13888_61" x1="232.945" y1="3.60272" x2="232.945" y2="91.6341" gradientUnits="userSpaceOnUse">
<stop/>
<stop offset="1" stop-color="white"/>
</linearGradient>
</defs>
</svg>
