<svg width="118" height="81" viewBox="0 0 118 81" fill="none" xmlns="http://www.w3.org/2000/svg">
<path d="M107.554 81.0001C105.48 81.0001 103.652 80.5771 102.069 79.731C100.513 78.8577 99.2851 77.5886 98.3844 75.9238C97.5111 74.2317 97.0744 72.1712 97.0744 69.7422C97.0744 67.2587 97.5247 65.1982 98.4254 63.5606C99.3533 61.9231 100.609 60.695 102.192 59.8763C103.775 59.0575 105.535 58.6481 107.473 58.6481C109.492 58.6481 111.293 59.0711 112.876 59.9172C114.459 60.7632 115.701 62.0187 116.602 63.6835C117.502 65.3483 117.953 67.4224 117.953 69.906C117.953 72.3622 117.502 74.4228 116.602 76.0876C115.701 77.7251 114.459 78.9532 112.876 79.772C111.293 80.5907 109.519 81.0001 107.554 81.0001ZM107.677 77.4795C108.905 77.4795 109.942 77.1929 110.789 76.6198C111.662 76.0466 112.331 75.2006 112.794 74.0816C113.258 72.9627 113.49 71.6254 113.49 70.0697C113.49 68.4595 113.245 67.0813 112.754 65.935C112.29 64.7615 111.594 63.8609 110.666 63.2331C109.765 62.6054 108.673 62.2916 107.391 62.2916C106.19 62.2916 105.153 62.5781 104.279 63.1513C103.406 63.7244 102.737 64.5568 102.274 65.6485C101.81 66.7401 101.578 68.0911 101.578 69.7013C101.578 72.1576 102.123 74.068 103.215 75.4326C104.307 76.7972 105.794 77.4795 107.677 77.4795Z" fill="#313131"/>
<path d="M87.9454 80.468V51.6888H92.3667V80.468H87.9454Z" fill="#313131"/>
<path d="M71.3945 80.468V69.4558V59.1805H75.2835L75.0379 66.7949H75.6929C75.9385 65.0482 76.3206 63.5744 76.8392 62.3736C77.3577 61.1728 78.0537 60.2585 78.927 59.6308C79.8276 59.0031 80.9193 58.6892 82.202 58.6892C82.5022 58.6892 82.8161 58.7165 83.1436 58.7711C83.4984 58.7984 83.8941 58.8802 84.3308 59.0167L84.1261 63.7245C83.6894 63.5608 83.2527 63.438 82.8161 63.3561C82.3794 63.2742 81.97 63.2333 81.5879 63.2333C80.5236 63.2333 79.6093 63.5471 78.8451 64.1748C78.081 64.8026 77.4532 65.6759 76.962 66.7949C76.4707 67.9138 76.1023 69.2238 75.8567 70.7249V80.468H71.3945Z" fill="#313131"/>
<path d="M57.7434 81.0001C56.024 81.0001 54.5093 80.7545 53.1993 80.2632C51.8893 79.7447 50.784 79.0214 49.8834 78.0935C49.01 77.1383 48.3414 75.9921 47.8774 74.6548C47.4135 73.3175 47.1815 71.8301 47.1815 70.1926C47.1815 68.5278 47.3998 66.9994 47.8365 65.6075C48.3004 64.1884 48.9554 62.9602 49.8015 61.9231C50.6748 60.8861 51.7392 60.0809 52.9946 59.5078C54.2773 58.9347 55.7375 58.6481 57.375 58.6481C58.8487 58.6481 60.1724 58.9074 61.3459 59.4259C62.5468 59.9172 63.5566 60.6677 64.3753 61.6775C65.1941 62.66 65.7945 63.8881 66.1766 65.3619C66.5859 66.8357 66.736 68.5414 66.6269 70.4791L50.0062 70.6429V67.8591L63.925 67.7363L62.4512 69.4147C62.615 67.8045 62.4785 66.4809 62.0419 65.4438C61.6325 64.3794 61.0184 63.5879 60.1997 63.0694C59.4082 62.5509 58.4666 62.2916 57.375 62.2916C56.1741 62.2916 55.1234 62.6054 54.2228 63.2331C53.3494 63.8609 52.6671 64.7615 52.1759 65.935C51.7119 67.0813 51.4799 68.4732 51.4799 70.1107C51.4799 72.5396 52.0258 74.3818 53.1174 75.6373C54.2091 76.8927 55.7511 77.5204 57.7434 77.5204C58.6167 77.5204 59.3536 77.4112 59.954 77.1929C60.5545 76.9746 61.0594 76.688 61.4687 76.3332C61.8781 75.9511 62.2056 75.5281 62.4512 75.0641C62.6969 74.5729 62.8879 74.068 63.0244 73.5494L66.9544 74.3682C66.736 75.378 66.3813 76.2923 65.89 77.111C65.426 77.9025 64.812 78.5984 64.0478 79.1988C63.2836 79.772 62.3694 80.2086 61.305 80.5088C60.2679 80.8363 59.0807 81.0001 57.7434 81.0001Z" fill="#313131"/>
<path d="M34.5162 81.0001C32.7968 81.0001 31.2822 80.7545 29.9721 80.2632C28.6621 79.7447 27.5568 79.0214 26.6562 78.0935C25.7829 77.1383 25.1142 75.9921 24.6502 74.6548C24.1863 73.3175 23.9543 71.8301 23.9543 70.1926C23.9543 68.5278 24.1726 66.9994 24.6093 65.6075C25.0733 64.1884 25.7283 62.9602 26.5743 61.9231C27.4477 60.8861 28.512 60.0809 29.7675 59.5078C31.0502 58.9347 32.5103 58.6481 34.1478 58.6481C35.6215 58.6481 36.9452 58.9074 38.1187 59.4259C39.3196 59.9172 40.3294 60.6677 41.1481 61.6775C41.9669 62.66 42.5673 63.8881 42.9494 65.3619C43.3588 66.8357 43.5089 68.5414 43.3997 70.4791L26.779 70.6429V67.8591L40.6978 67.7363L39.2241 69.4147C39.3878 67.8045 39.2514 66.4809 38.8147 65.4438C38.4053 64.3794 37.7912 63.5879 36.9725 63.0694C36.181 62.5509 35.2395 62.2916 34.1478 62.2916C32.9469 62.2916 31.8962 62.6054 30.9956 63.2331C30.1223 63.8609 29.44 64.7615 28.9487 65.935C28.4847 67.0813 28.2528 68.4732 28.2528 70.1107C28.2528 72.5396 28.7986 74.3818 29.8903 75.6373C30.9819 76.8927 32.5239 77.5204 34.5162 77.5204C35.3896 77.5204 36.1264 77.4112 36.7269 77.1929C37.3273 76.9746 37.8322 76.688 38.2416 76.3332C38.6509 75.9511 38.9784 75.5281 39.2241 75.0641C39.4697 74.5729 39.6607 74.068 39.7972 73.5494L43.7272 74.3682C43.5089 75.378 43.1541 76.2923 42.6628 77.111C42.1989 77.9025 41.5848 78.5984 40.8206 79.1988C40.0565 79.772 39.1422 80.2086 38.0778 80.5088C37.0407 80.8363 35.8535 81.0001 34.5162 81.0001Z" fill="#313131"/>
<path d="M2.70189 72.3624V68.678H9.17004C11.5171 68.678 13.2911 68.214 14.4919 67.2861C15.6928 66.3582 16.2932 64.8571 16.2932 62.7829C16.2932 60.8725 15.7337 59.4533 14.6148 58.5254C13.5231 57.5702 11.831 57.0926 9.53848 57.0926H2.70189V53.4491H9.66129C11.408 53.4491 12.9636 53.6538 14.3282 54.0632C15.7201 54.4726 16.8936 55.073 17.8488 55.8645C18.804 56.6286 19.5409 57.6111 20.0595 58.812C20.578 59.9855 20.8373 61.3501 20.8373 62.9058C20.8373 64.9526 20.3733 66.6857 19.4454 68.1048C18.5175 69.4967 17.1392 70.5611 15.3107 71.298C13.5094 72.0076 11.2715 72.3624 8.59691 72.3624H2.70189ZM0 80.468V53.4491H4.46221V80.468H0Z" fill="#313131"/>
<path d="M22.9156 0C31.0689 0 37.6788 6.60941 37.6789 14.7626C37.6789 22.916 31.069 29.5259 22.9156 29.5259H15.1354C14.6061 29.5259 14.0831 29.4972 13.5682 29.4429C7.23086 29.5259 2.11938 34.6884 2.11928 41.0454V41.3402C2.11926 41.8184 1.73117 42.2058 1.25297 42.2058C0.774831 42.2057 0.387363 41.8183 0.387347 41.3402V16.7845C0.387347 16.4177 0.423056 16.0495 0.400481 15.6835C0.381696 15.3789 0.372124 15.0718 0.372124 14.7626C0.372306 6.60953 6.98165 0.000185214 15.1347 0H22.9156Z" fill="#388566"/>
</svg>
