<svg width="118" height="30" viewBox="0 0 118 30" fill="none" xmlns="http://www.w3.org/2000/svg">
<path d="M107.598 29.3231C105.523 29.3231 103.693 28.8999 102.11 28.0535C100.553 27.1798 99.3248 25.9102 98.4239 24.2448C97.5502 22.552 97.1133 20.4906 97.1133 18.0607C97.1133 15.5762 97.5638 13.5148 98.4648 11.8766C99.3931 10.2385 100.649 9.00985 102.233 8.19076C103.816 7.37168 105.577 6.96214 107.516 6.96214C109.536 6.96214 111.338 7.38533 112.922 8.23172C114.505 9.0781 115.747 10.334 116.648 11.9995C117.549 13.665 118 15.74 118 18.2245C118 20.6818 117.549 22.7431 116.648 24.4086C115.747 26.0467 114.505 27.2754 112.922 28.0945C111.338 28.9135 109.563 29.3231 107.598 29.3231ZM107.72 25.801C108.949 25.801 109.987 25.5143 110.833 24.941C111.707 24.3676 112.376 23.5212 112.84 22.4018C113.304 21.2824 113.536 19.9446 113.536 18.3883C113.536 16.7775 113.29 15.3987 112.799 14.252C112.335 13.0779 111.638 12.177 110.71 11.549C109.809 10.921 108.717 10.6071 107.434 10.6071C106.232 10.6071 105.195 10.8937 104.321 11.4671C103.448 12.0404 102.779 12.8732 102.315 13.9653C101.85 15.0574 101.618 16.4089 101.618 18.0197C101.618 20.477 102.164 22.3882 103.256 23.7533C104.349 25.1185 105.837 25.801 107.72 25.801Z" fill="#313131"/>
<path d="M87.9807 28.7907V0H92.4037V28.7907H87.9807Z" fill="#313131"/>
<path d="M71.4231 28.7908V17.7742V7.49468H75.3137L75.068 15.1121H75.7233C75.969 13.3648 76.3512 11.8904 76.87 10.6891C77.3887 9.48778 78.0849 8.57314 78.9586 7.94517C79.8596 7.31721 80.9517 7.00323 82.235 7.00323C82.5353 7.00323 82.8493 7.03053 83.1769 7.08514C83.5318 7.11244 83.9277 7.19435 84.3646 7.33086L84.1598 12.0406C83.723 11.8768 83.2861 11.7539 82.8493 11.672C82.4124 11.5901 82.0029 11.5491 81.6206 11.5491C80.5558 11.5491 79.6412 11.8631 78.8767 12.4911C78.1122 13.119 77.4843 13.9927 76.9928 15.1121C76.5014 16.2316 76.1328 17.5421 75.8871 19.0437V28.7908H71.4231Z" fill="#313131"/>
<path d="M57.7665 29.3231C56.0465 29.3231 54.5312 29.0773 53.2206 28.5859C51.9101 28.0671 50.8044 27.3436 49.9034 26.4153C49.0297 25.4597 48.3608 24.313 47.8966 22.9752C47.4325 21.6374 47.2004 20.1494 47.2004 18.5112C47.2004 16.8457 47.4188 15.3168 47.8557 13.9243C48.3198 12.5046 48.9751 11.276 49.8215 10.2385C50.6951 9.20096 51.7599 8.39553 53.0159 7.82218C54.2991 7.24882 55.7598 6.96214 57.398 6.96214C58.8723 6.96214 60.1965 7.22152 61.3705 7.74027C62.5718 8.23172 63.582 8.98254 64.4011 9.99274C65.2202 10.9756 65.8208 12.2043 66.2031 13.6786C66.6126 15.153 66.7628 16.8594 66.6536 18.7979L50.0262 18.9617V16.1768L63.9506 16.0539L62.4763 17.7331C62.6401 16.1222 62.5036 14.798 62.0667 13.7605C61.6572 12.6957 61.0429 11.9039 60.2238 11.3852C59.432 10.8664 58.4901 10.6071 57.398 10.6071C56.1966 10.6071 55.1455 10.921 54.2445 11.549C53.3708 12.177 52.6882 13.0779 52.1968 14.252C51.7326 15.3987 51.5006 16.7911 51.5006 18.4293C51.5006 20.8592 52.0466 22.7022 53.1387 23.9581C54.2308 25.214 55.7734 25.842 57.7665 25.842C58.6402 25.842 59.3774 25.7328 59.9781 25.5143C60.5787 25.2959 61.0838 25.0092 61.4934 24.6543C61.9029 24.2721 62.2305 23.8489 62.4763 23.3847C62.722 22.8933 62.9131 22.3882 63.0496 21.8694L66.9812 22.6885C66.7628 23.6987 66.4079 24.6134 65.9164 25.4324C65.4523 26.2242 64.838 26.9204 64.0735 27.5211C63.309 28.0944 62.3944 28.5313 61.3296 28.8316C60.292 29.1593 59.1044 29.3231 57.7665 29.3231Z" fill="#313131"/>
<path d="M34.5301 29.3231C32.81 29.3231 31.2947 29.0773 29.9842 28.5859C28.6736 28.0671 27.5679 27.3436 26.6669 26.4153C25.7932 25.4597 25.1243 24.313 24.6601 22.9752C24.196 21.6374 23.9639 20.1494 23.9639 18.5112C23.9639 16.8457 24.1823 15.3168 24.6192 13.9243C25.0833 12.5046 25.7386 11.276 26.585 10.2385C27.4587 9.20096 28.5235 8.39553 29.7794 7.82218C31.0626 7.24882 32.5233 6.96214 34.1615 6.96214C35.6358 6.96214 36.96 7.22152 38.134 7.74027C39.3353 8.23172 40.3455 8.98254 41.1646 9.99274C41.9837 10.9756 42.5844 12.2043 42.9666 13.6786C43.3761 15.153 43.5263 16.8594 43.4171 18.7979L26.7897 18.9617V16.1768L40.7141 16.0539L39.2398 17.7331C39.4036 16.1222 39.2671 14.798 38.8302 13.7605C38.4207 12.6957 37.8064 11.9039 36.9873 11.3852C36.1955 10.8664 35.2536 10.6071 34.1615 10.6071C32.9602 10.6071 31.909 10.921 31.008 11.549C30.1343 12.177 29.4518 13.0779 28.9603 14.252C28.4962 15.3987 28.2641 16.7911 28.2641 18.4293C28.2641 20.8592 28.8101 22.7022 29.9023 23.9581C30.9944 25.214 32.537 25.842 34.5301 25.842C35.4037 25.842 36.1409 25.7328 36.7416 25.5143C37.3422 25.2959 37.8473 25.0092 38.2569 24.6543C38.6664 24.2721 38.9941 23.8489 39.2398 23.3847C39.4855 22.8933 39.6766 22.3882 39.8131 21.8694L43.7447 22.6885C43.5263 23.6987 43.1714 24.6134 42.6799 25.4324C42.2158 26.2242 41.6015 26.9204 40.837 27.5211C40.0725 28.0944 39.1579 28.5313 38.0931 28.8316C37.0556 29.1593 35.8679 29.3231 34.5301 29.3231Z" fill="#313131"/>
<path d="M2.70297 20.6819V16.996H9.17371C11.5217 16.996 13.2964 16.5319 14.4977 15.6036C15.6991 14.6753 16.2997 13.1736 16.2997 11.0986C16.2997 9.18742 15.74 7.76768 14.6206 6.83939C13.5285 5.88379 11.8357 5.40599 9.5423 5.40599H2.70297V1.76108H9.66516C11.4125 1.76108 12.9688 1.96585 14.3339 2.37539C15.7264 2.78493 16.9004 3.38559 17.856 4.17737C18.8116 4.94185 19.5487 5.92475 20.0675 7.12607C20.5863 8.30008 20.8456 9.66522 20.8456 11.2215C20.8456 13.2692 20.3815 15.0029 19.4532 16.4226C18.5249 17.8151 17.1461 18.8799 15.3168 19.6171C13.5148 20.3269 11.276 20.6819 8.60036 20.6819H2.70297ZM0 28.7908V1.76108H4.464V28.7908H0Z" fill="#313131"/>
</svg>
