<svg width="296" height="327" viewBox="0 0 296 327" fill="none" xmlns="http://www.w3.org/2000/svg">
<g filter="url(#filter0_ddddd_13888_68)">
<mask id="path-1-inside-1_13888_68" fill="white">
<path d="M143.47 3.00072C194.273 3.00085 235.458 44.1853 235.458 94.9885C235.457 145.792 194.273 186.975 143.47 186.975H94.9885C91.675 186.975 88.4024 186.798 85.1795 186.457C45.7132 186.999 13.8871 219.16 13.8871 258.755V260.591C13.887 263.57 11.471 265.985 8.49129 265.985C5.51175 265.985 3.0965 263.57 3.09644 260.591V99.176C3.03425 97.788 3.00072 96.3919 3.00072 94.9885C3.00072 44.1852 44.1852 3.00072 94.9885 3.00072H143.47Z"/>
</mask>
<path d="M143.47 3.00072C194.273 3.00085 235.458 44.1853 235.458 94.9885C235.457 145.792 194.273 186.975 143.47 186.975H94.9885C91.675 186.975 88.4024 186.798 85.1795 186.457C45.7132 186.999 13.8871 219.16 13.8871 258.755V260.591C13.887 263.57 11.471 265.985 8.49129 265.985C5.51175 265.985 3.0965 263.57 3.09644 260.591V99.176C3.03425 97.788 3.00072 96.3919 3.00072 94.9885C3.00072 44.1852 44.1852 3.00072 94.9885 3.00072H143.47Z" fill="url(#paint0_linear_13888_68)"/>
<path d="M143.47 3.00072L143.47 -0.633258H143.47V3.00072ZM235.458 94.9885L239.092 94.9885V94.9885H235.458ZM143.47 186.975V190.609H143.47L143.47 186.975ZM85.1795 186.457L85.5626 182.843L85.3467 182.82L85.1296 182.823L85.1795 186.457ZM13.8871 260.591L17.5211 260.591V260.591H13.8871ZM8.49129 265.985L8.49108 269.619H8.49129V265.985ZM3.09644 260.591H-0.537532V260.591L3.09644 260.591ZM3.09644 99.176H6.73042V99.0947L6.72677 99.0134L3.09644 99.176ZM3.00072 94.9885H-0.633258V94.9885L3.00072 94.9885ZM143.47 3.00072L143.47 6.63469C192.266 6.63482 231.824 46.1923 231.824 94.9885H235.458H239.092C239.092 42.1783 196.28 -0.633118 143.47 -0.633258L143.47 3.00072ZM235.458 94.9885L231.824 94.9885C231.824 143.785 192.266 183.341 143.47 183.341L143.47 186.975L143.47 190.609C196.28 190.609 239.091 147.799 239.092 94.9885L235.458 94.9885ZM143.47 186.975V183.341H94.9885V186.975V190.609H143.47V186.975ZM94.9885 186.975V183.341C91.8046 183.341 88.6599 183.171 85.5626 182.843L85.1795 186.457L84.7965 190.07C88.145 190.425 91.5455 190.609 94.9885 190.609V186.975ZM85.1795 186.457L85.1296 182.823C43.6787 183.392 10.2531 217.17 10.2531 258.755H13.8871H17.5211C17.5211 221.15 47.7477 190.605 85.2294 190.09L85.1795 186.457ZM13.8871 258.755H10.2531V260.591H13.8871H17.5211V258.755H13.8871ZM13.8871 260.591L10.2531 260.591C10.2531 261.562 9.46476 262.351 8.49129 262.351V265.985V269.619C13.4772 269.619 17.521 265.578 17.5211 260.591L13.8871 260.591ZM8.49129 265.985L8.4915 262.351C7.51864 262.351 6.73043 261.563 6.73042 260.591L3.09644 260.591L-0.537532 260.591C-0.537442 265.577 3.50485 269.619 8.49108 269.619L8.49129 265.985ZM3.09644 260.591H6.73042V99.176H3.09644H-0.537532V260.591H3.09644ZM3.09644 99.176L6.72677 99.0134C6.66684 97.6758 6.63469 96.3341 6.63469 94.9885L3.00072 94.9885L-0.633258 94.9885C-0.633254 96.4498 -0.598347 97.9001 -0.533889 99.3387L3.09644 99.176ZM3.00072 94.9885H6.63469C6.63469 46.1922 46.1922 6.63469 94.9885 6.63469V3.00072V-0.633258C42.1782 -0.633258 -0.633258 42.1782 -0.633258 94.9885H3.00072ZM94.9885 3.00072V6.63469H143.47V3.00072V-0.633258H94.9885V3.00072Z" fill="url(#paint1_linear_13888_68)" mask="url(#path-1-inside-1_13888_68)"/>
</g>
<defs>
<filter id="filter0_ddddd_13888_68" x="0" y="0" width="295.472" height="327" filterUnits="userSpaceOnUse" color-interpolation-filters="sRGB">
<feFlood flood-opacity="0" result="BackgroundImageFix"/>
<feColorMatrix in="SourceAlpha" type="matrix" values="0 0 0 0 0 0 0 0 0 0 0 0 0 0 0 0 0 0 127 0" result="hardAlpha"/>
<feOffset dx="2" dy="2"/>
<feGaussianBlur stdDeviation="2.5"/>
<feColorMatrix type="matrix" values="0 0 0 0 0.219608 0 0 0 0 0.521569 0 0 0 0 0.4 0 0 0 0.3 0"/>
<feBlend mode="normal" in2="BackgroundImageFix" result="effect1_dropShadow_13888_68"/>
<feColorMatrix in="SourceAlpha" type="matrix" values="0 0 0 0 0 0 0 0 0 0 0 0 0 0 0 0 0 0 127 0" result="hardAlpha"/>
<feOffset dx="7" dy="7"/>
<feGaussianBlur stdDeviation="5"/>
<feColorMatrix type="matrix" values="0 0 0 0 0.219608 0 0 0 0 0.521569 0 0 0 0 0.4 0 0 0 0.26 0"/>
<feBlend mode="normal" in2="effect1_dropShadow_13888_68" result="effect2_dropShadow_13888_68"/>
<feColorMatrix in="SourceAlpha" type="matrix" values="0 0 0 0 0 0 0 0 0 0 0 0 0 0 0 0 0 0 127 0" result="hardAlpha"/>
<feOffset dx="15" dy="16"/>
<feGaussianBlur stdDeviation="6.5"/>
<feColorMatrix type="matrix" values="0 0 0 0 0.219608 0 0 0 0 0.521569 0 0 0 0 0.4 0 0 0 0.16 0"/>
<feBlend mode="normal" in2="effect2_dropShadow_13888_68" result="effect3_dropShadow_13888_68"/>
<feColorMatrix in="SourceAlpha" type="matrix" values="0 0 0 0 0 0 0 0 0 0 0 0 0 0 0 0 0 0 127 0" result="hardAlpha"/>
<feOffset dx="27" dy="28"/>
<feGaussianBlur stdDeviation="8"/>
<feColorMatrix type="matrix" values="0 0 0 0 0.219608 0 0 0 0 0.521569 0 0 0 0 0.4 0 0 0 0.05 0"/>
<feBlend mode="normal" in2="effect3_dropShadow_13888_68" result="effect4_dropShadow_13888_68"/>
<feColorMatrix in="SourceAlpha" type="matrix" values="0 0 0 0 0 0 0 0 0 0 0 0 0 0 0 0 0 0 127 0" result="hardAlpha"/>
<feOffset dx="43" dy="44"/>
<feGaussianBlur stdDeviation="8.5"/>
<feColorMatrix type="matrix" values="0 0 0 0 0.219608 0 0 0 0 0.521569 0 0 0 0 0.4 0 0 0 0.01 0"/>
<feBlend mode="normal" in2="effect4_dropShadow_13888_68" result="effect5_dropShadow_13888_68"/>
<feBlend mode="normal" in="SourceGraphic" in2="effect5_dropShadow_13888_68" result="shape"/>
</filter>
<linearGradient id="paint0_linear_13888_68" x1="119.229" y1="3.00072" x2="119.229" y2="265.985" gradientUnits="userSpaceOnUse">
<stop stop-color="white"/>
<stop offset="0.649038" stop-color="#E1F4EC"/>
</linearGradient>
<linearGradient id="paint1_linear_13888_68" x1="119.229" y1="3.00072" x2="119.229" y2="265.985" gradientUnits="userSpaceOnUse">
<stop offset="0.293269" stop-color="#C1F7E1"/>
<stop offset="0.514423" stop-color="white"/>
</linearGradient>
</defs>
</svg>
