<svg width="467" height="117" viewBox="0 0 467 117" fill="none" xmlns="http://www.w3.org/2000/svg">
<g filter="url(#filter0_iiiii_13888_54)">
<path d="M425.831 116.05C417.619 116.05 410.38 114.375 404.113 111.026C397.954 107.568 393.091 102.543 389.525 95.9521C386.068 89.2527 384.339 81.0946 384.339 71.4778C384.339 61.6449 386.122 53.4868 389.687 47.0036C393.361 40.5203 398.332 35.6579 404.599 32.4163C410.866 29.1747 417.836 27.5538 425.507 27.5538C433.503 27.5538 440.635 29.2287 446.902 32.5784C453.169 35.928 458.086 40.8985 461.651 47.4898C465.217 54.0811 467 62.2932 467 72.1262C467 81.851 465.217 90.0091 461.651 96.6004C458.086 103.084 453.169 107.946 446.902 111.188C440.635 114.429 433.611 116.05 425.831 116.05ZM426.318 102.111C431.18 102.111 435.286 100.977 438.636 98.7075C442.094 96.4383 444.741 93.0886 446.578 88.6584C448.415 84.2282 449.333 78.9336 449.333 72.7745C449.333 66.3993 448.361 60.9426 446.416 56.4043C444.579 51.758 441.824 48.1922 438.15 45.7069C434.584 43.2217 430.262 41.9791 425.183 41.9791C420.429 41.9791 416.323 43.1136 412.865 45.3828C409.407 47.6519 406.76 50.9476 404.923 55.2697C403.086 59.5919 402.168 64.9406 402.168 71.3158C402.168 81.0406 404.329 88.6044 408.651 94.0071C412.973 99.4098 418.862 102.111 426.318 102.111Z" fill="#305043"/>
</g>
<g filter="url(#filter1_iiiii_13888_54)">
<path d="M348.195 113.943V0H365.699V113.943H348.195Z" fill="#305043"/>
</g>
<g filter="url(#filter2_iiiii_13888_54)">
<path d="M282.665 113.943V70.3433V29.661H298.063L297.091 59.8081H299.684C300.656 52.8926 302.169 47.0577 304.222 42.3033C306.275 37.5489 309.031 33.9291 312.488 31.4439C316.054 28.9586 320.376 27.716 325.455 27.716C326.643 27.716 327.886 27.8241 329.183 28.0402C330.587 28.1482 332.154 28.4724 333.883 29.0127L333.073 47.652C331.344 47.0037 329.615 46.5174 327.886 46.1933C326.157 45.8691 324.536 45.707 323.024 45.707C318.81 45.707 315.19 46.9496 312.164 49.4349C309.139 51.9201 306.654 55.3778 304.709 59.8081C302.764 64.2383 301.305 69.4249 300.332 75.3679V113.943H282.665Z" fill="#305043"/>
</g>
<g filter="url(#filter3_iiiii_13888_54)">
<path d="M228.619 116.05C221.812 116.05 215.815 115.078 210.628 113.133C205.442 111.08 201.066 108.216 197.5 104.542C194.042 100.76 191.395 96.2222 189.558 90.9276C187.721 85.6329 186.802 79.744 186.802 73.2607C186.802 66.6694 187.667 60.6184 189.396 55.1076C191.233 49.4888 193.826 44.6264 197.176 40.5203C200.633 36.4143 204.847 33.2267 209.818 30.9575C214.896 28.6884 220.677 27.5538 227.161 27.5538C232.996 27.5538 238.236 28.5804 242.883 30.6334C247.637 32.5784 251.635 35.5498 254.877 39.5478C258.118 43.4378 260.495 48.3002 262.008 54.1352C263.629 59.9701 264.223 66.7234 263.791 74.3953L197.986 75.0436V64.0221L253.094 63.5359L247.259 70.1812C247.907 63.806 247.367 58.5654 245.638 54.4593C244.017 50.2452 241.586 47.1116 238.344 45.0586C235.211 43.0056 231.483 41.9791 227.161 41.9791C222.406 41.9791 218.246 43.2217 214.68 45.7069C211.223 48.1922 208.521 51.758 206.576 56.4043C204.739 60.9426 203.821 66.4533 203.821 72.9366C203.821 82.5534 205.982 89.847 210.304 94.8175C214.626 99.788 220.731 102.273 228.619 102.273C232.077 102.273 234.995 101.841 237.372 100.977C239.749 100.112 241.748 98.9776 243.369 97.5729C244.99 96.0601 246.286 94.3853 247.259 92.5484C248.231 90.6034 248.988 88.6044 249.528 86.5514L265.088 89.793C264.223 93.791 262.818 97.4108 260.874 100.652C259.037 103.786 256.605 106.541 253.58 108.919C250.554 111.188 246.935 112.917 242.72 114.105C238.614 115.402 233.914 116.05 228.619 116.05Z" fill="#305043"/>
</g>
<g filter="url(#filter4_iiiii_13888_54)">
<path d="M136.657 116.05C129.85 116.05 123.853 115.078 118.666 113.133C113.48 111.08 109.103 108.216 105.538 104.542C102.08 100.76 99.4325 96.2222 97.5956 90.9276C95.7587 85.6329 94.8402 79.744 94.8402 73.2607C94.8402 66.6694 95.7046 60.6184 97.4335 55.1076C99.2704 49.4888 101.864 44.6264 105.213 40.5203C108.671 36.4143 112.885 33.2267 117.856 30.9575C122.934 28.6884 128.715 27.5538 135.198 27.5538C141.033 27.5538 146.274 28.5804 150.92 30.6334C155.675 32.5784 159.673 35.5498 162.914 39.5478C166.156 43.4378 168.533 48.3002 170.046 54.1352C171.667 59.9701 172.261 66.7234 171.829 74.3953L106.024 75.0436V64.0221L161.131 63.5359L155.296 70.1812C155.945 63.806 155.405 58.5654 153.676 54.4593C152.055 50.2452 149.624 47.1116 146.382 45.0586C143.248 43.0056 139.521 41.9791 135.198 41.9791C130.444 41.9791 126.284 43.2217 122.718 45.7069C119.26 48.1922 116.559 51.758 114.614 56.4043C112.777 60.9426 111.859 66.4533 111.859 72.9366C111.859 82.5534 114.02 89.847 118.342 94.8175C122.664 99.788 128.769 102.273 136.657 102.273C140.115 102.273 143.032 101.841 145.41 100.977C147.787 100.112 149.786 98.9776 151.407 97.5729C153.027 96.0601 154.324 94.3853 155.296 92.5484C156.269 90.6034 157.025 88.6044 157.566 86.5514L173.125 89.793C172.261 93.791 170.856 97.4108 168.911 100.652C167.074 103.786 164.643 106.541 161.618 108.919C158.592 111.188 154.972 112.917 150.758 114.105C146.652 115.402 141.952 116.05 136.657 116.05Z" fill="#305043"/>
</g>
<g filter="url(#filter5_iiiii_13888_54)">
<path d="M10.6974 81.8513V67.264H36.3062C45.5988 67.264 52.6223 65.427 57.3767 61.7532C62.1311 58.0794 64.5083 52.1364 64.5083 43.9243C64.5083 36.3605 62.2932 30.7417 57.863 27.0678C53.5408 23.286 46.8414 21.395 37.7649 21.395H10.6974V6.96979H38.2511C45.1666 6.96979 51.3257 7.78019 56.7284 9.401C62.2392 11.0218 66.8855 13.399 70.6674 16.5326C74.4493 19.5581 77.3667 23.448 79.4198 28.2024C81.4728 32.8487 82.4993 38.2514 82.4993 44.4105C82.4993 52.5146 80.6624 59.376 76.9885 64.9948C73.3147 70.5056 67.858 74.7197 60.6183 77.6372C53.4868 80.4466 44.6263 81.8513 34.037 81.8513H10.6974ZM0 113.943V6.96979H17.6668V113.943H0Z" fill="#305043"/>
</g>
<defs>
<filter id="filter0_iiiii_13888_54" x="384.339" y="27.5538" width="82.6613" height="94.4983" filterUnits="userSpaceOnUse" color-interpolation-filters="sRGB">
<feFlood flood-opacity="0" result="BackgroundImageFix"/>
<feBlend mode="normal" in="SourceGraphic" in2="BackgroundImageFix" result="shape"/>
<feColorMatrix in="SourceAlpha" type="matrix" values="0 0 0 0 0 0 0 0 0 0 0 0 0 0 0 0 0 0 127 0" result="hardAlpha"/>
<feOffset dy="1"/>
<feGaussianBlur stdDeviation="1"/>
<feComposite in2="hardAlpha" operator="arithmetic" k2="-1" k3="1"/>
<feColorMatrix type="matrix" values="0 0 0 0 0 0 0 0 0 0 0 0 0 0 0 0 0 0 0.98 0"/>
<feBlend mode="normal" in2="shape" result="effect1_innerShadow_13888_54"/>
<feColorMatrix in="SourceAlpha" type="matrix" values="0 0 0 0 0 0 0 0 0 0 0 0 0 0 0 0 0 0 127 0" result="hardAlpha"/>
<feOffset dy="4"/>
<feGaussianBlur stdDeviation="2"/>
<feComposite in2="hardAlpha" operator="arithmetic" k2="-1" k3="1"/>
<feColorMatrix type="matrix" values="0 0 0 0 0 0 0 0 0 0 0 0 0 0 0 0 0 0 0.85 0"/>
<feBlend mode="normal" in2="effect1_innerShadow_13888_54" result="effect2_innerShadow_13888_54"/>
<feColorMatrix in="SourceAlpha" type="matrix" values="0 0 0 0 0 0 0 0 0 0 0 0 0 0 0 0 0 0 127 0" result="hardAlpha"/>
<feOffset dy="8"/>
<feGaussianBlur stdDeviation="2.5"/>
<feComposite in2="hardAlpha" operator="arithmetic" k2="-1" k3="1"/>
<feColorMatrix type="matrix" values="0 0 0 0 0 0 0 0 0 0 0 0 0 0 0 0 0 0 0.5 0"/>
<feBlend mode="normal" in2="effect2_innerShadow_13888_54" result="effect3_innerShadow_13888_54"/>
<feColorMatrix in="SourceAlpha" type="matrix" values="0 0 0 0 0 0 0 0 0 0 0 0 0 0 0 0 0 0 127 0" result="hardAlpha"/>
<feOffset dy="15"/>
<feGaussianBlur stdDeviation="3"/>
<feComposite in2="hardAlpha" operator="arithmetic" k2="-1" k3="1"/>
<feColorMatrix type="matrix" values="0 0 0 0 0 0 0 0 0 0 0 0 0 0 0 0 0 0 0.15 0"/>
<feBlend mode="normal" in2="effect3_innerShadow_13888_54" result="effect4_innerShadow_13888_54"/>
<feColorMatrix in="SourceAlpha" type="matrix" values="0 0 0 0 0 0 0 0 0 0 0 0 0 0 0 0 0 0 127 0" result="hardAlpha"/>
<feOffset dy="23"/>
<feGaussianBlur stdDeviation="3"/>
<feComposite in2="hardAlpha" operator="arithmetic" k2="-1" k3="1"/>
<feColorMatrix type="matrix" values="0 0 0 0 0 0 0 0 0 0 0 0 0 0 0 0 0 0 0.02 0"/>
<feBlend mode="normal" in2="effect4_innerShadow_13888_54" result="effect5_innerShadow_13888_54"/>
</filter>
<filter id="filter1_iiiii_13888_54" x="348.195" y="0" width="17.5048" height="119.945" filterUnits="userSpaceOnUse" color-interpolation-filters="sRGB">
<feFlood flood-opacity="0" result="BackgroundImageFix"/>
<feBlend mode="normal" in="SourceGraphic" in2="BackgroundImageFix" result="shape"/>
<feColorMatrix in="SourceAlpha" type="matrix" values="0 0 0 0 0 0 0 0 0 0 0 0 0 0 0 0 0 0 127 0" result="hardAlpha"/>
<feOffset dy="1"/>
<feGaussianBlur stdDeviation="1"/>
<feComposite in2="hardAlpha" operator="arithmetic" k2="-1" k3="1"/>
<feColorMatrix type="matrix" values="0 0 0 0 0 0 0 0 0 0 0 0 0 0 0 0 0 0 0.98 0"/>
<feBlend mode="normal" in2="shape" result="effect1_innerShadow_13888_54"/>
<feColorMatrix in="SourceAlpha" type="matrix" values="0 0 0 0 0 0 0 0 0 0 0 0 0 0 0 0 0 0 127 0" result="hardAlpha"/>
<feOffset dy="4"/>
<feGaussianBlur stdDeviation="2"/>
<feComposite in2="hardAlpha" operator="arithmetic" k2="-1" k3="1"/>
<feColorMatrix type="matrix" values="0 0 0 0 0 0 0 0 0 0 0 0 0 0 0 0 0 0 0.85 0"/>
<feBlend mode="normal" in2="effect1_innerShadow_13888_54" result="effect2_innerShadow_13888_54"/>
<feColorMatrix in="SourceAlpha" type="matrix" values="0 0 0 0 0 0 0 0 0 0 0 0 0 0 0 0 0 0 127 0" result="hardAlpha"/>
<feOffset dy="8"/>
<feGaussianBlur stdDeviation="2.5"/>
<feComposite in2="hardAlpha" operator="arithmetic" k2="-1" k3="1"/>
<feColorMatrix type="matrix" values="0 0 0 0 0 0 0 0 0 0 0 0 0 0 0 0 0 0 0.5 0"/>
<feBlend mode="normal" in2="effect2_innerShadow_13888_54" result="effect3_innerShadow_13888_54"/>
<feColorMatrix in="SourceAlpha" type="matrix" values="0 0 0 0 0 0 0 0 0 0 0 0 0 0 0 0 0 0 127 0" result="hardAlpha"/>
<feOffset dy="15"/>
<feGaussianBlur stdDeviation="3"/>
<feComposite in2="hardAlpha" operator="arithmetic" k2="-1" k3="1"/>
<feColorMatrix type="matrix" values="0 0 0 0 0 0 0 0 0 0 0 0 0 0 0 0 0 0 0.15 0"/>
<feBlend mode="normal" in2="effect3_innerShadow_13888_54" result="effect4_innerShadow_13888_54"/>
<feColorMatrix in="SourceAlpha" type="matrix" values="0 0 0 0 0 0 0 0 0 0 0 0 0 0 0 0 0 0 127 0" result="hardAlpha"/>
<feOffset dy="23"/>
<feGaussianBlur stdDeviation="3"/>
<feComposite in2="hardAlpha" operator="arithmetic" k2="-1" k3="1"/>
<feColorMatrix type="matrix" values="0 0 0 0 0 0 0 0 0 0 0 0 0 0 0 0 0 0 0.02 0"/>
<feBlend mode="normal" in2="effect4_innerShadow_13888_54" result="effect5_innerShadow_13888_54"/>
</filter>
<filter id="filter2_iiiii_13888_54" x="282.665" y="27.716" width="51.2176" height="92.2294" filterUnits="userSpaceOnUse" color-interpolation-filters="sRGB">
<feFlood flood-opacity="0" result="BackgroundImageFix"/>
<feBlend mode="normal" in="SourceGraphic" in2="BackgroundImageFix" result="shape"/>
<feColorMatrix in="SourceAlpha" type="matrix" values="0 0 0 0 0 0 0 0 0 0 0 0 0 0 0 0 0 0 127 0" result="hardAlpha"/>
<feOffset dy="1"/>
<feGaussianBlur stdDeviation="1"/>
<feComposite in2="hardAlpha" operator="arithmetic" k2="-1" k3="1"/>
<feColorMatrix type="matrix" values="0 0 0 0 0 0 0 0 0 0 0 0 0 0 0 0 0 0 0.98 0"/>
<feBlend mode="normal" in2="shape" result="effect1_innerShadow_13888_54"/>
<feColorMatrix in="SourceAlpha" type="matrix" values="0 0 0 0 0 0 0 0 0 0 0 0 0 0 0 0 0 0 127 0" result="hardAlpha"/>
<feOffset dy="4"/>
<feGaussianBlur stdDeviation="2"/>
<feComposite in2="hardAlpha" operator="arithmetic" k2="-1" k3="1"/>
<feColorMatrix type="matrix" values="0 0 0 0 0 0 0 0 0 0 0 0 0 0 0 0 0 0 0.85 0"/>
<feBlend mode="normal" in2="effect1_innerShadow_13888_54" result="effect2_innerShadow_13888_54"/>
<feColorMatrix in="SourceAlpha" type="matrix" values="0 0 0 0 0 0 0 0 0 0 0 0 0 0 0 0 0 0 127 0" result="hardAlpha"/>
<feOffset dy="8"/>
<feGaussianBlur stdDeviation="2.5"/>
<feComposite in2="hardAlpha" operator="arithmetic" k2="-1" k3="1"/>
<feColorMatrix type="matrix" values="0 0 0 0 0 0 0 0 0 0 0 0 0 0 0 0 0 0 0.5 0"/>
<feBlend mode="normal" in2="effect2_innerShadow_13888_54" result="effect3_innerShadow_13888_54"/>
<feColorMatrix in="SourceAlpha" type="matrix" values="0 0 0 0 0 0 0 0 0 0 0 0 0 0 0 0 0 0 127 0" result="hardAlpha"/>
<feOffset dy="15"/>
<feGaussianBlur stdDeviation="3"/>
<feComposite in2="hardAlpha" operator="arithmetic" k2="-1" k3="1"/>
<feColorMatrix type="matrix" values="0 0 0 0 0 0 0 0 0 0 0 0 0 0 0 0 0 0 0.15 0"/>
<feBlend mode="normal" in2="effect3_innerShadow_13888_54" result="effect4_innerShadow_13888_54"/>
<feColorMatrix in="SourceAlpha" type="matrix" values="0 0 0 0 0 0 0 0 0 0 0 0 0 0 0 0 0 0 127 0" result="hardAlpha"/>
<feOffset dy="23"/>
<feGaussianBlur stdDeviation="3"/>
<feComposite in2="hardAlpha" operator="arithmetic" k2="-1" k3="1"/>
<feColorMatrix type="matrix" values="0 0 0 0 0 0 0 0 0 0 0 0 0 0 0 0 0 0 0.02 0"/>
<feBlend mode="normal" in2="effect4_innerShadow_13888_54" result="effect5_innerShadow_13888_54"/>
</filter>
<filter id="filter3_iiiii_13888_54" x="186.802" y="27.5538" width="78.285" height="94.4983" filterUnits="userSpaceOnUse" color-interpolation-filters="sRGB">
<feFlood flood-opacity="0" result="BackgroundImageFix"/>
<feBlend mode="normal" in="SourceGraphic" in2="BackgroundImageFix" result="shape"/>
<feColorMatrix in="SourceAlpha" type="matrix" values="0 0 0 0 0 0 0 0 0 0 0 0 0 0 0 0 0 0 127 0" result="hardAlpha"/>
<feOffset dy="1"/>
<feGaussianBlur stdDeviation="1"/>
<feComposite in2="hardAlpha" operator="arithmetic" k2="-1" k3="1"/>
<feColorMatrix type="matrix" values="0 0 0 0 0 0 0 0 0 0 0 0 0 0 0 0 0 0 0.98 0"/>
<feBlend mode="normal" in2="shape" result="effect1_innerShadow_13888_54"/>
<feColorMatrix in="SourceAlpha" type="matrix" values="0 0 0 0 0 0 0 0 0 0 0 0 0 0 0 0 0 0 127 0" result="hardAlpha"/>
<feOffset dy="4"/>
<feGaussianBlur stdDeviation="2"/>
<feComposite in2="hardAlpha" operator="arithmetic" k2="-1" k3="1"/>
<feColorMatrix type="matrix" values="0 0 0 0 0 0 0 0 0 0 0 0 0 0 0 0 0 0 0.85 0"/>
<feBlend mode="normal" in2="effect1_innerShadow_13888_54" result="effect2_innerShadow_13888_54"/>
<feColorMatrix in="SourceAlpha" type="matrix" values="0 0 0 0 0 0 0 0 0 0 0 0 0 0 0 0 0 0 127 0" result="hardAlpha"/>
<feOffset dy="8"/>
<feGaussianBlur stdDeviation="2.5"/>
<feComposite in2="hardAlpha" operator="arithmetic" k2="-1" k3="1"/>
<feColorMatrix type="matrix" values="0 0 0 0 0 0 0 0 0 0 0 0 0 0 0 0 0 0 0.5 0"/>
<feBlend mode="normal" in2="effect2_innerShadow_13888_54" result="effect3_innerShadow_13888_54"/>
<feColorMatrix in="SourceAlpha" type="matrix" values="0 0 0 0 0 0 0 0 0 0 0 0 0 0 0 0 0 0 127 0" result="hardAlpha"/>
<feOffset dy="15"/>
<feGaussianBlur stdDeviation="3"/>
<feComposite in2="hardAlpha" operator="arithmetic" k2="-1" k3="1"/>
<feColorMatrix type="matrix" values="0 0 0 0 0 0 0 0 0 0 0 0 0 0 0 0 0 0 0.15 0"/>
<feBlend mode="normal" in2="effect3_innerShadow_13888_54" result="effect4_innerShadow_13888_54"/>
<feColorMatrix in="SourceAlpha" type="matrix" values="0 0 0 0 0 0 0 0 0 0 0 0 0 0 0 0 0 0 127 0" result="hardAlpha"/>
<feOffset dy="23"/>
<feGaussianBlur stdDeviation="3"/>
<feComposite in2="hardAlpha" operator="arithmetic" k2="-1" k3="1"/>
<feColorMatrix type="matrix" values="0 0 0 0 0 0 0 0 0 0 0 0 0 0 0 0 0 0 0.02 0"/>
<feBlend mode="normal" in2="effect4_innerShadow_13888_54" result="effect5_innerShadow_13888_54"/>
</filter>
<filter id="filter4_iiiii_13888_54" x="94.8402" y="27.5538" width="78.285" height="94.4983" filterUnits="userSpaceOnUse" color-interpolation-filters="sRGB">
<feFlood flood-opacity="0" result="BackgroundImageFix"/>
<feBlend mode="normal" in="SourceGraphic" in2="BackgroundImageFix" result="shape"/>
<feColorMatrix in="SourceAlpha" type="matrix" values="0 0 0 0 0 0 0 0 0 0 0 0 0 0 0 0 0 0 127 0" result="hardAlpha"/>
<feOffset dy="1"/>
<feGaussianBlur stdDeviation="1"/>
<feComposite in2="hardAlpha" operator="arithmetic" k2="-1" k3="1"/>
<feColorMatrix type="matrix" values="0 0 0 0 0 0 0 0 0 0 0 0 0 0 0 0 0 0 0.98 0"/>
<feBlend mode="normal" in2="shape" result="effect1_innerShadow_13888_54"/>
<feColorMatrix in="SourceAlpha" type="matrix" values="0 0 0 0 0 0 0 0 0 0 0 0 0 0 0 0 0 0 127 0" result="hardAlpha"/>
<feOffset dy="4"/>
<feGaussianBlur stdDeviation="2"/>
<feComposite in2="hardAlpha" operator="arithmetic" k2="-1" k3="1"/>
<feColorMatrix type="matrix" values="0 0 0 0 0 0 0 0 0 0 0 0 0 0 0 0 0 0 0.85 0"/>
<feBlend mode="normal" in2="effect1_innerShadow_13888_54" result="effect2_innerShadow_13888_54"/>
<feColorMatrix in="SourceAlpha" type="matrix" values="0 0 0 0 0 0 0 0 0 0 0 0 0 0 0 0 0 0 127 0" result="hardAlpha"/>
<feOffset dy="8"/>
<feGaussianBlur stdDeviation="2.5"/>
<feComposite in2="hardAlpha" operator="arithmetic" k2="-1" k3="1"/>
<feColorMatrix type="matrix" values="0 0 0 0 0 0 0 0 0 0 0 0 0 0 0 0 0 0 0.5 0"/>
<feBlend mode="normal" in2="effect2_innerShadow_13888_54" result="effect3_innerShadow_13888_54"/>
<feColorMatrix in="SourceAlpha" type="matrix" values="0 0 0 0 0 0 0 0 0 0 0 0 0 0 0 0 0 0 127 0" result="hardAlpha"/>
<feOffset dy="15"/>
<feGaussianBlur stdDeviation="3"/>
<feComposite in2="hardAlpha" operator="arithmetic" k2="-1" k3="1"/>
<feColorMatrix type="matrix" values="0 0 0 0 0 0 0 0 0 0 0 0 0 0 0 0 0 0 0.15 0"/>
<feBlend mode="normal" in2="effect3_innerShadow_13888_54" result="effect4_innerShadow_13888_54"/>
<feColorMatrix in="SourceAlpha" type="matrix" values="0 0 0 0 0 0 0 0 0 0 0 0 0 0 0 0 0 0 127 0" result="hardAlpha"/>
<feOffset dy="23"/>
<feGaussianBlur stdDeviation="3"/>
<feComposite in2="hardAlpha" operator="arithmetic" k2="-1" k3="1"/>
<feColorMatrix type="matrix" values="0 0 0 0 0 0 0 0 0 0 0 0 0 0 0 0 0 0 0.02 0"/>
<feBlend mode="normal" in2="effect4_innerShadow_13888_54" result="effect5_innerShadow_13888_54"/>
</filter>
<filter id="filter5_iiiii_13888_54" x="0" y="6.96979" width="82.4994" height="112.976" filterUnits="userSpaceOnUse" color-interpolation-filters="sRGB">
<feFlood flood-opacity="0" result="BackgroundImageFix"/>
<feBlend mode="normal" in="SourceGraphic" in2="BackgroundImageFix" result="shape"/>
<feColorMatrix in="SourceAlpha" type="matrix" values="0 0 0 0 0 0 0 0 0 0 0 0 0 0 0 0 0 0 127 0" result="hardAlpha"/>
<feOffset dy="1"/>
<feGaussianBlur stdDeviation="1"/>
<feComposite in2="hardAlpha" operator="arithmetic" k2="-1" k3="1"/>
<feColorMatrix type="matrix" values="0 0 0 0 0 0 0 0 0 0 0 0 0 0 0 0 0 0 0.98 0"/>
<feBlend mode="normal" in2="shape" result="effect1_innerShadow_13888_54"/>
<feColorMatrix in="SourceAlpha" type="matrix" values="0 0 0 0 0 0 0 0 0 0 0 0 0 0 0 0 0 0 127 0" result="hardAlpha"/>
<feOffset dy="4"/>
<feGaussianBlur stdDeviation="2"/>
<feComposite in2="hardAlpha" operator="arithmetic" k2="-1" k3="1"/>
<feColorMatrix type="matrix" values="0 0 0 0 0 0 0 0 0 0 0 0 0 0 0 0 0 0 0.85 0"/>
<feBlend mode="normal" in2="effect1_innerShadow_13888_54" result="effect2_innerShadow_13888_54"/>
<feColorMatrix in="SourceAlpha" type="matrix" values="0 0 0 0 0 0 0 0 0 0 0 0 0 0 0 0 0 0 127 0" result="hardAlpha"/>
<feOffset dy="8"/>
<feGaussianBlur stdDeviation="2.5"/>
<feComposite in2="hardAlpha" operator="arithmetic" k2="-1" k3="1"/>
<feColorMatrix type="matrix" values="0 0 0 0 0 0 0 0 0 0 0 0 0 0 0 0 0 0 0.5 0"/>
<feBlend mode="normal" in2="effect2_innerShadow_13888_54" result="effect3_innerShadow_13888_54"/>
<feColorMatrix in="SourceAlpha" type="matrix" values="0 0 0 0 0 0 0 0 0 0 0 0 0 0 0 0 0 0 127 0" result="hardAlpha"/>
<feOffset dy="15"/>
<feGaussianBlur stdDeviation="3"/>
<feComposite in2="hardAlpha" operator="arithmetic" k2="-1" k3="1"/>
<feColorMatrix type="matrix" values="0 0 0 0 0 0 0 0 0 0 0 0 0 0 0 0 0 0 0.15 0"/>
<feBlend mode="normal" in2="effect3_innerShadow_13888_54" result="effect4_innerShadow_13888_54"/>
<feColorMatrix in="SourceAlpha" type="matrix" values="0 0 0 0 0 0 0 0 0 0 0 0 0 0 0 0 0 0 127 0" result="hardAlpha"/>
<feOffset dy="23"/>
<feGaussianBlur stdDeviation="3"/>
<feComposite in2="hardAlpha" operator="arithmetic" k2="-1" k3="1"/>
<feColorMatrix type="matrix" values="0 0 0 0 0 0 0 0 0 0 0 0 0 0 0 0 0 0 0.02 0"/>
<feBlend mode="normal" in2="effect4_innerShadow_13888_54" result="effect5_innerShadow_13888_54"/>
</filter>
</defs>
</svg>
