<svg preserveAspectRatio="none" width="100%" height="100%" overflow="visible" style="display: block;" viewBox="0 0 466.832 116.008" fill="none" xmlns="http://www.w3.org/2000/svg">
<g id="Peerlo">
<g id="Vector" filter="url(#filter0_iiiii_0_4)">
<path d="M425.678 116.008C417.469 116.008 410.232 114.334 403.967 110.986C397.811 107.529 392.95 102.506 389.385 95.9176C385.929 89.2206 384.201 81.0655 384.201 71.4521C384.201 61.6227 385.983 53.4676 389.547 46.9866C393.22 40.5057 398.189 35.645 404.453 32.4046C410.718 29.1641 417.685 27.5439 425.354 27.5439C433.348 27.5439 440.477 29.2181 446.741 32.5666C453.006 35.9151 457.921 40.8838 461.486 47.4727C465.05 54.0616 466.832 62.2708 466.832 72.1002C466.832 81.8216 465.05 89.9767 461.486 96.5656C457.921 103.047 453.006 107.907 446.741 111.148C440.477 114.388 433.456 116.008 425.678 116.008ZM426.164 102.074C431.025 102.074 435.13 100.94 438.478 98.672C441.935 96.4036 444.581 93.0552 446.417 88.6265C448.254 84.1979 449.172 78.9052 449.172 72.7483C449.172 66.3754 448.2 60.9206 446.255 56.384C444.419 51.7393 441.665 48.1748 437.992 45.6905C434.428 43.2061 430.107 41.9639 425.03 41.9639C420.278 41.9639 416.173 43.0981 412.717 45.3664C409.26 47.6347 406.614 50.9292 404.777 55.2498C402.941 59.5704 402.023 64.9172 402.023 71.2901C402.023 81.0115 404.183 88.5725 408.504 93.9733C412.825 99.374 418.711 102.074 426.164 102.074Z" fill="var(--fill-0, #305043)"/>
</g>
<g id="Vector_2" filter="url(#filter1_iiiii_0_4)">
<path d="M348.069 113.902V0H365.568V113.902H348.069Z" fill="var(--fill-0, #305043)"/>
</g>
<g id="Vector_3" filter="url(#filter2_iiiii_0_4)">
<path d="M282.564 113.902V70.318V29.6502H297.956L296.984 59.7865H299.576C300.549 52.8735 302.061 47.0407 304.113 42.288C306.165 37.5353 308.92 33.9168 312.376 31.4325C315.941 28.9481 320.261 27.7059 325.338 27.7059C326.526 27.7059 327.768 27.8139 329.065 28.03C330.469 28.138 332.035 28.462 333.763 29.0021L332.953 47.6347C331.225 46.9867 329.497 46.5006 327.768 46.1765C326.04 45.8525 324.42 45.6905 322.908 45.6905C318.695 45.6905 315.077 46.9326 312.052 49.417C309.028 51.9013 306.543 55.3578 304.599 59.7865C302.655 64.2151 301.197 69.3998 300.225 75.3407V113.902H282.564Z" fill="var(--fill-0, #305043)"/>
</g>
<g id="Vector_4" filter="url(#filter3_iiiii_0_4)">
<path d="M228.537 116.008C221.732 116.008 215.737 115.036 210.553 113.092C205.368 111.04 200.993 108.177 197.429 104.505C193.972 100.724 191.326 96.1876 189.49 90.8948C187.653 85.6021 186.735 79.7153 186.735 73.2343C186.735 66.6454 187.599 60.5966 189.328 55.0878C191.164 49.471 193.756 44.6103 197.105 40.5057C200.561 36.4011 204.774 33.2147 209.742 30.9464C214.819 28.678 220.598 27.5439 227.079 27.5439C232.912 27.5439 238.15 28.57 242.795 30.6223C247.548 32.5666 251.544 35.537 254.785 39.5336C258.025 43.4221 260.402 48.2828 261.914 54.1156C263.534 59.9485 264.128 66.6994 263.696 74.3685L197.915 75.0166V63.999L253.003 63.513L247.17 70.1559C247.818 63.783 247.278 58.5443 245.55 54.4397C243.929 50.2271 241.499 47.0947 238.259 45.0424C235.126 42.9901 231.4 41.9639 227.079 41.9639C222.326 41.9639 218.168 43.2061 214.603 45.6905C211.147 48.1748 208.446 51.7393 206.502 56.384C204.666 60.9206 203.748 66.4294 203.748 72.9103C203.748 82.5237 205.908 89.8147 210.229 94.7834C214.549 99.7521 220.652 102.236 228.537 102.236C231.994 102.236 234.91 101.804 237.286 100.94C239.663 100.076 241.661 98.942 243.281 97.5378C244.901 96.0256 246.198 94.3513 247.17 92.5151C248.142 90.5708 248.898 88.5725 249.438 86.5202L264.992 89.7607C264.128 93.7573 262.724 97.3758 260.78 100.616C258.943 103.749 256.513 106.503 253.489 108.879C250.464 111.148 246.846 112.876 242.633 114.064C238.529 115.36 233.83 116.008 228.537 116.008Z" fill="var(--fill-0, #305043)"/>
</g>
<g id="Vector_5" filter="url(#filter4_iiiii_0_4)">
<path d="M136.608 116.008C129.803 116.008 123.808 115.036 118.624 113.092C113.439 111.04 109.064 108.177 105.5 104.505C102.043 100.724 99.3968 96.1876 97.5605 90.8948C95.7243 85.6021 94.8062 79.7153 94.8062 73.2343C94.8062 66.6454 95.6703 60.5966 97.3985 55.0878C99.2348 49.471 101.827 44.6103 105.176 40.5057C108.632 36.4011 112.845 33.2147 117.813 30.9464C122.89 28.678 128.669 27.5439 135.15 27.5439C140.983 27.5439 146.221 28.57 150.866 30.6223C155.619 32.5666 159.615 35.537 162.856 39.5336C166.096 43.4221 168.473 48.2828 169.985 54.1156C171.605 59.9485 172.199 66.6994 171.767 74.3685L105.986 75.0166V63.999L161.074 63.513L155.241 70.1559C155.889 63.783 155.349 58.5443 153.62 54.4397C152 50.2271 149.57 47.0947 146.329 45.0424C143.197 42.9901 139.47 41.9639 135.15 41.9639C130.397 41.9639 126.239 43.2061 122.674 45.6905C119.218 48.1748 116.517 51.7393 114.573 56.384C112.737 60.9206 111.819 66.4294 111.819 72.9103C111.819 82.5237 113.979 89.8147 118.299 94.7834C122.62 99.7521 128.723 102.236 136.608 102.236C140.065 102.236 142.981 101.804 145.357 100.94C147.734 100.076 149.732 98.942 151.352 97.5378C152.972 96.0256 154.269 94.3513 155.241 92.5151C156.213 90.5708 156.969 88.5725 157.509 86.5202L173.063 89.7607C172.199 93.7573 170.795 97.3758 168.851 100.616C167.014 103.749 164.584 106.503 161.56 108.879C158.535 111.148 154.917 112.876 150.704 114.064C146.599 115.36 141.901 116.008 136.608 116.008Z" fill="var(--fill-0, #305043)"/>
</g>
<g id="Vector_6" filter="url(#filter5_iiiii_0_4)">
<path d="M10.6935 81.8216V67.2395H36.2931C45.5824 67.2395 52.6034 65.4032 57.3561 61.7307C62.1088 58.0582 64.4851 52.1174 64.4851 43.9082C64.4851 36.3471 62.2708 30.7303 57.8422 27.0578C53.5216 23.2773 46.8246 21.387 37.7513 21.387H10.6935V6.96698H38.2374C45.1504 6.96698 51.3073 7.77709 56.708 9.39732C62.2168 11.0175 66.8615 13.3939 70.642 16.5263C74.4225 19.5508 77.3389 23.4393 79.3912 28.192C81.4435 32.8366 82.4697 38.2374 82.4697 44.3943C82.4697 52.4954 80.6334 59.3544 76.9609 64.9712C73.2884 70.48 67.8336 74.6926 60.5966 77.609C53.4676 80.4174 44.6103 81.8216 34.0248 81.8216H10.6935ZM0 113.902V6.96698H17.6605V113.902H0Z" fill="var(--fill-0, #305043)"/>
</g>
</g>
<defs>
<filter id="filter0_iiiii_0_4" x="384.201" y="27.5439" width="82.6317" height="94.4645" filterUnits="userSpaceOnUse" color-interpolation-filters="sRGB">
<feFlood flood-opacity="0" result="BackgroundImageFix"/>
<feBlend mode="normal" in="SourceGraphic" in2="BackgroundImageFix" result="shape"/>
<feColorMatrix in="SourceAlpha" type="matrix" values="0 0 0 0 0 0 0 0 0 0 0 0 0 0 0 0 0 0 127 0" result="hardAlpha"/>
<feOffset dy="1"/>
<feGaussianBlur stdDeviation="1"/>
<feComposite in2="hardAlpha" operator="arithmetic" k2="-1" k3="1"/>
<feColorMatrix type="matrix" values="0 0 0 0 0 0 0 0 0 0 0 0 0 0 0 0 0 0 0.98 0"/>
<feBlend mode="normal" in2="shape" result="effect1_innerShadow_0_4"/>
<feColorMatrix in="SourceAlpha" type="matrix" values="0 0 0 0 0 0 0 0 0 0 0 0 0 0 0 0 0 0 127 0" result="hardAlpha"/>
<feOffset dy="4"/>
<feGaussianBlur stdDeviation="2"/>
<feComposite in2="hardAlpha" operator="arithmetic" k2="-1" k3="1"/>
<feColorMatrix type="matrix" values="0 0 0 0 0 0 0 0 0 0 0 0 0 0 0 0 0 0 0.85 0"/>
<feBlend mode="normal" in2="effect1_innerShadow_0_4" result="effect2_innerShadow_0_4"/>
<feColorMatrix in="SourceAlpha" type="matrix" values="0 0 0 0 0 0 0 0 0 0 0 0 0 0 0 0 0 0 127 0" result="hardAlpha"/>
<feOffset dy="8"/>
<feGaussianBlur stdDeviation="2.5"/>
<feComposite in2="hardAlpha" operator="arithmetic" k2="-1" k3="1"/>
<feColorMatrix type="matrix" values="0 0 0 0 0 0 0 0 0 0 0 0 0 0 0 0 0 0 0.5 0"/>
<feBlend mode="normal" in2="effect2_innerShadow_0_4" result="effect3_innerShadow_0_4"/>
<feColorMatrix in="SourceAlpha" type="matrix" values="0 0 0 0 0 0 0 0 0 0 0 0 0 0 0 0 0 0 127 0" result="hardAlpha"/>
<feOffset dy="15"/>
<feGaussianBlur stdDeviation="3"/>
<feComposite in2="hardAlpha" operator="arithmetic" k2="-1" k3="1"/>
<feColorMatrix type="matrix" values="0 0 0 0 0 0 0 0 0 0 0 0 0 0 0 0 0 0 0.15 0"/>
<feBlend mode="normal" in2="effect3_innerShadow_0_4" result="effect4_innerShadow_0_4"/>
<feColorMatrix in="SourceAlpha" type="matrix" values="0 0 0 0 0 0 0 0 0 0 0 0 0 0 0 0 0 0 127 0" result="hardAlpha"/>
<feOffset dy="23"/>
<feGaussianBlur stdDeviation="3"/>
<feComposite in2="hardAlpha" operator="arithmetic" k2="-1" k3="1"/>
<feColorMatrix type="matrix" values="0 0 0 0 0 0 0 0 0 0 0 0 0 0 0 0 0 0 0.02 0"/>
<feBlend mode="normal" in2="effect4_innerShadow_0_4" result="effect5_innerShadow_0_4"/>
</filter>
<filter id="filter1_iiiii_0_4" x="348.069" y="0" width="17.4985" height="119.902" filterUnits="userSpaceOnUse" color-interpolation-filters="sRGB">
<feFlood flood-opacity="0" result="BackgroundImageFix"/>
<feBlend mode="normal" in="SourceGraphic" in2="BackgroundImageFix" result="shape"/>
<feColorMatrix in="SourceAlpha" type="matrix" values="0 0 0 0 0 0 0 0 0 0 0 0 0 0 0 0 0 0 127 0" result="hardAlpha"/>
<feOffset dy="1"/>
<feGaussianBlur stdDeviation="1"/>
<feComposite in2="hardAlpha" operator="arithmetic" k2="-1" k3="1"/>
<feColorMatrix type="matrix" values="0 0 0 0 0 0 0 0 0 0 0 0 0 0 0 0 0 0 0.98 0"/>
<feBlend mode="normal" in2="shape" result="effect1_innerShadow_0_4"/>
<feColorMatrix in="SourceAlpha" type="matrix" values="0 0 0 0 0 0 0 0 0 0 0 0 0 0 0 0 0 0 127 0" result="hardAlpha"/>
<feOffset dy="4"/>
<feGaussianBlur stdDeviation="2"/>
<feComposite in2="hardAlpha" operator="arithmetic" k2="-1" k3="1"/>
<feColorMatrix type="matrix" values="0 0 0 0 0 0 0 0 0 0 0 0 0 0 0 0 0 0 0.85 0"/>
<feBlend mode="normal" in2="effect1_innerShadow_0_4" result="effect2_innerShadow_0_4"/>
<feColorMatrix in="SourceAlpha" type="matrix" values="0 0 0 0 0 0 0 0 0 0 0 0 0 0 0 0 0 0 127 0" result="hardAlpha"/>
<feOffset dy="8"/>
<feGaussianBlur stdDeviation="2.5"/>
<feComposite in2="hardAlpha" operator="arithmetic" k2="-1" k3="1"/>
<feColorMatrix type="matrix" values="0 0 0 0 0 0 0 0 0 0 0 0 0 0 0 0 0 0 0.5 0"/>
<feBlend mode="normal" in2="effect2_innerShadow_0_4" result="effect3_innerShadow_0_4"/>
<feColorMatrix in="SourceAlpha" type="matrix" values="0 0 0 0 0 0 0 0 0 0 0 0 0 0 0 0 0 0 127 0" result="hardAlpha"/>
<feOffset dy="15"/>
<feGaussianBlur stdDeviation="3"/>
<feComposite in2="hardAlpha" operator="arithmetic" k2="-1" k3="1"/>
<feColorMatrix type="matrix" values="0 0 0 0 0 0 0 0 0 0 0 0 0 0 0 0 0 0 0.15 0"/>
<feBlend mode="normal" in2="effect3_innerShadow_0_4" result="effect4_innerShadow_0_4"/>
<feColorMatrix in="SourceAlpha" type="matrix" values="0 0 0 0 0 0 0 0 0 0 0 0 0 0 0 0 0 0 127 0" result="hardAlpha"/>
<feOffset dy="23"/>
<feGaussianBlur stdDeviation="3"/>
<feComposite in2="hardAlpha" operator="arithmetic" k2="-1" k3="1"/>
<feColorMatrix type="matrix" values="0 0 0 0 0 0 0 0 0 0 0 0 0 0 0 0 0 0 0.02 0"/>
<feBlend mode="normal" in2="effect4_innerShadow_0_4" result="effect5_innerShadow_0_4"/>
</filter>
<filter id="filter2_iiiii_0_4" x="282.564" y="27.7059" width="51.1992" height="92.1962" filterUnits="userSpaceOnUse" color-interpolation-filters="sRGB">
<feFlood flood-opacity="0" result="BackgroundImageFix"/>
<feBlend mode="normal" in="SourceGraphic" in2="BackgroundImageFix" result="shape"/>
<feColorMatrix in="SourceAlpha" type="matrix" values="0 0 0 0 0 0 0 0 0 0 0 0 0 0 0 0 0 0 127 0" result="hardAlpha"/>
<feOffset dy="1"/>
<feGaussianBlur stdDeviation="1"/>
<feComposite in2="hardAlpha" operator="arithmetic" k2="-1" k3="1"/>
<feColorMatrix type="matrix" values="0 0 0 0 0 0 0 0 0 0 0 0 0 0 0 0 0 0 0.98 0"/>
<feBlend mode="normal" in2="shape" result="effect1_innerShadow_0_4"/>
<feColorMatrix in="SourceAlpha" type="matrix" values="0 0 0 0 0 0 0 0 0 0 0 0 0 0 0 0 0 0 127 0" result="hardAlpha"/>
<feOffset dy="4"/>
<feGaussianBlur stdDeviation="2"/>
<feComposite in2="hardAlpha" operator="arithmetic" k2="-1" k3="1"/>
<feColorMatrix type="matrix" values="0 0 0 0 0 0 0 0 0 0 0 0 0 0 0 0 0 0 0.85 0"/>
<feBlend mode="normal" in2="effect1_innerShadow_0_4" result="effect2_innerShadow_0_4"/>
<feColorMatrix in="SourceAlpha" type="matrix" values="0 0 0 0 0 0 0 0 0 0 0 0 0 0 0 0 0 0 127 0" result="hardAlpha"/>
<feOffset dy="8"/>
<feGaussianBlur stdDeviation="2.5"/>
<feComposite in2="hardAlpha" operator="arithmetic" k2="-1" k3="1"/>
<feColorMatrix type="matrix" values="0 0 0 0 0 0 0 0 0 0 0 0 0 0 0 0 0 0 0.5 0"/>
<feBlend mode="normal" in2="effect2_innerShadow_0_4" result="effect3_innerShadow_0_4"/>
<feColorMatrix in="SourceAlpha" type="matrix" values="0 0 0 0 0 0 0 0 0 0 0 0 0 0 0 0 0 0 127 0" result="hardAlpha"/>
<feOffset dy="15"/>
<feGaussianBlur stdDeviation="3"/>
<feComposite in2="hardAlpha" operator="arithmetic" k2="-1" k3="1"/>
<feColorMatrix type="matrix" values="0 0 0 0 0 0 0 0 0 0 0 0 0 0 0 0 0 0 0.15 0"/>
<feBlend mode="normal" in2="effect3_innerShadow_0_4" result="effect4_innerShadow_0_4"/>
<feColorMatrix in="SourceAlpha" type="matrix" values="0 0 0 0 0 0 0 0 0 0 0 0 0 0 0 0 0 0 127 0" result="hardAlpha"/>
<feOffset dy="23"/>
<feGaussianBlur stdDeviation="3"/>
<feComposite in2="hardAlpha" operator="arithmetic" k2="-1" k3="1"/>
<feColorMatrix type="matrix" values="0 0 0 0 0 0 0 0 0 0 0 0 0 0 0 0 0 0 0.02 0"/>
<feBlend mode="normal" in2="effect4_innerShadow_0_4" result="effect5_innerShadow_0_4"/>
</filter>
<filter id="filter3_iiiii_0_4" x="186.735" y="27.5439" width="78.257" height="94.4645" filterUnits="userSpaceOnUse" color-interpolation-filters="sRGB">
<feFlood flood-opacity="0" result="BackgroundImageFix"/>
<feBlend mode="normal" in="SourceGraphic" in2="BackgroundImageFix" result="shape"/>
<feColorMatrix in="SourceAlpha" type="matrix" values="0 0 0 0 0 0 0 0 0 0 0 0 0 0 0 0 0 0 127 0" result="hardAlpha"/>
<feOffset dy="1"/>
<feGaussianBlur stdDeviation="1"/>
<feComposite in2="hardAlpha" operator="arithmetic" k2="-1" k3="1"/>
<feColorMatrix type="matrix" values="0 0 0 0 0 0 0 0 0 0 0 0 0 0 0 0 0 0 0.98 0"/>
<feBlend mode="normal" in2="shape" result="effect1_innerShadow_0_4"/>
<feColorMatrix in="SourceAlpha" type="matrix" values="0 0 0 0 0 0 0 0 0 0 0 0 0 0 0 0 0 0 127 0" result="hardAlpha"/>
<feOffset dy="4"/>
<feGaussianBlur stdDeviation="2"/>
<feComposite in2="hardAlpha" operator="arithmetic" k2="-1" k3="1"/>
<feColorMatrix type="matrix" values="0 0 0 0 0 0 0 0 0 0 0 0 0 0 0 0 0 0 0.85 0"/>
<feBlend mode="normal" in2="effect1_innerShadow_0_4" result="effect2_innerShadow_0_4"/>
<feColorMatrix in="SourceAlpha" type="matrix" values="0 0 0 0 0 0 0 0 0 0 0 0 0 0 0 0 0 0 127 0" result="hardAlpha"/>
<feOffset dy="8"/>
<feGaussianBlur stdDeviation="2.5"/>
<feComposite in2="hardAlpha" operator="arithmetic" k2="-1" k3="1"/>
<feColorMatrix type="matrix" values="0 0 0 0 0 0 0 0 0 0 0 0 0 0 0 0 0 0 0.5 0"/>
<feBlend mode="normal" in2="effect2_innerShadow_0_4" result="effect3_innerShadow_0_4"/>
<feColorMatrix in="SourceAlpha" type="matrix" values="0 0 0 0 0 0 0 0 0 0 0 0 0 0 0 0 0 0 127 0" result="hardAlpha"/>
<feOffset dy="15"/>
<feGaussianBlur stdDeviation="3"/>
<feComposite in2="hardAlpha" operator="arithmetic" k2="-1" k3="1"/>
<feColorMatrix type="matrix" values="0 0 0 0 0 0 0 0 0 0 0 0 0 0 0 0 0 0 0.15 0"/>
<feBlend mode="normal" in2="effect3_innerShadow_0_4" result="effect4_innerShadow_0_4"/>
<feColorMatrix in="SourceAlpha" type="matrix" values="0 0 0 0 0 0 0 0 0 0 0 0 0 0 0 0 0 0 127 0" result="hardAlpha"/>
<feOffset dy="23"/>
<feGaussianBlur stdDeviation="3"/>
<feComposite in2="hardAlpha" operator="arithmetic" k2="-1" k3="1"/>
<feColorMatrix type="matrix" values="0 0 0 0 0 0 0 0 0 0 0 0 0 0 0 0 0 0 0.02 0"/>
<feBlend mode="normal" in2="effect4_innerShadow_0_4" result="effect5_innerShadow_0_4"/>
</filter>
<filter id="filter4_iiiii_0_4" x="94.8062" y="27.5439" width="78.2571" height="94.4645" filterUnits="userSpaceOnUse" color-interpolation-filters="sRGB">
<feFlood flood-opacity="0" result="BackgroundImageFix"/>
<feBlend mode="normal" in="SourceGraphic" in2="BackgroundImageFix" result="shape"/>
<feColorMatrix in="SourceAlpha" type="matrix" values="0 0 0 0 0 0 0 0 0 0 0 0 0 0 0 0 0 0 127 0" result="hardAlpha"/>
<feOffset dy="1"/>
<feGaussianBlur stdDeviation="1"/>
<feComposite in2="hardAlpha" operator="arithmetic" k2="-1" k3="1"/>
<feColorMatrix type="matrix" values="0 0 0 0 0 0 0 0 0 0 0 0 0 0 0 0 0 0 0.98 0"/>
<feBlend mode="normal" in2="shape" result="effect1_innerShadow_0_4"/>
<feColorMatrix in="SourceAlpha" type="matrix" values="0 0 0 0 0 0 0 0 0 0 0 0 0 0 0 0 0 0 127 0" result="hardAlpha"/>
<feOffset dy="4"/>
<feGaussianBlur stdDeviation="2"/>
<feComposite in2="hardAlpha" operator="arithmetic" k2="-1" k3="1"/>
<feColorMatrix type="matrix" values="0 0 0 0 0 0 0 0 0 0 0 0 0 0 0 0 0 0 0.85 0"/>
<feBlend mode="normal" in2="effect1_innerShadow_0_4" result="effect2_innerShadow_0_4"/>
<feColorMatrix in="SourceAlpha" type="matrix" values="0 0 0 0 0 0 0 0 0 0 0 0 0 0 0 0 0 0 127 0" result="hardAlpha"/>
<feOffset dy="8"/>
<feGaussianBlur stdDeviation="2.5"/>
<feComposite in2="hardAlpha" operator="arithmetic" k2="-1" k3="1"/>
<feColorMatrix type="matrix" values="0 0 0 0 0 0 0 0 0 0 0 0 0 0 0 0 0 0 0.5 0"/>
<feBlend mode="normal" in2="effect2_innerShadow_0_4" result="effect3_innerShadow_0_4"/>
<feColorMatrix in="SourceAlpha" type="matrix" values="0 0 0 0 0 0 0 0 0 0 0 0 0 0 0 0 0 0 127 0" result="hardAlpha"/>
<feOffset dy="15"/>
<feGaussianBlur stdDeviation="3"/>
<feComposite in2="hardAlpha" operator="arithmetic" k2="-1" k3="1"/>
<feColorMatrix type="matrix" values="0 0 0 0 0 0 0 0 0 0 0 0 0 0 0 0 0 0 0.15 0"/>
<feBlend mode="normal" in2="effect3_innerShadow_0_4" result="effect4_innerShadow_0_4"/>
<feColorMatrix in="SourceAlpha" type="matrix" values="0 0 0 0 0 0 0 0 0 0 0 0 0 0 0 0 0 0 127 0" result="hardAlpha"/>
<feOffset dy="23"/>
<feGaussianBlur stdDeviation="3"/>
<feComposite in2="hardAlpha" operator="arithmetic" k2="-1" k3="1"/>
<feColorMatrix type="matrix" values="0 0 0 0 0 0 0 0 0 0 0 0 0 0 0 0 0 0 0.02 0"/>
<feBlend mode="normal" in2="effect4_innerShadow_0_4" result="effect5_innerShadow_0_4"/>
</filter>
<filter id="filter5_iiiii_0_4" x="0" y="6.96698" width="82.4697" height="112.935" filterUnits="userSpaceOnUse" color-interpolation-filters="sRGB">
<feFlood flood-opacity="0" result="BackgroundImageFix"/>
<feBlend mode="normal" in="SourceGraphic" in2="BackgroundImageFix" result="shape"/>
<feColorMatrix in="SourceAlpha" type="matrix" values="0 0 0 0 0 0 0 0 0 0 0 0 0 0 0 0 0 0 127 0" result="hardAlpha"/>
<feOffset dy="1"/>
<feGaussianBlur stdDeviation="1"/>
<feComposite in2="hardAlpha" operator="arithmetic" k2="-1" k3="1"/>
<feColorMatrix type="matrix" values="0 0 0 0 0 0 0 0 0 0 0 0 0 0 0 0 0 0 0.98 0"/>
<feBlend mode="normal" in2="shape" result="effect1_innerShadow_0_4"/>
<feColorMatrix in="SourceAlpha" type="matrix" values="0 0 0 0 0 0 0 0 0 0 0 0 0 0 0 0 0 0 127 0" result="hardAlpha"/>
<feOffset dy="4"/>
<feGaussianBlur stdDeviation="2"/>
<feComposite in2="hardAlpha" operator="arithmetic" k2="-1" k3="1"/>
<feColorMatrix type="matrix" values="0 0 0 0 0 0 0 0 0 0 0 0 0 0 0 0 0 0 0.85 0"/>
<feBlend mode="normal" in2="effect1_innerShadow_0_4" result="effect2_innerShadow_0_4"/>
<feColorMatrix in="SourceAlpha" type="matrix" values="0 0 0 0 0 0 0 0 0 0 0 0 0 0 0 0 0 0 127 0" result="hardAlpha"/>
<feOffset dy="8"/>
<feGaussianBlur stdDeviation="2.5"/>
<feComposite in2="hardAlpha" operator="arithmetic" k2="-1" k3="1"/>
<feColorMatrix type="matrix" values="0 0 0 0 0 0 0 0 0 0 0 0 0 0 0 0 0 0 0.5 0"/>
<feBlend mode="normal" in2="effect2_innerShadow_0_4" result="effect3_innerShadow_0_4"/>
<feColorMatrix in="SourceAlpha" type="matrix" values="0 0 0 0 0 0 0 0 0 0 0 0 0 0 0 0 0 0 127 0" result="hardAlpha"/>
<feOffset dy="15"/>
<feGaussianBlur stdDeviation="3"/>
<feComposite in2="hardAlpha" operator="arithmetic" k2="-1" k3="1"/>
<feColorMatrix type="matrix" values="0 0 0 0 0 0 0 0 0 0 0 0 0 0 0 0 0 0 0.15 0"/>
<feBlend mode="normal" in2="effect3_innerShadow_0_4" result="effect4_innerShadow_0_4"/>
<feColorMatrix in="SourceAlpha" type="matrix" values="0 0 0 0 0 0 0 0 0 0 0 0 0 0 0 0 0 0 127 0" result="hardAlpha"/>
<feOffset dy="23"/>
<feGaussianBlur stdDeviation="3"/>
<feComposite in2="hardAlpha" operator="arithmetic" k2="-1" k3="1"/>
<feColorMatrix type="matrix" values="0 0 0 0 0 0 0 0 0 0 0 0 0 0 0 0 0 0 0.02 0"/>
<feBlend mode="normal" in2="effect4_innerShadow_0_4" result="effect5_innerShadow_0_4"/>
</filter>
</defs>
</svg>
