<svg width="119" height="81" viewBox="0 0 119 81" fill="none" xmlns="http://www.w3.org/2000/svg">
<path d="M108.406 81.0001C106.333 81.0001 104.506 80.5774 102.924 79.7319C101.369 78.8592 100.142 77.5911 99.242 75.9275C98.3693 74.2366 97.933 72.1775 97.933 69.7503C97.933 67.2685 98.383 65.2095 99.2829 63.5731C100.21 61.9368 101.465 60.7095 103.047 59.8914C104.628 59.0732 106.387 58.6641 108.324 58.6641C110.342 58.6641 112.142 59.0868 113.724 59.9323C115.305 60.7777 116.546 62.0322 117.446 63.6958C118.346 65.3594 118.796 67.4321 118.796 69.9139C118.796 72.3684 118.346 74.4275 117.446 76.0911C116.546 77.7274 115.305 78.9547 113.724 79.7728C112.142 80.591 110.369 81.0001 108.406 81.0001ZM108.528 77.482C109.755 77.482 110.792 77.1956 111.637 76.6229C112.51 76.0502 113.178 75.2047 113.642 74.0866C114.105 72.9684 114.337 71.6321 114.337 70.0776C114.337 68.4685 114.092 67.0912 113.601 65.9458C113.137 64.7731 112.442 63.8731 111.515 63.2458C110.615 62.6186 109.524 62.305 108.242 62.305C107.042 62.305 106.006 62.5913 105.133 63.164C104.26 63.7367 103.592 64.5686 103.128 65.6594C102.665 66.7503 102.433 68.1003 102.433 69.7094C102.433 72.1639 102.978 74.0729 104.069 75.4366C105.16 76.8002 106.646 77.482 108.528 77.482Z" fill="#313131"/>
<path d="M88.8102 80.4683V51.7097H93.2283V80.4683H88.8102Z" fill="#313131"/>
<path d="M72.2711 80.4684V69.4641V59.196H76.1574L75.912 66.805H76.5665C76.8119 65.0596 77.1938 63.5869 77.7119 62.3869C78.2301 61.1869 78.9255 60.2733 79.7983 59.646C80.6982 59.0188 81.7891 58.7051 83.0709 58.7051C83.3709 58.7051 83.6846 58.7324 84.0118 58.787C84.3664 58.8142 84.7618 58.8961 85.1982 59.0324L84.9936 63.7369C84.5573 63.5732 84.1209 63.4505 83.6846 63.3687C83.2482 63.2869 82.8391 63.246 82.4573 63.246C81.3937 63.246 80.4801 63.5596 79.7164 64.1869C78.9528 64.8141 78.3256 65.6868 77.8347 66.805C77.3438 67.9232 76.9756 69.2322 76.7301 70.7322V80.4684H72.2711Z" fill="#313131"/>
<path d="M58.6303 81.0001C56.9121 81.0001 55.3985 80.7546 54.0895 80.2637C52.7804 79.7456 51.6759 79.0229 50.7759 78.0956C49.9032 77.1411 49.235 75.9956 48.7714 74.6593C48.3077 73.323 48.0759 71.8366 48.0759 70.2003C48.0759 68.5367 48.2941 67.0094 48.7305 65.6185C49.1941 64.2004 49.8486 62.9731 50.6941 61.9368C51.5668 60.9004 52.6304 60.0959 53.8849 59.5232C55.1667 58.9505 56.6258 58.6641 58.2621 58.6641C59.7348 58.6641 61.0575 58.9232 62.2302 59.4414C63.4302 59.9323 64.4393 60.6823 65.2575 61.6913C66.0756 62.6731 66.6756 63.9004 67.0574 65.3731C67.4665 66.8458 67.6165 68.5503 67.5074 70.4866L50.8986 70.6503V67.8685L64.8075 67.7458L63.3348 69.423C63.4984 67.814 63.362 66.4912 62.9257 65.4549C62.5166 64.3913 61.903 63.6004 61.0848 63.0822C60.2939 62.564 59.353 62.305 58.2621 62.305C57.0621 62.305 56.0122 62.6186 55.1122 63.2458C54.2395 63.8731 53.5577 64.7731 53.0668 65.9458C52.6031 67.0912 52.3713 68.4821 52.3713 70.1185C52.3713 72.5457 52.9168 74.3866 54.0077 75.6411C55.0985 76.8956 56.6394 77.5229 58.6303 77.5229C59.503 77.5229 60.2394 77.4138 60.8394 77.1956C61.4393 76.9774 61.9439 76.6911 62.353 76.3365C62.7621 75.9547 63.0893 75.532 63.3348 75.0684C63.5802 74.5775 63.7711 74.0729 63.9075 73.5548L67.8347 74.3729C67.6165 75.382 67.262 76.2956 66.7711 77.1138C66.3074 77.9047 65.6938 78.6001 64.9302 79.2001C64.1666 79.7728 63.253 80.2092 62.1893 80.5092C61.153 80.8365 59.9666 81.0001 58.6303 81.0001Z" fill="#313131"/>
<path d="M35.4195 81.0001C33.7013 81.0001 32.1877 80.7546 30.8787 80.2637C29.5696 79.7456 28.4651 79.0229 27.5651 78.0956C26.6924 77.1411 26.0242 75.9956 25.5606 74.6593C25.0969 73.323 24.8651 71.8366 24.8651 70.2003C24.8651 68.5367 25.0833 67.0094 25.5197 65.6185C25.9833 64.2004 26.6378 62.9731 27.4833 61.9368C28.356 60.9004 29.4196 60.0959 30.6741 59.5232C31.9559 58.9505 33.415 58.6641 35.0513 58.6641C36.524 58.6641 37.8467 58.9232 39.0194 59.4414C40.2194 59.9323 41.2285 60.6823 42.0467 61.6913C42.8648 62.6731 43.4648 63.9004 43.8466 65.3731C44.2557 66.8458 44.4057 68.5503 44.2966 70.4866L27.6878 70.6503V67.8685L41.5967 67.7458L40.124 69.423C40.2876 67.814 40.1512 66.4912 39.7149 65.4549C39.3058 64.3913 38.6922 63.6004 37.874 63.0822C37.0831 62.564 36.1422 62.305 35.0513 62.305C33.8513 62.305 32.8013 62.6186 31.9014 63.2458C31.0287 63.8731 30.3468 64.7731 29.8559 65.9458C29.3923 67.0912 29.1605 68.4821 29.1605 70.1185C29.1605 72.5457 29.7059 74.3866 30.7968 75.6411C31.8877 76.8956 33.4286 77.5229 35.4195 77.5229C36.2922 77.5229 37.0286 77.4138 37.6285 77.1956C38.2285 76.9774 38.7331 76.6911 39.1422 76.3365C39.5512 75.9547 39.8785 75.532 40.124 75.0684C40.3694 74.5775 40.5603 74.0729 40.6967 73.5548L44.6239 74.3729C44.4057 75.382 44.0512 76.2956 43.5603 77.1138C43.0966 77.9047 42.483 78.6001 41.7194 79.2001C40.9558 79.7728 40.0421 80.2092 38.9785 80.5092C37.9422 80.8365 36.7558 81.0001 35.4195 81.0001Z" fill="#313131"/>
<path d="M3.62789 72.3685V68.6868H10.0914C12.4368 68.6868 14.2095 68.2231 15.4095 67.2959C16.6095 66.3686 17.2095 64.8687 17.2095 62.796C17.2095 60.8869 16.6504 59.4687 15.5322 58.5415C14.4413 57.587 12.7505 57.1097 10.4596 57.1097H3.62789V53.4688H10.5823C12.3277 53.4688 13.8823 53.6734 15.2459 54.0825C16.6368 54.4916 17.8095 55.0915 18.764 55.8824C19.7185 56.6461 20.4549 57.6279 20.9731 58.8278C21.4912 60.0006 21.7503 61.3642 21.7503 62.9187C21.7503 64.9641 21.2867 66.6959 20.3594 68.1141C19.4322 69.5049 18.0549 70.5686 16.2277 71.3049C14.4277 72.014 12.1914 72.3685 9.5187 72.3685H3.62789ZM0.927934 80.4684V53.4688H5.38695V80.4684H0.927934Z" fill="#313131"/>
<path d="M22.5274 0C30.675 0 37.2801 6.60516 37.2801 14.7527C37.28 22.9002 30.6749 29.5048 22.5274 29.5048H14.7527C14.2248 29.5048 13.703 29.4766 13.1894 29.4225C6.85526 29.504 1.74591 34.6633 1.74591 41.0167V41.3106C1.74591 41.7885 1.35809 42.1763 0.880214 42.1763C0.402409 42.1762 0.0152119 41.7884 0.0152119 41.3106V16.7725C0.0152255 16.406 0.0508963 16.038 0.0283307 15.6722C0.00957018 15.3681 4.92436e-06 15.0616 0 14.7527C0 6.60516 6.60517 0 14.7527 0H22.5274Z" fill="#313131"/>
</svg>
