<svg width="203" height="190" viewBox="0 0 203 190" fill="none" xmlns="http://www.w3.org/2000/svg">
<path d="M185.104 189.886C181.535 189.886 178.388 189.158 175.663 187.702C172.986 186.199 170.873 184.015 169.323 181.15C167.819 178.238 167.068 174.691 167.068 170.511C167.068 166.237 167.843 162.69 169.393 159.872C170.99 157.054 173.151 154.94 175.875 153.531C178.599 152.122 181.629 151.418 184.964 151.418C188.439 151.418 191.539 152.146 194.264 153.602C196.988 155.058 199.125 157.218 200.675 160.084C202.225 162.949 203 166.519 203 170.793C203 175.02 202.225 178.566 200.675 181.431C199.125 184.25 196.988 186.363 194.264 187.772C191.539 189.182 188.486 189.886 185.104 189.886ZM185.316 183.827C187.429 183.827 189.214 183.334 190.67 182.347C192.173 181.361 193.324 179.905 194.123 177.979C194.921 176.053 195.32 173.752 195.32 171.075C195.32 168.303 194.898 165.931 194.052 163.959C193.254 161.939 192.056 160.389 190.459 159.309C188.909 158.228 187.03 157.688 184.823 157.688C182.756 157.688 180.971 158.181 179.468 159.168C177.965 160.154 176.814 161.587 176.016 163.465C175.217 165.344 174.818 167.669 174.818 170.44C174.818 174.668 175.757 177.956 177.636 180.304C179.515 182.653 182.075 183.827 185.316 183.827Z" fill="white"/>
<path d="M151.356 188.97V139.44H158.965V188.97H151.356Z" fill="white"/>
<path d="M122.872 188.97V170.018V152.333H129.565L129.142 165.438H130.27C130.692 162.432 131.35 159.896 132.242 157.829C133.135 155.762 134.332 154.189 135.835 153.108C137.385 152.028 139.264 151.488 141.472 151.488C141.989 151.488 142.529 151.535 143.092 151.629C143.703 151.676 144.384 151.817 145.136 152.052L144.783 160.154C144.032 159.872 143.28 159.661 142.529 159.52C141.777 159.379 141.073 159.309 140.415 159.309C138.583 159.309 137.01 159.849 135.695 160.929C134.379 162.009 133.299 163.512 132.454 165.438C131.608 167.364 130.974 169.618 130.551 172.202V188.97H122.872Z" fill="white"/>
<path d="M99.3785 189.886C96.4193 189.886 93.8125 189.463 91.558 188.618C89.3034 187.725 87.4011 186.481 85.8511 184.884C84.3481 183.24 83.1973 181.267 82.3988 178.966C81.6003 176.664 81.2011 174.104 81.2011 171.286C81.2011 168.421 81.5768 165.79 82.3284 163.395C83.1268 160.953 84.2541 158.839 85.7102 157.054C87.2132 155.269 89.0451 153.884 91.2057 152.897C93.4133 151.911 95.9262 151.418 98.7444 151.418C101.281 151.418 103.559 151.864 105.578 152.756C107.645 153.602 109.383 154.893 110.792 156.631C112.201 158.322 113.235 160.436 113.892 162.972C114.597 165.509 114.855 168.444 114.667 171.779L86.0625 172.061V167.27L110.017 167.059L107.481 169.947C107.763 167.176 107.528 164.898 106.776 163.113C106.072 161.281 105.015 159.919 103.606 159.027C102.244 158.134 100.623 157.688 98.7444 157.688C96.6777 157.688 94.8693 158.228 93.3193 159.309C91.8163 160.389 90.642 161.939 89.7966 163.959C88.9981 165.931 88.5988 168.327 88.5988 171.145C88.5988 175.325 89.5382 178.496 91.417 180.656C93.2958 182.817 95.9496 183.897 99.3785 183.897C100.881 183.897 102.15 183.71 103.183 183.334C104.216 182.958 105.085 182.465 105.79 181.854C106.494 181.197 107.058 180.469 107.481 179.67C107.904 178.825 108.232 177.956 108.467 177.063L115.231 178.472C114.855 180.21 114.244 181.784 113.399 183.193C112.601 184.555 111.544 185.753 110.229 186.786C108.913 187.772 107.34 188.524 105.508 189.041C103.723 189.604 101.68 189.886 99.3785 189.886Z" fill="white"/>
<path d="M59.4034 189.886C56.4443 189.886 53.8374 189.463 51.5829 188.618C49.3283 187.725 47.426 186.481 45.876 184.884C44.373 183.24 43.2222 181.267 42.4237 178.966C41.6253 176.664 41.226 174.104 41.226 171.286C41.226 168.421 41.6018 165.79 42.3533 163.395C43.1518 160.953 44.2791 158.839 45.7351 157.054C47.2382 155.269 49.07 153.884 51.2306 152.897C53.4382 151.911 55.9511 151.418 58.7693 151.418C61.3057 151.418 63.5837 151.864 65.6034 152.756C67.6701 153.602 69.408 154.893 70.8171 156.631C72.2262 158.322 73.2595 160.436 73.9171 162.972C74.6217 165.509 74.88 168.444 74.6921 171.779L46.0874 172.061V167.27L70.0421 167.059L67.5057 169.947C67.7875 167.176 67.5527 164.898 66.8012 163.113C66.0966 161.281 65.0398 159.919 63.6307 159.027C62.2686 158.134 60.6481 157.688 58.7693 157.688C56.7026 157.688 54.8943 158.228 53.3443 159.309C51.8412 160.389 50.667 161.939 49.8215 163.959C49.023 165.931 48.6238 168.327 48.6238 171.145C48.6238 175.325 49.5632 178.496 51.442 180.656C53.3208 182.817 55.9746 183.897 59.4034 183.897C60.9064 183.897 62.1746 183.71 63.208 183.334C64.2413 182.958 65.1102 182.465 65.8148 181.854C66.5193 181.197 67.083 180.469 67.5057 179.67C67.9284 178.825 68.2572 177.956 68.4921 177.063L75.2558 178.472C74.88 180.21 74.2694 181.784 73.4239 183.193C72.6254 184.555 71.5686 185.753 70.2535 186.786C68.9383 187.772 67.3648 188.524 65.533 189.041C63.7481 189.604 61.7049 189.886 59.4034 189.886Z" fill="white"/>
<path d="M4.65003 175.02V168.679H15.7819C19.8213 168.679 22.8744 167.881 24.9411 166.284C27.0077 164.687 28.0411 162.103 28.0411 158.534C28.0411 155.246 27.0782 152.803 25.1524 151.206C23.2736 149.562 20.3615 148.74 16.416 148.74H4.65003V142.47H16.6274C19.6335 142.47 22.3107 142.822 24.6592 143.527C27.0547 144.231 29.0744 145.265 30.7184 146.627C32.3623 147.942 33.6305 149.633 34.5229 151.699C35.4154 153.719 35.8616 156.068 35.8616 158.745C35.8616 162.268 35.0631 165.25 33.4661 167.693C31.8691 170.088 29.4972 171.92 26.3502 173.188C23.2501 174.409 19.3986 175.02 14.7955 175.02H4.65003ZM0 188.97V142.47H7.67959V188.97H0Z" fill="white"/>
<path d="M41.0657 26.7408C41.0657 11.9723 53.038 0 67.8065 0H135.193C149.962 0 161.934 11.9723 161.934 26.7408V94.1277C161.934 108.896 149.962 120.868 135.193 120.868H67.8065C53.038 120.868 41.0657 108.896 41.0657 94.1277V26.7408Z" fill="white"/>
<path d="M106.9 31.1409C118.218 31.1409 127.393 40.3159 127.393 51.6337C127.393 62.9514 118.218 72.1264 106.9 72.1264H96.0999C95.365 72.1264 94.6392 72.0866 93.9244 72.0111C85.1278 72.1267 78.0327 79.2928 78.0327 88.1169V88.5254C78.0327 89.1891 77.4944 89.7273 76.8306 89.7274C76.1668 89.7274 75.6286 89.1892 75.6286 88.5254V52.5562C75.615 52.2504 75.6071 51.9428 75.6071 51.6337C75.6071 40.3159 84.7821 31.1409 96.0999 31.1409H106.9Z" fill="#3F3F3F"/>
</svg>
