<svg width="203" height="182" viewBox="0 0 203 182" fill="none" xmlns="http://www.w3.org/2000/svg">
<path d="M109.146 0C127.758 0 142.847 15.0883 142.847 33.7004C142.847 52.3124 127.758 67.4002 109.146 67.4002H91.3852C90.1761 67.4002 88.9817 67.3358 87.8055 67.2116C73.3403 67.4028 61.6728 79.1867 61.6728 93.6972V94.3692C61.6728 95.4608 60.788 96.3463 59.6963 96.3463C58.6048 96.3462 57.7198 95.4608 57.7198 94.3692V35.2329C57.6971 34.7249 57.6848 34.214 57.6848 33.7004C57.6848 15.0883 72.7731 0 91.3852 0H109.146Z" fill="#313131"/>
<path d="M185.104 181.249C181.535 181.249 178.388 180.521 175.663 179.065C172.986 177.562 170.873 175.378 169.323 172.512C167.819 169.6 167.068 166.054 167.068 161.874C167.068 157.599 167.843 154.053 169.393 151.235C170.99 148.417 173.151 146.303 175.875 144.894C178.599 143.485 181.629 142.78 184.964 142.78C188.439 142.78 191.539 143.508 194.264 144.964C196.988 146.421 199.125 148.581 200.675 151.446C202.225 154.311 203 157.881 203 162.155C203 166.383 202.225 169.929 200.675 172.794C199.125 175.612 196.988 177.726 194.264 179.135C191.539 180.544 188.486 181.249 185.104 181.249ZM185.316 175.19C187.429 175.19 189.214 174.696 190.67 173.71C192.173 172.724 193.324 171.268 194.123 169.342C194.921 167.416 195.32 165.115 195.32 162.437C195.32 159.666 194.898 157.294 194.052 155.321C193.254 153.302 192.056 151.752 190.459 150.671C188.909 149.591 187.03 149.051 184.823 149.051C182.756 149.051 180.971 149.544 179.468 150.53C177.965 151.517 176.814 152.949 176.016 154.828C175.217 156.707 174.818 159.032 174.818 161.803C174.818 166.031 175.757 169.318 177.636 171.667C179.515 174.015 182.075 175.19 185.316 175.19Z" fill="#3F3F3F"/>
<path d="M151.356 180.333V130.803H158.965V180.333H151.356Z" fill="#3F3F3F"/>
<path d="M122.872 180.333V161.38V143.696H129.565L129.142 156.801H130.27C130.692 153.795 131.35 151.258 132.242 149.192C133.135 147.125 134.332 145.552 135.835 144.471C137.385 143.391 139.264 142.851 141.472 142.851C141.989 142.851 142.529 142.898 143.092 142.992C143.703 143.039 144.384 143.18 145.136 143.414L144.783 151.517C144.032 151.235 143.28 151.024 142.529 150.883C141.777 150.742 141.073 150.671 140.415 150.671C138.583 150.671 137.01 151.211 135.695 152.292C134.379 153.372 133.299 154.875 132.454 156.801C131.608 158.727 130.974 160.981 130.551 163.564V180.333H122.872Z" fill="#3F3F3F"/>
<path d="M99.3785 181.249C96.4193 181.249 93.8125 180.826 91.558 179.981C89.3034 179.088 87.4011 177.843 85.8511 176.246C84.3481 174.603 83.1973 172.63 82.3988 170.328C81.6003 168.027 81.2011 165.467 81.2011 162.649C81.2011 159.784 81.5768 157.153 82.3284 154.758C83.1268 152.315 84.2541 150.202 85.7102 148.417C87.2132 146.632 89.0451 145.246 91.2057 144.26C93.4133 143.274 95.9262 142.78 98.7444 142.78C101.281 142.78 103.559 143.227 105.578 144.119C107.645 144.964 109.383 146.256 110.792 147.994C112.201 149.685 113.235 151.799 113.892 154.335C114.597 156.871 114.855 159.807 114.667 163.142L86.0625 163.424V158.633L110.017 158.421L107.481 161.31C107.763 158.539 107.528 156.261 106.776 154.476C106.072 152.644 105.015 151.282 103.606 150.39C102.244 149.497 100.623 149.051 98.7444 149.051C96.6777 149.051 94.8693 149.591 93.3193 150.671C91.8163 151.752 90.642 153.302 89.7966 155.321C88.9981 157.294 88.5988 159.69 88.5988 162.508C88.5988 166.688 89.5382 169.859 91.417 172.019C93.2958 174.18 95.9496 175.26 99.3785 175.26C100.881 175.26 102.15 175.072 103.183 174.696C104.216 174.321 105.085 173.828 105.79 173.217C106.494 172.559 107.058 171.831 107.481 171.033C107.904 170.187 108.232 169.318 108.467 168.426L115.231 169.835C114.855 171.573 114.244 173.146 113.399 174.556C112.601 175.918 111.544 177.115 110.229 178.149C108.913 179.135 107.34 179.887 105.508 180.403C103.723 180.967 101.68 181.249 99.3785 181.249Z" fill="#3F3F3F"/>
<path d="M59.4034 181.249C56.4443 181.249 53.8374 180.826 51.5829 179.981C49.3283 179.088 47.426 177.843 45.876 176.246C44.373 174.603 43.2222 172.63 42.4237 170.328C41.6253 168.027 41.226 165.467 41.226 162.649C41.226 159.784 41.6018 157.153 42.3533 154.758C43.1518 152.315 44.2791 150.202 45.7351 148.417C47.2382 146.632 49.07 145.246 51.2306 144.26C53.4382 143.274 55.9511 142.78 58.7693 142.78C61.3057 142.78 63.5837 143.227 65.6034 144.119C67.6701 144.964 69.408 146.256 70.8171 147.994C72.2262 149.685 73.2595 151.799 73.9171 154.335C74.6217 156.871 74.88 159.807 74.6921 163.142L46.0874 163.424V158.633L70.0421 158.421L67.5057 161.31C67.7875 158.539 67.5527 156.261 66.8012 154.476C66.0966 152.644 65.0398 151.282 63.6307 150.39C62.2686 149.497 60.6481 149.051 58.7693 149.051C56.7026 149.051 54.8943 149.591 53.3443 150.671C51.8412 151.752 50.667 153.302 49.8215 155.321C49.023 157.294 48.6238 159.69 48.6238 162.508C48.6238 166.688 49.5632 169.859 51.442 172.019C53.3208 174.18 55.9746 175.26 59.4034 175.26C60.9064 175.26 62.1746 175.072 63.208 174.696C64.2413 174.321 65.1102 173.828 65.8148 173.217C66.5193 172.559 67.083 171.831 67.5057 171.033C67.9284 170.187 68.2572 169.318 68.4921 168.426L75.2558 169.835C74.88 171.573 74.2694 173.146 73.4239 174.556C72.6254 175.918 71.5686 177.115 70.2535 178.149C68.9383 179.135 67.3648 179.887 65.533 180.403C63.7481 180.967 61.7049 181.249 59.4034 181.249Z" fill="#3F3F3F"/>
<path d="M4.65003 166.383V160.042H15.7819C19.8213 160.042 22.8744 159.243 24.9411 157.646C27.0077 156.049 28.0411 153.466 28.0411 149.896C28.0411 146.608 27.0782 144.166 25.1524 142.569C23.2736 140.925 20.3615 140.103 16.416 140.103H4.65003V133.833H16.6274C19.6335 133.833 22.3107 134.185 24.6592 134.889C27.0547 135.594 29.0744 136.627 30.7184 137.989C32.3623 139.305 33.6305 140.995 34.5229 143.062C35.4154 145.082 35.8616 147.43 35.8616 150.108C35.8616 153.63 35.0631 156.613 33.4661 159.055C31.8691 161.451 29.4972 163.283 26.3502 164.551C23.2501 165.772 19.3986 166.383 14.7955 166.383H4.65003ZM0 180.333V133.833H7.67959V180.333H0Z" fill="#3F3F3F"/>
</svg>
