<svg width="118" height="82" viewBox="0 0 118 82" fill="none" xmlns="http://www.w3.org/2000/svg">
<path d="M107.598 81.2764C105.523 81.2764 103.693 80.8532 102.11 80.0069C100.554 79.1332 99.325 77.8636 98.424 76.1981C97.5503 74.5053 97.1135 72.444 97.1135 70.014C97.1135 67.5294 97.5639 65.4681 98.4649 63.8299C99.3932 62.1917 100.649 60.9631 102.233 60.144C103.816 59.3249 105.577 58.9154 107.516 58.9154C109.536 58.9154 111.338 59.3386 112.922 60.185C114.505 61.0313 115.748 62.2873 116.649 63.9528C117.55 65.6182 118 67.6933 118 70.1778C118 72.6351 117.55 74.6964 116.649 76.3619C115.748 78.0001 114.505 79.2287 112.922 80.0478C111.338 80.8669 109.564 81.2764 107.598 81.2764ZM107.721 77.7544C108.949 77.7544 109.987 77.4677 110.833 76.8943C111.707 76.321 112.376 75.4746 112.84 74.3552C113.304 73.2357 113.536 71.8979 113.536 70.3416C113.536 68.7308 113.29 67.352 112.799 66.2052C112.335 65.0312 111.639 64.1302 110.71 63.5023C109.809 62.8743 108.717 62.5603 107.434 62.5603C106.233 62.5603 105.195 62.847 104.321 63.4203C103.448 63.9937 102.779 64.8264 102.315 65.9186C101.851 67.0107 101.618 68.3622 101.618 69.973C101.618 72.4303 102.164 74.3415 103.257 75.7067C104.349 77.0718 105.837 77.7544 107.721 77.7544Z" fill="#313131"/>
<path d="M87.9812 80.7441V51.9532H92.4043V80.7441H87.9812Z" fill="#313131"/>
<path d="M71.423 80.7442V69.7275V59.4479H75.3137L75.068 67.0654H75.7232C75.969 65.318 76.3512 63.8437 76.87 62.6424C77.3887 61.441 78.0849 60.5264 78.9586 59.8984C79.8596 59.2704 80.9517 58.9565 82.235 58.9565C82.5353 58.9565 82.8493 58.9838 83.1769 59.0384C83.5319 59.0657 83.9278 59.1476 84.3646 59.2841L84.1598 63.9938C83.723 63.83 83.2861 63.7072 82.8493 63.6253C82.4124 63.5433 82.0029 63.5024 81.6207 63.5024C80.5559 63.5024 79.6412 63.8164 78.8767 64.4443C78.1122 65.0723 77.4843 65.946 76.9928 67.0654C76.5014 68.1848 76.1328 69.4954 75.8871 70.997V80.7442H71.423Z" fill="#313131"/>
<path d="M57.7674 81.2764C56.0473 81.2764 54.532 81.0307 53.2215 80.5393C51.9109 80.0205 50.8052 79.297 49.9042 78.3687C49.0305 77.4131 48.3615 76.2664 47.8974 74.9285C47.4333 73.5907 47.2012 72.1027 47.2012 70.4645C47.2012 68.799 47.4196 67.2701 47.8564 65.8776C48.3206 64.4579 48.9759 63.2292 49.8223 62.1917C50.6959 61.1542 51.7608 60.3488 53.0167 59.7754C54.2999 59.2021 55.7606 58.9154 57.3988 58.9154C58.8732 58.9154 60.1974 59.1747 61.3714 59.6935C62.5727 60.185 63.5829 60.9358 64.402 61.946C65.2211 62.9289 65.8217 64.1575 66.204 65.6319C66.6135 67.1062 66.7637 68.8127 66.6545 70.7512L50.027 70.915V68.1301L63.9515 68.0072L62.4771 69.6864C62.641 68.0755 62.5044 66.7513 62.0676 65.7138C61.6581 64.649 61.0437 63.8572 60.2247 63.3384C59.4329 62.8197 58.4909 62.5603 57.3988 62.5603C56.1975 62.5603 55.1463 62.8743 54.2453 63.5023C53.3716 64.1302 52.6891 65.0312 52.1976 66.2052C51.7335 67.352 51.5014 68.7444 51.5014 70.3826C51.5014 72.8125 52.0474 74.6555 53.1396 75.9114C54.2317 77.1674 55.7743 77.7953 57.7674 77.7953C58.6411 77.7953 59.3783 77.6861 59.9789 77.4677C60.5796 77.2493 61.0847 76.9626 61.4942 76.6076C61.9038 76.2254 62.2314 75.8022 62.4771 75.3381C62.7229 74.8466 62.914 74.3415 63.0505 73.8228L66.9821 74.6418C66.7637 75.652 66.4088 76.5667 65.9173 77.3858C65.4532 78.1776 64.8388 78.8738 64.0744 79.4744C63.3099 80.0478 62.3952 80.4847 61.3304 80.785C60.2929 81.1126 59.1052 81.2764 57.7674 81.2764Z" fill="#313131"/>
<path d="M34.5298 81.2764C32.8097 81.2764 31.2944 81.0307 29.9839 80.5393C28.6733 80.0205 27.5676 79.297 26.6666 78.3687C25.7929 77.4131 25.1239 76.2664 24.6598 74.9285C24.1956 73.5907 23.9636 72.1027 23.9636 70.4645C23.9636 68.799 24.182 67.2701 24.6188 65.8776C25.083 64.4579 25.7383 63.2292 26.5846 62.1917C27.4583 61.1542 28.5232 60.3488 29.7791 59.7754C31.0623 59.2021 32.523 58.9154 34.1612 58.9154C35.6356 58.9154 36.9597 59.1747 38.1338 59.6935C39.3351 60.185 40.3453 60.9358 41.1644 61.946C41.9835 62.9289 42.5841 64.1575 42.9664 65.6319C43.3759 67.1062 43.5261 68.8127 43.4169 70.7512L26.7894 70.915V68.1301L40.7139 68.0072L39.2395 69.6864C39.4034 68.0755 39.2668 66.7513 38.83 65.7138C38.4204 64.649 37.8061 63.8572 36.987 63.3384C36.1953 62.8197 35.2533 62.5603 34.1612 62.5603C32.9599 62.5603 31.9087 62.8743 31.0077 63.5023C30.134 64.1302 29.4514 65.0312 28.96 66.2052C28.4958 67.352 28.2638 68.7444 28.2638 70.3826C28.2638 72.8125 28.8098 74.6555 29.9019 75.9114C30.9941 77.1674 32.5367 77.7953 34.5298 77.7953C35.4035 77.7953 36.1407 77.6861 36.7413 77.4677C37.342 77.2493 37.8471 76.9626 38.2566 76.6076C38.6662 76.2254 38.9938 75.8022 39.2395 75.3381C39.4853 74.8466 39.6764 74.3415 39.8129 73.8228L43.7445 74.6418C43.5261 75.652 43.1712 76.5667 42.6797 77.3858C42.2156 78.1776 41.6012 78.8738 40.8368 79.4744C40.0723 80.0478 39.1576 80.4847 38.0928 80.785C37.0553 81.1126 35.8676 81.2764 34.5298 81.2764Z" fill="#313131"/>
<path d="M2.70299 72.6352V68.9493H9.17377C11.5218 68.9493 13.2965 68.4851 14.4978 67.5568C15.6992 66.6285 16.2998 65.1269 16.2998 63.0519C16.2998 61.1407 15.7401 59.7209 14.6207 58.7926C13.5286 57.837 11.8358 57.3592 9.54236 57.3592H2.70299V53.7143H9.66522C11.4126 53.7143 12.9689 53.919 14.334 54.3286C15.7265 54.7381 16.9005 55.3388 17.8561 56.1306C18.8117 56.8951 19.5489 57.878 20.0676 59.0793C20.5864 60.2533 20.8458 61.6185 20.8458 63.1747C20.8458 65.2224 20.3816 66.9562 19.4533 68.3759C18.525 69.7684 17.1462 70.8332 15.3169 71.5704C13.5149 72.2802 11.2761 72.6352 8.60041 72.6352H2.70299ZM0 80.7441V53.7143H4.46402V80.7441H0Z" fill="#313131"/>
<path d="M21.4051 0C29.1467 0 35.4223 6.27575 35.4224 14.0173C35.4224 21.7589 29.1467 28.0346 21.4051 28.0346H21.0539C21.0519 28.0347 21.05 28.0356 21.048 28.0356H12.6035C6.5592 28.0357 1.65934 32.9364 1.65934 38.9808V39.2528C1.65929 39.7067 1.29137 40.0744 0.837497 40.0746C0.383467 40.0746 0.01473 39.7068 0.0146758 39.2528V15.9496C0.0146758 15.5989 0.0485414 15.2468 0.0269666 14.8967C0.00903894 14.6059 0 14.3126 0 14.0173C8.41718e-05 6.2758 6.2758 8.28892e-05 14.0173 0H21.4051Z" fill="white"/>
</svg>
