<svg width="119" height="82" viewBox="0 0 119 82" fill="none" xmlns="http://www.w3.org/2000/svg">
<path d="M108.598 81.2752C106.523 81.2752 104.694 80.852 103.11 80.0056C101.554 79.1319 100.325 77.8624 99.4243 76.1969C98.5506 74.5042 98.1138 72.4428 98.1138 70.0129C98.1138 67.5284 98.5643 65.467 99.4652 63.8289C100.394 62.1907 101.649 60.9621 103.233 60.1431C104.817 59.324 106.578 58.9144 108.516 58.9144C110.536 58.9144 112.338 59.3376 113.922 60.184C115.505 61.0304 116.748 62.2863 117.649 63.9518C118.55 65.6172 119 67.6922 119 70.1767C119 72.6339 118.55 74.6953 117.649 76.3607C116.748 77.9989 115.505 79.2275 113.922 80.0466C112.338 80.8656 110.564 81.2752 108.598 81.2752ZM108.721 77.7531C109.949 77.7531 110.987 77.4665 111.833 76.8931C112.707 76.3198 113.376 75.4734 113.84 74.354C114.304 73.2346 114.536 71.8968 114.536 70.3405C114.536 68.7297 114.29 67.3509 113.799 66.2042C113.335 65.0302 112.639 64.1292 111.71 63.5013C110.809 62.8733 109.717 62.5593 108.434 62.5593C107.233 62.5593 106.195 62.846 105.322 63.4194C104.448 63.9927 103.779 64.8254 103.315 65.9175C102.851 67.0096 102.619 68.3611 102.619 69.9719C102.619 72.4292 103.165 74.3403 104.257 75.7055C105.349 77.0706 106.837 77.7531 108.721 77.7531Z" fill="white"/>
<path d="M88.9817 80.7428V51.9524H93.4047V80.7428H88.9817Z" fill="white"/>
<path d="M72.4238 80.7429V69.7264V59.447H76.3144L76.0686 67.0644H76.7239C76.9696 65.317 77.3519 63.8427 77.8706 62.6414C78.3894 61.4401 79.0856 60.5254 79.9592 59.8975C80.8602 59.2695 81.9523 58.9555 83.2355 58.9555C83.5359 58.9555 83.8498 58.9828 84.1775 59.0374C84.5324 59.0647 84.9283 59.1467 85.3651 59.2832L85.1604 63.9928C84.7235 63.829 84.2867 63.7062 83.8498 63.6243C83.413 63.5424 83.0035 63.5014 82.6212 63.5014C81.5564 63.5014 80.6418 63.8154 79.8773 64.4433C79.1129 65.0713 78.4849 65.945 77.9935 67.0644C77.502 68.1838 77.1334 69.4943 76.8877 70.9959V80.7429H72.4238Z" fill="white"/>
<path d="M58.7683 81.2752C57.0483 81.2752 55.533 81.0294 54.2225 80.538C52.912 80.0193 51.8062 79.2957 50.9052 78.3675C50.0316 77.4119 49.3626 76.2652 48.8985 74.9273C48.4344 73.5895 48.2023 72.1015 48.2023 70.4634C48.2023 68.7979 48.4207 67.269 48.8575 65.8766C49.3217 64.4568 49.9769 63.2282 50.8233 62.1907C51.697 61.1532 52.7618 60.3478 54.0177 59.7745C55.3009 59.2011 56.7616 58.9144 58.3998 58.9144C59.8741 58.9144 61.1983 59.1738 62.3723 59.6926C63.5736 60.184 64.5838 60.9348 65.4028 61.945C66.2219 62.9279 66.8226 64.1565 67.2048 65.6309C67.6143 67.1052 67.7645 68.8116 67.6553 70.7501L51.0281 70.9139V68.129L64.9523 68.0062L63.478 69.6853C63.6418 68.0744 63.5053 66.7503 63.0685 65.7128C62.6589 64.648 62.0446 63.8562 61.2256 63.3374C60.4338 62.8187 59.4919 62.5593 58.3998 62.5593C57.1984 62.5593 56.1473 62.8733 55.2463 63.5013C54.3726 64.1292 53.6901 65.0302 53.1986 66.2042C52.7345 67.3509 52.5024 68.7433 52.5024 70.3815C52.5024 72.8114 53.0485 74.6543 54.1406 75.9102C55.2327 77.1661 56.7753 77.7941 58.7683 77.7941C59.642 77.7941 60.3792 77.6849 60.9798 77.4665C61.5805 77.2481 62.0856 76.9614 62.4951 76.6064C62.9047 76.2242 63.2323 75.801 63.478 75.3369C63.7237 74.8454 63.9149 74.3403 64.0514 73.8216L67.9829 74.6407C67.7645 75.6509 67.4096 76.5655 66.9181 77.3846C66.454 78.1763 65.8397 78.8725 65.0752 79.4732C64.3107 80.0466 63.3961 80.4834 62.3313 80.7837C61.2938 81.1114 60.1062 81.2752 58.7683 81.2752Z" fill="white"/>
<path d="M35.5311 81.2752C33.811 81.2752 32.2958 81.0294 30.9852 80.538C29.6747 80.0193 28.569 79.2957 27.668 78.3675C26.7943 77.4119 26.1254 76.2652 25.6613 74.9273C25.1971 73.5895 24.965 72.1015 24.965 70.4634C24.965 68.7979 25.1835 67.269 25.6203 65.8766C26.0844 64.4568 26.7397 63.2282 27.5861 62.1907C28.4598 61.1532 29.5246 60.3478 30.7805 59.7745C32.0637 59.2011 33.5244 58.9144 35.1625 58.9144C36.6368 58.9144 37.961 59.1738 39.135 59.6926C40.3363 60.184 41.3465 60.9348 42.1656 61.945C42.9847 62.9279 43.5853 64.1565 43.9676 65.6309C44.3771 67.1052 44.5273 68.8116 44.4181 70.7501L27.7908 70.9139V68.129L41.7151 68.0062L40.2408 69.6853C40.4046 68.0744 40.2681 66.7503 39.8312 65.7128C39.4217 64.648 38.8074 63.8562 37.9883 63.3374C37.1965 62.8187 36.2546 62.5593 35.1625 62.5593C33.9612 62.5593 32.9101 62.8733 32.0091 63.5013C31.1354 64.1292 30.4528 65.0302 29.9614 66.2042C29.4973 67.3509 29.2652 68.7433 29.2652 70.3815C29.2652 72.8114 29.8112 74.6543 30.9033 75.9102C31.9954 77.1661 33.538 77.7941 35.5311 77.7941C36.4048 77.7941 37.1419 77.6849 37.7426 77.4665C38.3433 77.2481 38.8483 76.9614 39.2579 76.6064C39.6674 76.2242 39.995 75.801 40.2408 75.3369C40.4865 74.8454 40.6776 74.3403 40.8141 73.8216L44.7457 74.6407C44.5273 75.6509 44.1723 76.5655 43.6809 77.3846C43.2167 78.1763 42.6024 78.8725 41.838 79.4732C41.0735 80.0466 40.1589 80.4834 39.0941 80.7837C38.0566 81.1114 36.8689 81.2752 35.5311 81.2752Z" fill="white"/>
<path d="M3.70479 72.634V68.9482H10.1755C12.5235 68.9482 14.2982 68.4841 15.4995 67.5558C16.7008 66.6275 17.3014 65.1259 17.3014 63.0509C17.3014 61.1397 16.7417 59.72 15.6223 58.7917C14.5302 57.8361 12.8375 57.3583 10.5441 57.3583H3.70479V53.7134H10.6669C12.4143 53.7134 13.9705 53.9182 15.3356 54.3277C16.7281 54.7373 17.9021 55.3379 18.8577 56.1297C19.8132 56.8942 20.5504 57.8771 21.0692 59.0784C21.5879 60.2524 21.8473 61.6175 21.8473 63.1737C21.8473 65.2214 21.3831 66.9551 20.4549 68.3749C19.5266 69.7673 18.1478 70.8321 16.3185 71.5692C14.5166 72.2791 12.2778 72.634 9.60213 72.634H3.70479ZM1.00185 80.7429V53.7134H5.4658V80.7429H1.00185Z" fill="white"/>
<path d="M21.4048 0C29.1462 0 35.4218 6.27565 35.4218 14.0171C35.4218 21.7586 29.1463 28.0342 21.4048 28.0342H21.0535C21.0516 28.0342 21.0496 28.0352 21.0477 28.0352H12.6033C6.5591 28.0352 1.65931 32.9359 1.65931 38.9802V39.2522C1.65926 39.7061 1.29134 40.0738 0.837484 40.074C0.383461 40.074 0.0147297 39.7062 0.0146755 39.2522V15.9494C0.0146755 15.5987 0.0485407 15.2465 0.0269662 14.8965C0.0090388 14.6057 0 14.3124 0 14.0171C8.41705e-05 6.2757 6.2757 8.28879e-05 14.0171 0H21.4048Z" fill="white"/>
</svg>
