<svg width="203" height="192" viewBox="0 0 203 192" fill="none" xmlns="http://www.w3.org/2000/svg">
<path d="M185.104 191.888C181.535 191.888 178.388 191.16 175.663 189.704C172.986 188.201 170.872 186.017 169.322 183.151C167.819 180.239 167.068 176.693 167.068 172.513C167.068 168.238 167.843 164.692 169.393 161.874C170.99 159.056 173.151 156.942 175.875 155.533C178.599 154.124 181.629 153.419 184.964 153.419C188.439 153.419 191.539 154.147 194.264 155.603C196.988 157.06 199.125 159.22 200.675 162.085C202.225 164.95 203 168.52 203 172.794C203 177.022 202.225 180.568 200.675 183.433C199.125 186.251 196.988 188.365 194.264 189.774C191.539 191.183 188.486 191.888 185.104 191.888ZM185.316 185.829C187.429 185.829 189.214 185.335 190.67 184.349C192.173 183.363 193.324 181.907 194.123 179.981C194.921 178.055 195.32 175.754 195.32 173.076C195.32 170.305 194.898 167.933 194.052 165.96C193.254 163.941 192.056 162.391 190.459 161.31C188.909 160.23 187.03 159.69 184.823 159.69C182.756 159.69 180.971 160.183 179.468 161.169C177.965 162.156 176.814 163.588 176.016 165.467C175.217 167.346 174.818 169.671 174.818 172.442C174.818 176.67 175.757 179.957 177.636 182.306C179.515 184.654 182.075 185.829 185.316 185.829Z" fill="#3F3F3F"/>
<path d="M151.356 190.972V141.442H158.965V190.972H151.356Z" fill="#3F3F3F"/>
<path d="M122.872 190.972V172.019V154.335H129.565L129.142 167.44H130.27C130.692 164.434 131.35 161.897 132.242 159.831C133.135 157.764 134.333 156.19 135.836 155.11C137.386 154.03 139.264 153.49 141.472 153.49C141.989 153.49 142.529 153.537 143.092 153.631C143.703 153.678 144.384 153.818 145.136 154.053L144.783 162.156C144.032 161.874 143.28 161.662 142.529 161.522C141.777 161.381 141.073 161.31 140.415 161.31C138.583 161.31 137.01 161.85 135.695 162.931C134.38 164.011 133.299 165.514 132.454 167.44C131.608 169.366 130.974 171.62 130.551 174.203V190.972H122.872Z" fill="#3F3F3F"/>
<path d="M99.3786 191.888C96.4195 191.888 93.8126 191.465 91.5581 190.62C89.3035 189.727 87.4012 188.482 85.8512 186.885C84.3482 185.242 83.1974 183.269 82.3989 180.967C81.6004 178.666 81.2012 176.106 81.2012 173.288C81.2012 170.422 81.5769 167.792 82.3285 165.397C83.1269 162.954 84.2542 160.841 85.7103 159.056C87.2133 157.271 89.0452 155.885 91.2058 154.899C93.4134 153.913 95.9263 153.419 98.7445 153.419C101.281 153.419 103.559 153.866 105.579 154.758C107.645 155.603 109.383 156.895 110.792 158.633C112.201 160.324 113.235 162.438 113.892 164.974C114.597 167.51 114.855 170.446 114.667 173.781L86.0626 174.063V169.272L110.017 169.06L107.481 171.949C107.763 169.178 107.528 166.9 106.776 165.115C106.072 163.283 105.015 161.921 103.606 161.028C102.244 160.136 100.623 159.69 98.7445 159.69C96.6778 159.69 94.8695 160.23 93.3194 161.31C91.8164 162.391 90.6422 163.941 89.7967 165.96C88.9982 167.933 88.599 170.329 88.599 173.147C88.599 177.327 89.5384 180.498 91.4172 182.658C93.296 184.819 95.9498 185.899 99.3786 185.899C100.882 185.899 102.15 185.711 103.183 185.335C104.216 184.96 105.085 184.467 105.79 183.856C106.495 183.198 107.058 182.47 107.481 181.672C107.904 180.826 108.232 179.957 108.467 179.065L115.231 180.474C114.855 182.212 114.245 183.785 113.399 185.195C112.601 186.557 111.544 187.754 110.229 188.788C108.914 189.774 107.34 190.526 105.508 191.042C103.723 191.606 101.68 191.888 99.3786 191.888Z" fill="#3F3F3F"/>
<path d="M59.4035 191.888C56.4443 191.888 53.8375 191.465 51.5829 190.62C49.3284 189.727 47.4261 188.482 45.8761 186.885C44.373 185.242 43.2223 183.269 42.4238 180.967C41.6253 178.666 41.2261 176.106 41.2261 173.288C41.2261 170.422 41.6018 167.792 42.3533 165.397C43.1518 162.954 44.2791 160.841 45.7352 159.056C47.2382 157.271 49.07 155.885 51.2307 154.899C53.4383 153.913 55.9512 153.419 58.7694 153.419C61.3057 153.419 63.5838 153.866 65.6035 154.758C67.6702 155.603 69.4081 156.895 70.8172 158.633C72.2263 160.324 73.2596 162.438 73.9172 164.974C74.6218 167.51 74.8801 170.446 74.6922 173.781L46.0875 174.063V169.272L70.0422 169.06L67.5058 171.949C67.7876 169.178 67.5528 166.9 66.8012 165.115C66.0967 163.283 65.0399 161.921 63.6308 161.028C62.2686 160.136 60.6482 159.69 58.7694 159.69C56.7027 159.69 54.8943 160.23 53.3443 161.31C51.8413 162.391 50.667 163.941 49.8216 165.96C49.0231 167.933 48.6238 170.329 48.6238 173.147C48.6238 177.327 49.5632 180.498 51.442 182.658C53.3208 184.819 55.9746 185.899 59.4035 185.899C60.9065 185.899 62.1747 185.711 63.208 185.335C64.2414 184.96 65.1103 184.467 65.8149 183.856C66.5194 183.198 67.0831 182.47 67.5058 181.672C67.9285 180.826 68.2573 179.957 68.4922 179.065L75.2558 180.474C74.8801 182.212 74.2695 183.785 73.424 185.195C72.6255 186.557 71.5687 187.754 70.2535 188.788C68.9384 189.774 67.3649 190.526 65.533 191.042C63.7482 191.606 61.705 191.888 59.4035 191.888Z" fill="#3F3F3F"/>
<path d="M4.65003 177.022V170.681H15.7819C19.8214 170.681 22.8744 169.882 24.9411 168.285C27.0078 166.688 28.0411 164.105 28.0411 160.535C28.0411 157.247 27.0782 154.805 25.1525 153.208C23.2737 151.564 20.3615 150.742 16.416 150.742H4.65003V144.471H16.6274C19.6335 144.471 22.3108 144.824 24.6593 145.528C27.0547 146.233 29.0745 147.266 30.7184 148.628C32.3624 149.944 33.6305 151.634 34.523 153.701C35.4154 155.721 35.8616 158.069 35.8616 160.747C35.8616 164.269 35.0631 167.252 33.4662 169.694C31.8692 172.09 29.4972 173.922 26.3502 175.19C23.2502 176.411 19.3986 177.022 14.7956 177.022H4.65003ZM0 190.972V144.471H7.6796V190.972H0Z" fill="#3F3F3F"/>
<path d="M41.0658 26.7408C41.0658 11.9723 53.0381 0 67.8066 0H135.194C149.962 0 161.934 11.9723 161.934 26.7409V94.1278C161.934 108.896 149.962 120.869 135.194 120.869H67.8066C53.0381 120.869 41.0658 108.896 41.0658 94.1278V26.7408Z" fill="#3F3F3F"/>
<path d="M106.688 31.0116C118.055 31.0118 127.27 40.2269 127.271 51.5944C127.271 62.962 118.056 72.1779 106.688 72.1781H106.174C106.17 72.1782 106.166 72.1791 106.162 72.1791H93.7633C84.8879 72.1791 77.6929 79.3743 77.6927 88.2496V88.6503C77.6924 89.3169 77.1513 89.8573 76.4848 89.8573C75.8184 89.857 75.2781 89.3167 75.2778 88.6503V52.5218C75.2642 52.2145 75.2563 51.9051 75.2563 51.5944C75.2565 40.2269 84.4716 31.0119 95.839 31.0116H106.688Z" fill="white"/>
</svg>
