<svg width="119" height="81" viewBox="0 0 119 81" fill="none" xmlns="http://www.w3.org/2000/svg">
<path d="M108.429 81.0001C106.355 81.0001 104.526 80.5771 102.943 79.731C101.388 78.8577 100.16 77.5886 99.259 75.9238C98.3857 74.2317 97.949 72.1712 97.949 69.7422C97.949 67.2587 98.3993 65.1982 99.2999 63.5606C100.228 61.9231 101.483 60.695 103.066 59.8763C104.649 59.0575 106.409 58.6481 108.347 58.6481C110.367 58.6481 112.168 59.0711 113.751 59.9172C115.334 60.7632 116.576 62.0187 117.476 63.6835C118.377 65.3483 118.827 67.4224 118.827 69.906C118.827 72.3622 118.377 74.4228 117.476 76.0876C116.576 77.7251 115.334 78.9532 113.751 79.772C112.168 80.5907 110.394 81.0001 108.429 81.0001ZM108.552 77.4795C109.78 77.4795 110.817 77.1929 111.663 76.6198C112.536 76.0466 113.205 75.2006 113.669 74.0816C114.133 72.9627 114.365 71.6254 114.365 70.0697C114.365 68.4595 114.119 67.0813 113.628 65.935C113.164 64.7615 112.468 63.8609 111.54 63.2331C110.64 62.6054 109.548 62.2916 108.265 62.2916C107.064 62.2916 106.027 62.5781 105.154 63.1513C104.281 63.7244 103.612 64.5568 103.148 65.6485C102.684 66.7401 102.452 68.0911 102.452 69.7013C102.452 72.1576 102.998 74.068 104.09 75.4326C105.181 76.7972 106.669 77.4795 108.552 77.4795Z" fill="white"/>
<path d="M88.8197 80.468V51.6888H93.241V80.468H88.8197Z" fill="white"/>
<path d="M72.2688 80.468V69.4558V59.1805H76.1579L75.9122 66.7949H76.5672C76.8129 65.0482 77.195 63.5744 77.7135 62.3736C78.232 61.1728 78.928 60.2585 79.8013 59.6308C80.7019 59.0031 81.7936 58.6892 83.0763 58.6892C83.3765 58.6892 83.6904 58.7165 84.0179 58.7711C84.3727 58.7984 84.7684 58.8802 85.2051 59.0167L85.0004 63.7245C84.5637 63.5608 84.1271 63.438 83.6904 63.3561C83.2537 63.2742 82.8443 63.2333 82.4623 63.2333C81.3979 63.2333 80.4836 63.5471 79.7194 64.1748C78.9553 64.8026 78.3276 65.6759 77.8363 66.7949C77.3451 67.9138 76.9766 69.2238 76.731 70.7249V80.468H72.2688Z" fill="white"/>
<path d="M58.6182 81.0001C56.8988 81.0001 55.3841 80.7545 54.0741 80.2632C52.7641 79.7447 51.6588 79.0214 50.7582 78.0935C49.8848 77.1383 49.2162 75.9921 48.7522 74.6548C48.2883 73.3175 48.0563 71.8301 48.0563 70.1926C48.0563 68.5278 48.2746 66.9994 48.7113 65.6075C49.1753 64.1884 49.8303 62.9602 50.6763 61.9231C51.5496 60.8861 52.614 60.0809 53.8694 59.5078C55.1522 58.9347 56.6123 58.6481 58.2498 58.6481C59.7235 58.6481 61.0472 58.9074 62.2207 59.4259C63.4216 59.9172 64.4314 60.6677 65.2501 61.6775C66.0689 62.66 66.6693 63.8881 67.0514 65.3619C67.4607 66.8357 67.6109 68.5414 67.5017 70.4791L50.881 70.6429V67.8591L64.7998 67.7363L63.326 69.4147C63.4898 67.8045 63.3533 66.4809 62.9167 65.4438C62.5073 64.3794 61.8932 63.5879 61.0745 63.0694C60.283 62.5509 59.3414 62.2916 58.2498 62.2916C57.0489 62.2916 55.9982 62.6054 55.0976 63.2331C54.2242 63.8609 53.5419 64.7615 53.0507 65.935C52.5867 67.0813 52.3547 68.4732 52.3547 70.1107C52.3547 72.5396 52.9006 74.3818 53.9923 75.6373C55.0839 76.8927 56.6259 77.5204 58.6182 77.5204C59.4915 77.5204 60.2284 77.4112 60.8288 77.1929C61.4293 76.9746 61.9342 76.688 62.3435 76.3332C62.7529 75.9511 63.0804 75.5281 63.326 75.0641C63.5717 74.5729 63.7627 74.068 63.8992 73.5494L67.8292 74.3682C67.6109 75.378 67.2561 76.2923 66.7648 77.111C66.3008 77.9025 65.6868 78.5984 64.9226 79.1988C64.1584 79.772 63.2442 80.2086 62.1798 80.5088C61.1427 80.8363 59.9555 81.0001 58.6182 81.0001Z" fill="white"/>
<path d="M35.3908 81.0001C33.6714 81.0001 32.1567 80.7545 30.8467 80.2632C29.5367 79.7447 28.4314 79.0214 27.5308 78.0935C26.6574 77.1383 25.9888 75.9921 25.5248 74.6548C25.0609 73.3175 24.8289 71.8301 24.8289 70.1926C24.8289 68.5278 25.0472 66.9994 25.4839 65.6075C25.9478 64.1884 26.6028 62.9602 27.4489 61.9231C28.3222 60.8861 29.3866 60.0809 30.642 59.5078C31.9247 58.9347 33.3848 58.6481 35.0224 58.6481C36.4961 58.6481 37.8198 58.9074 38.9933 59.4259C40.1941 59.9172 41.2039 60.6677 42.0227 61.6775C42.8414 62.66 43.4419 63.8881 43.824 65.3619C44.2333 66.8357 44.3834 68.5414 44.2743 70.4791L27.6536 70.6429V67.8591L41.5724 67.7363L40.0986 69.4147C40.2624 67.8045 40.1259 66.4809 39.6892 65.4438C39.2799 64.3794 38.6658 63.5879 37.8471 63.0694C37.0556 62.5509 36.114 62.2916 35.0224 62.2916C33.8215 62.2916 32.7708 62.6054 31.8702 63.2331C30.9968 63.8609 30.3145 64.7615 29.8233 65.935C29.3593 67.0813 29.1273 68.4732 29.1273 70.1107C29.1273 72.5396 29.6732 74.3818 30.7648 75.6373C31.8565 76.8927 33.3985 77.5204 35.3908 77.5204C36.2641 77.5204 37.001 77.4112 37.6014 77.1929C38.2018 76.9746 38.7067 76.688 39.1161 76.3332C39.5255 75.9511 39.853 75.5281 40.0986 75.0641C40.3442 74.5729 40.5353 74.068 40.6718 73.5494L44.6018 74.3682C44.3834 75.378 44.0286 76.2923 43.5374 77.111C43.0734 77.9025 42.4594 78.5984 41.6952 79.1988C40.931 79.772 40.0167 80.2086 38.9524 80.5088C37.9153 80.8363 36.7281 81.0001 35.3908 81.0001Z" fill="white"/>
<path d="M3.57645 72.3624V68.678H10.0446C12.3917 68.678 14.1657 68.214 15.3665 67.2861C16.5673 66.3582 17.1678 64.8571 17.1678 62.7829C17.1678 60.8725 16.6083 59.4533 15.4893 58.5254C14.3976 57.5702 12.7056 57.0926 10.413 57.0926H3.57645V53.4491H10.5359C12.2825 53.4491 13.8382 53.6538 15.2028 54.0632C16.5946 54.4726 17.7682 55.073 18.7234 55.8645C19.6786 56.6286 20.4155 57.6111 20.934 58.812C21.4526 59.9855 21.7118 61.3501 21.7118 62.9058C21.7118 64.9526 21.2479 66.6857 20.32 68.1048C19.392 69.4967 18.0138 70.5611 16.1853 71.298C14.384 72.0076 12.1461 72.3624 9.47148 72.3624H3.57645ZM0.874564 80.468V53.4491H5.33677V80.468H0.874564Z" fill="white"/>
<path d="M22.5435 0C30.6968 0 37.3066 6.60941 37.3068 14.7626C37.3068 22.916 30.6969 29.5259 22.5435 29.5259H14.7633C14.234 29.5259 13.711 29.4972 13.1961 29.4429C6.85874 29.5259 1.74726 34.6884 1.74716 41.0454V41.3402C1.74714 41.8184 1.35904 42.2058 0.880844 42.2058C0.402708 42.2057 0.0152396 41.8183 0.0152228 41.3402V16.7845C0.0152228 16.4177 0.0509327 16.0495 0.0283568 15.6835C0.00957226 15.3789 0 15.0718 0 14.7626C0.00018187 6.60953 6.60953 0.000185214 14.7626 0H22.5435Z" fill="white"/>
</svg>
