<svg width="203" height="192" viewBox="0 0 203 192" fill="none" xmlns="http://www.w3.org/2000/svg">
<path d="M185.104 191.888C181.535 191.888 178.388 191.16 175.663 189.703C172.986 188.2 170.873 186.016 169.323 183.151C167.819 180.239 167.068 176.693 167.068 172.512C167.068 168.238 167.843 164.692 169.393 161.874C170.99 159.056 173.151 156.942 175.875 155.533C178.599 154.124 181.629 153.419 184.964 153.419C188.439 153.419 191.539 154.147 194.264 155.603C196.988 157.059 199.125 159.22 200.675 162.085C202.225 164.95 203 168.52 203 172.794C203 177.022 202.225 180.568 200.675 183.433C199.125 186.251 196.988 188.365 194.264 189.774C191.539 191.183 188.486 191.888 185.104 191.888ZM185.316 185.828C187.429 185.828 189.214 185.335 190.67 184.349C192.173 183.363 193.324 181.906 194.123 179.981C194.921 178.055 195.32 175.753 195.32 173.076C195.32 170.305 194.898 167.933 194.052 165.96C193.254 163.94 192.056 162.39 190.459 161.31C188.909 160.23 187.03 159.69 184.823 159.69C182.756 159.69 180.971 160.183 179.468 161.169C177.965 162.156 176.814 163.588 176.016 165.467C175.217 167.346 174.818 169.671 174.818 172.442C174.818 176.669 175.757 179.957 177.636 182.306C179.515 184.654 182.075 185.828 185.316 185.828Z" fill="#3F3F3F"/>
<path d="M151.356 190.972V141.442H158.965V190.972H151.356Z" fill="#3F3F3F"/>
<path d="M122.872 190.972V172.019V154.335H129.565L129.142 167.44H130.27C130.692 164.434 131.35 161.897 132.242 159.83C133.135 157.764 134.332 156.19 135.835 155.11C137.385 154.03 139.264 153.49 141.472 153.49C141.989 153.49 142.529 153.536 143.092 153.63C143.703 153.677 144.384 153.818 145.136 154.053L144.783 162.155C144.032 161.874 143.28 161.662 142.529 161.521C141.777 161.38 141.073 161.31 140.415 161.31C138.583 161.31 137.01 161.85 135.695 162.93C134.379 164.011 133.299 165.514 132.454 167.44C131.608 169.365 130.974 171.62 130.551 174.203V190.972H122.872Z" fill="#3F3F3F"/>
<path d="M99.3785 191.888C96.4193 191.888 93.8125 191.465 91.558 190.619C89.3034 189.727 87.4011 188.482 85.8511 186.885C84.3481 185.241 83.1973 183.269 82.3988 180.967C81.6003 178.666 81.2011 176.106 81.2011 173.287C81.2011 170.422 81.5768 167.792 82.3284 165.396C83.1268 162.954 84.2541 160.84 85.7102 159.056C87.2132 157.271 89.0451 155.885 91.2057 154.899C93.4133 153.912 95.9262 153.419 98.7444 153.419C101.281 153.419 103.559 153.865 105.578 154.758C107.645 155.603 109.383 156.895 110.792 158.633C112.201 160.324 113.235 162.437 113.892 164.974C114.597 167.51 114.855 170.446 114.667 173.781L86.0625 174.062V169.272L110.017 169.06L107.481 171.949C107.763 169.178 107.528 166.9 106.776 165.115C106.072 163.283 105.015 161.921 103.606 161.028C102.244 160.136 100.623 159.69 98.7444 159.69C96.6777 159.69 94.8693 160.23 93.3193 161.31C91.8163 162.39 90.642 163.94 89.7966 165.96C88.9981 167.933 88.5988 170.328 88.5988 173.147C88.5988 177.327 89.5382 180.497 91.417 182.658C93.2958 184.819 95.9496 185.899 99.3785 185.899C100.881 185.899 102.15 185.711 103.183 185.335C104.216 184.959 105.085 184.466 105.79 183.856C106.494 183.198 107.058 182.47 107.481 181.672C107.904 180.826 108.232 179.957 108.467 179.065L115.231 180.474C114.855 182.212 114.244 183.785 113.399 185.194C112.601 186.556 111.544 187.754 110.229 188.788C108.913 189.774 107.34 190.525 105.508 191.042C103.723 191.606 101.68 191.888 99.3785 191.888Z" fill="#3F3F3F"/>
<path d="M59.4034 191.888C56.4443 191.888 53.8374 191.465 51.5829 190.619C49.3283 189.727 47.426 188.482 45.876 186.885C44.373 185.241 43.2222 183.269 42.4237 180.967C41.6253 178.666 41.226 176.106 41.226 173.287C41.226 170.422 41.6018 167.792 42.3533 165.396C43.1518 162.954 44.2791 160.84 45.7351 159.056C47.2382 157.271 49.07 155.885 51.2306 154.899C53.4382 153.912 55.9511 153.419 58.7693 153.419C61.3057 153.419 63.5837 153.865 65.6034 154.758C67.6701 155.603 69.408 156.895 70.8171 158.633C72.2262 160.324 73.2595 162.437 73.9171 164.974C74.6217 167.51 74.88 170.446 74.6921 173.781L46.0874 174.062V169.272L70.0421 169.06L67.5057 171.949C67.7875 169.178 67.5527 166.9 66.8012 165.115C66.0966 163.283 65.0398 161.921 63.6307 161.028C62.2686 160.136 60.6481 159.69 58.7693 159.69C56.7026 159.69 54.8943 160.23 53.3443 161.31C51.8412 162.39 50.667 163.94 49.8215 165.96C49.023 167.933 48.6238 170.328 48.6238 173.147C48.6238 177.327 49.5632 180.497 51.442 182.658C53.3208 184.819 55.9746 185.899 59.4034 185.899C60.9064 185.899 62.1746 185.711 63.208 185.335C64.2413 184.959 65.1102 184.466 65.8148 183.856C66.5193 183.198 67.083 182.47 67.5057 181.672C67.9284 180.826 68.2572 179.957 68.4921 179.065L75.2558 180.474C74.88 182.212 74.2694 183.785 73.4239 185.194C72.6254 186.556 71.5686 187.754 70.2535 188.788C68.9383 189.774 67.3648 190.525 65.533 191.042C63.7481 191.606 61.7049 191.888 59.4034 191.888Z" fill="#3F3F3F"/>
<path d="M4.65003 177.022V170.681H15.7819C19.8213 170.681 22.8744 169.882 24.9411 168.285C27.0077 166.688 28.0411 164.105 28.0411 160.535C28.0411 157.247 27.0782 154.805 25.1524 153.208C23.2736 151.564 20.3615 150.742 16.416 150.742H4.65003V144.471H16.6274C19.6335 144.471 22.3107 144.824 24.6592 145.528C27.0547 146.233 29.0744 147.266 30.7184 148.628C32.3623 149.943 33.6305 151.634 34.5229 153.701C35.4154 155.721 35.8616 158.069 35.8616 160.746C35.8616 164.269 35.0631 167.252 33.4661 169.694C31.8691 172.09 29.4972 173.921 26.3502 175.19C23.2501 176.411 19.3986 177.022 14.7955 177.022H4.65003ZM0 190.972V144.471H7.67959V190.972H0Z" fill="#3F3F3F"/>
<path d="M41.0655 26.7408C41.0655 11.9723 53.0378 0 67.8063 0H135.193C149.962 0 161.934 11.9723 161.934 26.7408V94.1277C161.934 108.896 149.962 120.868 135.193 120.868H67.8063C53.0377 120.868 41.0655 108.896 41.0655 94.1277V26.7408Z" fill="#3F3F3F"/>
<path d="M106.901 31.1409C118.218 31.1409 127.393 40.3159 127.393 51.6337C127.393 62.9514 118.218 72.1264 106.901 72.1264H96.1006C95.3658 72.1264 94.64 72.0866 93.9251 72.0111C85.1284 72.1266 78.0325 79.2927 78.0325 88.1169V88.5254C78.0325 89.189 77.495 89.7272 76.8314 89.7274C76.1676 89.7274 75.6293 89.1892 75.6293 88.5254V52.5562C75.6157 52.2504 75.6078 51.9428 75.6078 51.6337C75.6078 40.3159 84.7828 31.1409 96.1006 31.1409H106.901Z" fill="white"/>
</svg>
