<svg width="203" height="181" viewBox="0 0 203 181" fill="none" xmlns="http://www.w3.org/2000/svg">
<path d="M185.104 180.541C181.535 180.541 178.388 179.813 175.663 178.357C172.986 176.854 170.873 174.67 169.323 171.805C167.819 168.893 167.068 165.347 167.068 161.166C167.068 156.892 167.843 153.346 169.393 150.528C170.99 147.709 173.151 145.596 175.875 144.187C178.599 142.778 181.629 142.073 184.964 142.073C188.439 142.073 191.539 142.801 194.264 144.257C196.988 145.713 199.125 147.874 200.675 150.739C202.225 153.604 203 157.174 203 161.448C203 165.675 202.225 169.222 200.675 172.087C199.125 174.905 196.988 177.019 194.264 178.428C191.539 179.837 188.486 180.541 185.104 180.541ZM185.316 174.482C187.429 174.482 189.214 173.989 190.67 173.003C192.173 172.016 193.324 170.56 194.123 168.635C194.921 166.709 195.32 164.407 195.32 161.73C195.32 158.959 194.898 156.587 194.052 154.614C193.254 152.594 192.056 151.044 190.459 149.964C188.909 148.884 187.03 148.344 184.823 148.344C182.756 148.344 180.971 148.837 179.468 149.823C177.965 150.809 176.814 152.242 176.016 154.121C175.217 156 174.818 158.325 174.818 161.096C174.818 165.323 175.757 168.611 177.636 170.96C179.515 173.308 182.075 174.482 185.316 174.482Z" fill="white"/>
<path d="M151.356 179.625V130.096H158.965V179.625H151.356Z" fill="white"/>
<path d="M122.872 179.625V160.673V142.989H129.565L129.142 156.093H130.27C130.692 153.087 131.35 150.551 132.242 148.484C133.135 146.418 134.332 144.844 135.835 143.764C137.385 142.684 139.264 142.143 141.472 142.143C141.989 142.143 142.529 142.19 143.092 142.284C143.703 142.331 144.384 142.472 145.136 142.707L144.783 150.809C144.032 150.528 143.28 150.316 142.529 150.175C141.777 150.034 141.073 149.964 140.415 149.964C138.583 149.964 137.01 150.504 135.695 151.584C134.379 152.665 133.299 154.168 132.454 156.093C131.608 158.019 130.974 160.274 130.551 162.857V179.625H122.872Z" fill="white"/>
<path d="M99.3785 180.541C96.4193 180.541 93.8125 180.119 91.558 179.273C89.3034 178.381 87.4011 177.136 85.8511 175.539C84.3481 173.895 83.1973 171.922 82.3988 169.621C81.6003 167.319 81.2011 164.76 81.2011 161.941C81.2011 159.076 81.5768 156.446 82.3284 154.05C83.1268 151.608 84.2541 149.494 85.7102 147.709C87.2132 145.925 89.0451 144.539 91.2057 143.553C93.4133 142.566 95.9262 142.073 98.7444 142.073C101.281 142.073 103.559 142.519 105.578 143.412C107.645 144.257 109.383 145.549 110.792 147.287C112.201 148.978 113.235 151.091 113.892 153.628C114.597 156.164 114.855 159.1 114.667 162.435L86.0625 162.716V157.925L110.017 157.714L107.481 160.603C107.763 157.831 107.528 155.553 106.776 153.769C106.072 151.937 105.015 150.575 103.606 149.682C102.244 148.79 100.623 148.344 98.7444 148.344C96.6777 148.344 94.8693 148.884 93.3193 149.964C91.8163 151.044 90.642 152.594 89.7966 154.614C88.9981 156.587 88.5988 158.982 88.5988 161.8C88.5988 165.981 89.5382 169.151 91.417 171.312C93.2958 173.472 95.9496 174.553 99.3785 174.553C100.881 174.553 102.15 174.365 103.183 173.989C104.216 173.613 105.085 173.12 105.79 172.51C106.494 171.852 107.058 171.124 107.481 170.325C107.904 169.48 108.232 168.611 108.467 167.719L115.231 169.128C114.855 170.866 114.244 172.439 113.399 173.848C112.601 175.21 111.544 176.408 110.229 177.441C108.913 178.428 107.34 179.179 105.508 179.696C103.723 180.26 101.68 180.541 99.3785 180.541Z" fill="white"/>
<path d="M59.4034 180.541C56.4443 180.541 53.8374 180.119 51.5829 179.273C49.3283 178.381 47.426 177.136 45.876 175.539C44.373 173.895 43.2222 171.922 42.4237 169.621C41.6253 167.319 41.226 164.76 41.226 161.941C41.226 159.076 41.6018 156.446 42.3533 154.05C43.1518 151.608 44.2791 149.494 45.7351 147.709C47.2382 145.925 49.07 144.539 51.2306 143.553C53.4382 142.566 55.9511 142.073 58.7693 142.073C61.3057 142.073 63.5837 142.519 65.6034 143.412C67.6701 144.257 69.408 145.549 70.8171 147.287C72.2262 148.978 73.2595 151.091 73.9171 153.628C74.6217 156.164 74.88 159.1 74.6921 162.435L46.0874 162.716V157.925L70.0421 157.714L67.5057 160.603C67.7875 157.831 67.5527 155.553 66.8012 153.769C66.0966 151.937 65.0398 150.575 63.6307 149.682C62.2686 148.79 60.6481 148.344 58.7693 148.344C56.7026 148.344 54.8943 148.884 53.3443 149.964C51.8412 151.044 50.667 152.594 49.8215 154.614C49.023 156.587 48.6238 158.982 48.6238 161.8C48.6238 165.981 49.5632 169.151 51.442 171.312C53.3208 173.472 55.9746 174.553 59.4034 174.553C60.9064 174.553 62.1746 174.365 63.208 173.989C64.2413 173.613 65.1102 173.12 65.8148 172.51C66.5193 171.852 67.083 171.124 67.5057 170.325C67.9284 169.48 68.2572 168.611 68.4921 167.719L75.2558 169.128C74.88 170.866 74.2694 172.439 73.4239 173.848C72.6254 175.21 71.5686 176.408 70.2535 177.441C68.9383 178.428 67.3648 179.179 65.533 179.696C63.7481 180.26 61.7049 180.541 59.4034 180.541Z" fill="white"/>
<path d="M4.65003 165.675V159.334H15.7819C19.8213 159.334 22.8744 158.536 24.9411 156.939C27.0077 155.342 28.0411 152.759 28.0411 149.189C28.0411 145.901 27.0782 143.459 25.1524 141.862C23.2736 140.218 20.3615 139.396 16.416 139.396H4.65003V133.125H16.6274C19.6335 133.125 22.3107 133.478 24.6592 134.182C27.0547 134.887 29.0744 135.92 30.7184 137.282C32.3623 138.597 33.6305 140.288 34.5229 142.355C35.4154 144.375 35.8616 146.723 35.8616 149.4C35.8616 152.923 35.0631 155.906 33.4661 158.348C31.8691 160.744 29.4972 162.575 26.3502 163.844C23.2501 165.065 19.3986 165.675 14.7955 165.675H4.65003ZM0 179.626V133.125H7.67959V179.626H0Z" fill="white"/>
<path d="M108.362 0C126.974 0 142.062 15.0883 142.062 33.7004C142.062 52.3124 126.974 67.4002 108.362 67.4002H90.6007C89.3916 67.4002 88.1971 67.3358 87.021 67.2116C72.5558 67.4028 60.8883 79.1867 60.8883 93.6972V94.3692C60.8883 95.4608 60.0034 96.3463 58.9118 96.3463C57.8202 96.3462 56.9353 95.4608 56.9353 94.3692V35.2329C56.9126 34.7249 56.9003 34.214 56.9003 33.7004C56.9003 15.0883 71.9886 0 90.6007 0H108.362Z" fill="white"/>
</svg>
