<svg width="203" height="190" viewBox="0 0 203 190" fill="none" xmlns="http://www.w3.org/2000/svg">
<path d="M185.104 189.886C181.535 189.886 178.388 189.158 175.663 187.702C172.986 186.199 170.872 184.015 169.322 181.15C167.819 178.238 167.068 174.691 167.068 170.511C167.068 166.237 167.843 162.691 169.393 159.872C170.99 157.054 173.151 154.941 175.875 153.531C178.599 152.122 181.629 151.418 184.964 151.418C188.439 151.418 191.539 152.146 194.264 153.602C196.988 155.058 199.125 157.219 200.675 160.084C202.225 162.949 203 166.519 203 170.793C203 175.02 202.225 178.567 200.675 181.432C199.125 184.25 196.988 186.364 194.264 187.773C191.539 189.182 188.486 189.886 185.104 189.886ZM185.316 183.827C187.429 183.827 189.214 183.334 190.67 182.348C192.173 181.361 193.324 179.905 194.123 177.979C194.921 176.054 195.32 173.752 195.32 171.075C195.32 168.304 194.898 165.932 194.052 163.959C193.254 161.939 192.056 160.389 190.459 159.309C188.909 158.228 187.03 157.688 184.823 157.688C182.756 157.688 180.971 158.182 179.468 159.168C177.965 160.154 176.814 161.587 176.016 163.466C175.217 165.344 174.818 167.669 174.818 170.441C174.818 174.668 175.757 177.956 177.636 180.304C179.515 182.653 182.075 183.827 185.316 183.827Z" fill="white"/>
<path d="M151.357 188.97V139.44H158.966V188.97H151.357Z" fill="white"/>
<path d="M122.872 188.97V170.018V152.334H129.565L129.142 165.438H130.27C130.692 162.432 131.35 159.896 132.242 157.829C133.135 155.762 134.333 154.189 135.836 153.109C137.386 152.028 139.264 151.488 141.472 151.488C141.989 151.488 142.529 151.535 143.092 151.629C143.703 151.676 144.384 151.817 145.136 152.052L144.783 160.154C144.032 159.872 143.28 159.661 142.529 159.52C141.777 159.379 141.073 159.309 140.415 159.309C138.583 159.309 137.01 159.849 135.695 160.929C134.38 162.009 133.299 163.513 132.454 165.438C131.608 167.364 130.974 169.619 130.551 172.202V188.97H122.872Z" fill="white"/>
<path d="M99.3786 189.886C96.4195 189.886 93.8126 189.464 91.5581 188.618C89.3035 187.726 87.4012 186.481 85.8512 184.884C84.3482 183.24 83.1974 181.267 82.3989 178.966C81.6004 176.664 81.2012 174.104 81.2012 171.286C81.2012 168.421 81.5769 165.791 82.3285 163.395C83.1269 160.953 84.2542 158.839 85.7103 157.054C87.2133 155.269 89.0452 153.884 91.2058 152.897C93.4134 151.911 95.9263 151.418 98.7445 151.418C101.281 151.418 103.559 151.864 105.579 152.756C107.645 153.602 109.383 154.894 110.792 156.632C112.201 158.322 113.235 160.436 113.892 162.972C114.597 165.509 114.855 168.444 114.667 171.779L86.0626 172.061V167.27L110.017 167.059L107.481 169.948C107.763 167.176 107.528 164.898 106.776 163.113C106.072 161.282 105.015 159.919 103.606 159.027C102.244 158.135 100.623 157.688 98.7445 157.688C96.6778 157.688 94.8695 158.228 93.3194 159.309C91.8164 160.389 90.6422 161.939 89.7967 163.959C88.9982 165.932 88.599 168.327 88.599 171.145C88.599 175.326 89.5384 178.496 91.4172 180.657C93.296 182.817 95.9498 183.898 99.3786 183.898C100.882 183.898 102.15 183.71 103.183 183.334C104.216 182.958 105.085 182.465 105.79 181.854C106.495 181.197 107.058 180.469 107.481 179.67C107.904 178.825 108.232 177.956 108.467 177.063L115.231 178.473C114.855 180.21 114.245 181.784 113.399 183.193C112.601 184.555 111.544 185.753 110.229 186.786C108.914 187.773 107.34 188.524 105.508 189.041C103.723 189.604 101.68 189.886 99.3786 189.886Z" fill="white"/>
<path d="M59.4035 189.886C56.4443 189.886 53.8375 189.464 51.5829 188.618C49.3284 187.726 47.4261 186.481 45.8761 184.884C44.373 183.24 43.2223 181.267 42.4238 178.966C41.6253 176.664 41.2261 174.104 41.2261 171.286C41.2261 168.421 41.6018 165.791 42.3533 163.395C43.1518 160.953 44.2791 158.839 45.7352 157.054C47.2382 155.269 49.07 153.884 51.2307 152.897C53.4383 151.911 55.9512 151.418 58.7694 151.418C61.3057 151.418 63.5838 151.864 65.6035 152.756C67.6702 153.602 69.4081 154.894 70.8172 156.632C72.2263 158.322 73.2596 160.436 73.9172 162.972C74.6218 165.509 74.8801 168.444 74.6922 171.779L46.0875 172.061V167.27L70.0422 167.059L67.5058 169.948C67.7876 167.176 67.5528 164.898 66.8012 163.113C66.0967 161.282 65.0399 159.919 63.6308 159.027C62.2686 158.135 60.6482 157.688 58.7694 157.688C56.7027 157.688 54.8943 158.228 53.3443 159.309C51.8413 160.389 50.667 161.939 49.8216 163.959C49.0231 165.932 48.6238 168.327 48.6238 171.145C48.6238 175.326 49.5632 178.496 51.442 180.657C53.3208 182.817 55.9746 183.898 59.4035 183.898C60.9065 183.898 62.1747 183.71 63.208 183.334C64.2414 182.958 65.1103 182.465 65.8149 181.854C66.5194 181.197 67.0831 180.469 67.5058 179.67C67.9285 178.825 68.2573 177.956 68.4922 177.063L75.2558 178.473C74.8801 180.21 74.2695 181.784 73.424 183.193C72.6255 184.555 71.5687 185.753 70.2535 186.786C68.9384 187.773 67.3649 188.524 65.533 189.041C63.7482 189.604 61.705 189.886 59.4035 189.886Z" fill="white"/>
<path d="M4.65003 175.02V168.679H15.7819C19.8214 168.679 22.8744 167.881 24.9411 166.284C27.0078 164.687 28.0411 162.103 28.0411 158.534C28.0411 155.246 27.0782 152.803 25.1525 151.206C23.2737 149.562 20.3615 148.741 16.416 148.741H4.65003V142.47H16.6274C19.6335 142.47 22.3108 142.822 24.6593 143.527C27.0547 144.231 29.0745 145.265 30.7184 146.627C32.3624 147.942 33.6305 149.633 34.523 151.7C35.4154 153.719 35.8616 156.068 35.8616 158.745C35.8616 162.268 35.0631 165.25 33.4662 167.693C31.8692 170.088 29.4972 171.92 26.3502 173.188C23.2502 174.41 19.3986 175.02 14.7956 175.02H4.65003ZM0 188.97V142.47H7.6796V188.97H0Z" fill="white"/>
<path d="M41.0658 26.7408C41.0658 11.9723 53.0381 0 67.8066 0H135.194C149.962 0 161.934 11.9723 161.934 26.7409V94.1278C161.934 108.896 149.962 120.869 135.194 120.869H67.8066C53.0381 120.869 41.0658 108.896 41.0658 94.1278V26.7408Z" fill="white"/>
<path d="M107.039 31.1409C118.406 31.1411 127.621 40.3562 127.622 51.7236C127.622 63.0913 118.406 72.3072 107.039 72.3073H106.525C106.521 72.3075 106.517 72.3083 106.513 72.3083H94.1141C85.2387 72.3083 78.0438 79.5036 78.0435 88.3789V88.7796C78.0433 89.4461 77.5022 89.9865 76.8356 89.9865C76.1692 89.9863 75.6289 89.4459 75.6287 88.7796V52.6511C75.615 52.3437 75.6072 52.0343 75.6072 51.7236C75.6074 40.3562 84.8225 31.1411 96.1899 31.1409H107.039Z" fill="#3F3F3F"/>
</svg>
