<svg width="118" height="30" viewBox="0 0 118 30" fill="none" xmlns="http://www.w3.org/2000/svg">
<path d="M107.598 29.3233C105.523 29.3233 103.693 28.9001 102.11 28.0537C100.554 27.18 99.325 25.9104 98.424 24.2449C97.5503 22.5521 97.1135 20.4908 97.1135 18.0608C97.1135 15.5762 97.5639 13.5149 98.4649 11.8767C99.3932 10.2385 100.649 9.0099 102.233 8.19081C103.816 7.37173 105.577 6.96218 107.516 6.96218C109.536 6.96218 111.338 7.38538 112.922 8.23177C114.505 9.07816 115.748 10.3341 116.649 11.9996C117.55 13.665 118 15.7401 118 18.2246C118 20.6819 117.55 22.7433 116.649 24.4087C115.748 26.0469 114.505 27.2755 112.922 28.0946C111.338 28.9137 109.564 29.3233 107.598 29.3233ZM107.721 25.8012C108.949 25.8012 109.987 25.5145 110.833 24.9411C111.707 24.3678 112.376 23.5214 112.84 22.402C113.304 21.2826 113.536 19.9447 113.536 18.3884C113.536 16.7776 113.29 15.3988 112.799 14.2521C112.335 13.078 111.639 12.177 110.71 11.5491C109.809 10.9211 108.717 10.6071 107.434 10.6071C106.233 10.6071 105.195 10.8938 104.321 11.4672C103.448 12.0405 102.779 12.8733 102.315 13.9654C101.851 15.0575 101.618 16.409 101.618 18.0199C101.618 20.4771 102.164 22.3883 103.257 23.7535C104.349 25.1186 105.837 25.8012 107.721 25.8012Z" fill="#313131"/>
<path d="M87.9812 28.7909V0H92.4043V28.7909H87.9812Z" fill="#313131"/>
<path d="M71.423 28.791V17.7743V7.49473H75.3137L75.068 15.1122H75.7232C75.969 13.3648 76.3512 11.8905 76.87 10.6892C77.3887 9.48784 78.0849 8.57319 78.9586 7.94522C79.8596 7.31726 80.9517 7.00328 82.235 7.00328C82.5353 7.00328 82.8493 7.03058 83.1769 7.08518C83.5319 7.11248 83.9278 7.19439 84.3646 7.33091L84.1598 12.0407C83.723 11.8768 83.2861 11.754 82.8493 11.6721C82.4124 11.5902 82.0029 11.5492 81.6207 11.5492C80.5559 11.5492 79.6412 11.8632 78.8767 12.4912C78.1122 13.1191 77.4843 13.9928 76.9928 15.1122C76.5014 16.2317 76.1328 17.5422 75.8871 19.0439V28.791H71.423Z" fill="#313131"/>
<path d="M57.7674 29.3233C56.0473 29.3233 54.532 29.0775 53.2215 28.5861C51.9109 28.0673 50.8052 27.3438 49.9042 26.4155C49.0305 25.4599 48.3615 24.3132 47.8974 22.9753C47.4333 21.6375 47.2012 20.1495 47.2012 18.5113C47.2012 16.8458 47.4196 15.3169 47.8564 13.9244C48.3206 12.5047 48.9759 11.276 49.8223 10.2385C50.6959 9.20102 51.7608 8.39559 53.0167 7.82223C54.2999 7.24886 55.7606 6.96218 57.3988 6.96218C58.8732 6.96218 60.1974 7.22156 61.3714 7.74032C62.5727 8.23177 63.5829 8.9826 64.402 9.9928C65.2211 10.9757 65.8217 12.2043 66.204 13.6787C66.6135 15.1531 66.7637 16.8595 66.6545 18.798L50.027 18.9618V16.1769L63.9515 16.054L62.4771 17.7332C62.641 16.1223 62.5044 14.7981 62.0676 13.7606C61.6581 12.6958 61.0437 11.904 60.2247 11.3853C59.4329 10.8665 58.4909 10.6071 57.3988 10.6071C56.1975 10.6071 55.1463 10.9211 54.2453 11.5491C53.3716 12.177 52.6891 13.078 52.1976 14.2521C51.7335 15.3988 51.5014 16.7912 51.5014 18.4294C51.5014 20.8594 52.0474 22.7023 53.1396 23.9582C54.2317 25.2142 55.7743 25.8421 57.7674 25.8421C58.6411 25.8421 59.3783 25.7329 59.9789 25.5145C60.5796 25.2961 61.0847 25.0094 61.4942 24.6545C61.9038 24.2722 62.2314 23.849 62.4771 23.3849C62.7229 22.8934 62.914 22.3883 63.0505 21.8696L66.9821 22.6887C66.7637 23.6989 66.4088 24.6135 65.9173 25.4326C65.4532 26.2244 64.8388 26.9206 64.0744 27.5213C63.3099 28.0946 62.3952 28.5315 61.3304 28.8318C60.2929 29.1594 59.1052 29.3233 57.7674 29.3233Z" fill="#313131"/>
<path d="M34.5298 29.3233C32.8097 29.3233 31.2944 29.0775 29.9839 28.5861C28.6733 28.0673 27.5676 27.3438 26.6666 26.4155C25.7929 25.4599 25.1239 24.3132 24.6598 22.9753C24.1956 21.6375 23.9636 20.1495 23.9636 18.5113C23.9636 16.8458 24.182 15.3169 24.6188 13.9244C25.083 12.5047 25.7383 11.276 26.5846 10.2385C27.4583 9.20102 28.5232 8.39559 29.7791 7.82223C31.0623 7.24886 32.523 6.96218 34.1612 6.96218C35.6356 6.96218 36.9597 7.22156 38.1338 7.74032C39.3351 8.23177 40.3453 8.9826 41.1644 9.9928C41.9835 10.9757 42.5841 12.2043 42.9664 13.6787C43.3759 15.1531 43.5261 16.8595 43.4169 18.798L26.7894 18.9618V16.1769L40.7139 16.054L39.2395 17.7332C39.4034 16.1223 39.2668 14.7981 38.83 13.7606C38.4204 12.6958 37.8061 11.904 36.987 11.3853C36.1953 10.8665 35.2533 10.6071 34.1612 10.6071C32.9599 10.6071 31.9087 10.9211 31.0077 11.5491C30.134 12.177 29.4514 13.078 28.96 14.2521C28.4958 15.3988 28.2638 16.7912 28.2638 18.4294C28.2638 20.8594 28.8098 22.7023 29.9019 23.9582C30.9941 25.2142 32.5367 25.8421 34.5298 25.8421C35.4035 25.8421 36.1407 25.7329 36.7413 25.5145C37.342 25.2961 37.8471 25.0094 38.2566 24.6545C38.6662 24.2722 38.9938 23.849 39.2395 23.3849C39.4853 22.8934 39.6764 22.3883 39.8129 21.8696L43.7445 22.6887C43.5261 23.6989 43.1712 24.6135 42.6797 25.4326C42.2156 26.2244 41.6012 26.9206 40.8368 27.5213C40.0723 28.0946 39.1576 28.5315 38.0928 28.8318C37.0553 29.1594 35.8676 29.3233 34.5298 29.3233Z" fill="#313131"/>
<path d="M2.70299 20.682V16.9961H9.17377C11.5218 16.9961 13.2965 16.532 14.4978 15.6037C15.6992 14.6754 16.2998 13.1737 16.2998 11.0987C16.2998 9.18748 15.7401 7.76773 14.6207 6.83943C13.5286 5.88383 11.8358 5.40603 9.54236 5.40603H2.70299V1.76109H9.66522C11.4126 1.76109 12.9689 1.96586 14.334 2.37541C15.7265 2.78495 16.9005 3.38561 17.8561 4.1774C18.8117 4.94188 19.5489 5.92478 20.0676 7.12611C20.5864 8.30013 20.8458 9.66528 20.8458 11.2215C20.8458 13.2693 20.3816 15.003 19.4533 16.4227C18.525 17.8152 17.1462 18.88 15.3169 19.6172C13.5149 20.3271 11.2761 20.682 8.60041 20.682H2.70299ZM0 28.791V1.76109H4.46402V28.791H0Z" fill="#313131"/>
</svg>
